SplineFontDB: 3.0
FontName: Goblin
FullName: Goblin
FamilyName: Goblin
Weight: Book
Copyright: Copyright (c) 2011, Sorkin Type Co (www.sorkintype.com)\nwith Reserved Font Name "Goblin".\n\nThis Font Software is licensed under the SIL Open Font License,\nVersion 1.1. This license is available with a FAQ at:\nhttp://scripts.sil.org/OFL
Version: 1.001
ItalicAngle: 0
UnderlinePosition: 39
UnderlineWidth: 222
Ascent: 1638
Descent: 410
LayerCount: 2
Layer: 0 1 "Back"  1
Layer: 1 1 "Fore"  0
XUID: [1021 631 1661839179 6427135]
FSType: 0
OS2Version: 3
OS2_WeightWidthSlopeOnly: 0
OS2_UseTypoMetrics: 1
CreationTime: 1308139800
ModificationTime: 1308588202
PfmFamily: 17
TTFWeight: 400
TTFWidth: 5
LineGap: 0
VLineGap: 0
Panose: 2 10 9 2 7 4 0 6 7 4
OS2TypoAscent: 279
OS2TypoAOffset: 1
OS2TypoDescent: -233
OS2TypoDOffset: 1
OS2TypoLinegap: 0
OS2WinAscent: -3
OS2WinAOffset: 1
OS2WinDescent: 3
OS2WinDOffset: 1
HheadAscent: -3
HheadAOffset: 1
HheadDescent: -3
HheadDOffset: 1
OS2SubXSize: 1434
OS2SubYSize: 1331
OS2SubXOff: 0
OS2SubYOff: 287
OS2SupXSize: 1434
OS2SupYSize: 1331
OS2SupXOff: 0
OS2SupYOff: 977
OS2StrikeYSize: 222
OS2StrikeYPos: 571
OS2Vendor: 'STC '
OS2CodePages: 20000111.40000000
OS2UnicodeRanges: 800000a7.00000002.00000000.00000000
DEI: 91125
TtTable: prep
PUSHW_1
 511
SCANCTRL
PUSHB_1
 4
SCANTYPE
EndTTInstrs
ShortTable: maxp 16
  1
  0
  258
  126
  5
  0
  0
  1
  0
  0
  0
  0
  0
  0
  1
  1
EndShort

StartChar: a
Encoding: 97 97 5
Width: 1764
Flags: W
LayerCount: 2
Fore
SplineSet
94 258 m 0,0,1
 94 338 94 338 127 396.5 c 128,-1,2
 160 455 160 455 216 496.5 c 128,-1,3
 272 538 272 538 347 564 c 128,-1,4
 422 590 422 590 506 604.5 c 128,-1,5
 590 619 590 619 678.5 624.5 c 128,-1,6
 767 630 767 630 851 630 c 0,7,8
 898 630 898 630 950.5 628.5 c 128,-1,9
 1003 627 1003 627 1056 625 c 1,10,11
 1054 697 1054 697 1043.5 753.5 c 128,-1,12
 1033 810 1033 810 1008.5 848.5 c 128,-1,13
 984 887 984 887 940.5 907.5 c 128,-1,14
 897 928 897 928 829 928 c 0,15,16
 785 928 785 928 742 917 c 128,-1,17
 699 906 699 906 664 882 c 128,-1,18
 629 858 629 858 604.5 820.5 c 128,-1,19
 580 783 580 783 573 729 c 1,20,-1
 172 784 l 1,21,22
 172 852 172 852 199.5 905.5 c 128,-1,23
 227 959 227 959 275 999.5 c 128,-1,24
 323 1040 323 1040 388.5 1068 c 128,-1,25
 454 1096 454 1096 529.5 1113 c 128,-1,26
 605 1130 605 1130 687.5 1138 c 128,-1,27
 770 1146 770 1146 852 1146 c 0,28,29
 951 1146 951 1146 1041.5 1137.5 c 128,-1,30
 1132 1129 1132 1129 1210 1107 c 128,-1,31
 1288 1085 1288 1085 1351.5 1048 c 128,-1,32
 1415 1011 1415 1011 1460 954 c 128,-1,33
 1505 897 1505 897 1529.5 818 c 128,-1,34
 1554 739 1554 739 1554 634 c 2,35,-1
 1554 282 l 2,36,37
 1554 202 1554 202 1593.5 170 c 128,-1,38
 1633 138 1633 138 1701 138 c 1,39,-1
 1701 23 l 1,40,41
 1692 14 1692 14 1670.5 3.5 c 128,-1,42
 1649 -7 1649 -7 1614.5 -16.5 c 128,-1,43
 1580 -26 1580 -26 1533 -32.5 c 128,-1,44
 1486 -39 1486 -39 1425 -39 c 0,45,46
 1351 -39 1351 -39 1292 -31.5 c 128,-1,47
 1233 -24 1233 -24 1189.5 -5.5 c 128,-1,48
 1146 13 1146 13 1117 45 c 128,-1,49
 1088 77 1088 77 1073 126 c 1,50,51
 1023 82 1023 82 960 51 c 128,-1,52
 897 20 897 20 826.5 0 c 128,-1,53
 756 -20 756 -20 681.5 -29.5 c 128,-1,54
 607 -39 607 -39 535 -39 c 0,55,56
 487 -39 487 -39 436 -34 c 128,-1,57
 385 -29 385 -29 336 -16.5 c 128,-1,58
 287 -4 287 -4 243 17.5 c 128,-1,59
 199 39 199 39 166 72 c 128,-1,60
 133 105 133 105 113.5 151 c 128,-1,61
 94 197 94 197 94 258 c 0,0,1
611 302 m 0,62,63
 611 275 611 275 625 253 c 128,-1,64
 639 231 639 231 663 216 c 128,-1,65
 687 201 687 201 719 193 c 128,-1,66
 751 185 751 185 787 185 c 0,67,68
 824 185 824 185 869 193.5 c 128,-1,69
 914 202 914 202 954.5 222 c 128,-1,70
 995 242 995 242 1024 274.5 c 128,-1,71
 1053 307 1053 307 1057 354 c 1,72,-1
 1057 456 l 1,73,74
 1043 457 1043 457 1030.5 457 c 128,-1,75
 1018 457 1018 457 1007 457 c 0,76,77
 900 457 900 457 825 446.5 c 128,-1,78
 750 436 750 436 702.5 416 c 128,-1,79
 655 396 655 396 633 367 c 128,-1,80
 611 338 611 338 611 302 c 0,62,63
EndSplineSet
Validated: 1
EndChar

StartChar: b
Encoding: 98 98 6
Width: 1970
Flags: W
LayerCount: 2
Fore
SplineSet
311 244 m 1,0,-1
 311 1330 l 1,1,-1
 49 1554 l 1,2,-1
 788 1584 l 1,3,-1
 788 922 l 1,4,5
 859 1036 859 1036 974.5 1091 c 128,-1,6
 1090 1146 1090 1146 1236 1146 c 0,7,8
 1391 1146 1391 1146 1509.5 1098.5 c 128,-1,9
 1628 1051 1628 1051 1708 968.5 c 128,-1,10
 1788 886 1788 886 1829 776 c 128,-1,11
 1870 666 1870 666 1870 540 c 0,12,13
 1870 428 1870 428 1834 323.5 c 128,-1,14
 1798 219 1798 219 1722 138.5 c 128,-1,15
 1646 58 1646 58 1527.5 9.5 c 128,-1,16
 1409 -39 1409 -39 1243 -39 c 0,17,18
 1091 -39 1091 -39 975 13.5 c 128,-1,19
 859 66 859 66 788 177 c 1,20,-1
 788 0 l 1,21,-1
 40 0 l 1,22,-1
 311 244 l 1,0,-1
788 553 m 0,23,24
 788 463 788 463 812.5 400 c 128,-1,25
 837 337 837 337 876.5 297.5 c 128,-1,26
 916 258 916 258 965.5 240 c 128,-1,27
 1015 222 1015 222 1066 222 c 0,28,29
 1127 222 1127 222 1178 243 c 128,-1,30
 1229 264 1229 264 1266 305.5 c 128,-1,31
 1303 347 1303 347 1323.5 409 c 128,-1,32
 1344 471 1344 471 1344 553 c 256,33,34
 1344 635 1344 635 1323.5 698.5 c 128,-1,35
 1303 762 1303 762 1266 805.5 c 128,-1,36
 1229 849 1229 849 1178 871 c 128,-1,37
 1127 893 1127 893 1066 893 c 0,38,39
 1012 893 1012 893 962 874.5 c 128,-1,40
 912 856 912 856 873.5 815.5 c 128,-1,41
 835 775 835 775 811.5 710.5 c 128,-1,42
 788 646 788 646 788 553 c 0,23,24
EndSplineSet
Validated: 1
EndChar

StartChar: c
Encoding: 99 99 7
Width: 1729
Flags: W
LayerCount: 2
Fore
SplineSet
100 562 m 0,0,1
 100 704 100 704 161.5 813 c 128,-1,2
 223 922 223 922 331 996 c 128,-1,3
 439 1070 439 1070 586 1108 c 128,-1,4
 733 1146 733 1146 904 1146 c 0,5,6
 1068 1146 1068 1146 1188.5 1113.5 c 128,-1,7
 1309 1081 1309 1081 1388 1033 c 1,8,-1
 1597 1154 l 1,9,-1
 1597 670 l 1,10,-1
 1347 640 l 1,11,12
 1328 704 1328 704 1295 759 c 128,-1,13
 1262 814 1262 814 1215.5 854 c 128,-1,14
 1169 894 1169 894 1110 916.5 c 128,-1,15
 1051 939 1051 939 981 939 c 0,16,17
 917 939 917 939 853.5 921 c 128,-1,18
 790 903 790 903 739.5 859.5 c 128,-1,19
 689 816 689 816 657.5 743.5 c 128,-1,20
 626 671 626 671 626 562 c 0,21,22
 626 470 626 470 658.5 401 c 128,-1,23
 691 332 691 332 744.5 285.5 c 128,-1,24
 798 239 798 239 867 216 c 128,-1,25
 936 193 936 193 1010 193 c 0,26,27
 1073 193 1073 193 1143.5 200.5 c 128,-1,28
 1214 208 1214 208 1282.5 229 c 128,-1,29
 1351 250 1351 250 1413 287 c 128,-1,30
 1475 324 1475 324 1521 383 c 1,31,-1
 1623 303 l 1,32,33
 1593 227 1593 227 1530.5 164 c 128,-1,34
 1468 101 1468 101 1379.5 56 c 128,-1,35
 1291 11 1291 11 1179.5 -14 c 128,-1,36
 1068 -39 1068 -39 941 -39 c 0,37,38
 741 -39 741 -39 585 0 c 128,-1,39
 429 39 429 39 321 115 c 128,-1,40
 213 191 213 191 156.5 303.5 c 128,-1,41
 100 416 100 416 100 562 c 0,0,1
EndSplineSet
Validated: 1
EndChar

StartChar: d
Encoding: 100 100 8
Width: 1950
Flags: W
LayerCount: 2
Fore
SplineSet
100 540 m 0,0,1
 100 670 100 670 143.5 780.5 c 128,-1,2
 187 891 187 891 267.5 972 c 128,-1,3
 348 1053 348 1053 461 1099.5 c 128,-1,4
 574 1146 574 1146 714 1146 c 0,5,6
 786 1146 786 1146 854 1133.5 c 128,-1,7
 922 1121 922 1121 982.5 1094.5 c 128,-1,8
 1043 1068 1043 1068 1093.5 1026 c 128,-1,9
 1144 984 1144 984 1182 924 c 1,10,-1
 1182 1330 l 1,11,-1
 920 1554 l 1,12,-1
 1659 1584 l 1,13,-1
 1659 244 l 1,14,-1
 1930 0 l 1,15,-1
 1182 0 l 1,16,-1
 1182 183 l 1,17,18
 1111 70 1111 70 997.5 15.5 c 128,-1,19
 884 -39 884 -39 744 -39 c 0,20,21
 574 -39 574 -39 452 8 c 128,-1,22
 330 55 330 55 252 134.5 c 128,-1,23
 174 214 174 214 137 319 c 128,-1,24
 100 424 100 424 100 540 c 0,0,1
626 553 m 256,25,26
 626 471 626 471 646.5 409 c 128,-1,27
 667 347 667 347 704 305.5 c 128,-1,28
 741 264 741 264 792 243 c 128,-1,29
 843 222 843 222 904 222 c 0,30,31
 955 222 955 222 1004.5 240 c 128,-1,32
 1054 258 1054 258 1093.5 297.5 c 128,-1,33
 1133 337 1133 337 1157.5 400 c 128,-1,34
 1182 463 1182 463 1182 553 c 0,35,36
 1182 646 1182 646 1158.5 710.5 c 128,-1,37
 1135 775 1135 775 1096.5 815.5 c 128,-1,38
 1058 856 1058 856 1008 874.5 c 128,-1,39
 958 893 958 893 904 893 c 0,40,41
 843 893 843 893 792 871 c 128,-1,42
 741 849 741 849 704 805.5 c 128,-1,43
 667 762 667 762 646.5 698.5 c 128,-1,44
 626 635 626 635 626 553 c 256,25,26
EndSplineSet
Validated: 1
EndChar

StartChar: e
Encoding: 101 101 9
Width: 1709
Flags: W
LayerCount: 2
Fore
SplineSet
100 537 m 0,0,1
 100 659 100 659 135.5 752 c 128,-1,2
 171 845 171 845 231.5 912.5 c 128,-1,3
 292 980 292 980 372.5 1025 c 128,-1,4
 453 1070 453 1070 544 1097 c 128,-1,5
 635 1124 635 1124 731.5 1135 c 128,-1,6
 828 1146 828 1146 919 1146 c 0,7,8
 1064 1146 1064 1146 1189.5 1114 c 128,-1,9
 1315 1082 1315 1082 1407 1011 c 128,-1,10
 1499 940 1499 940 1551.5 824.5 c 128,-1,11
 1604 709 1604 709 1604 543 c 1,12,-1
 627 543 l 1,13,14
 631 439 631 439 662.5 371.5 c 128,-1,15
 694 304 694 304 744 264.5 c 128,-1,16
 794 225 794 225 858 209 c 128,-1,17
 922 193 922 193 990 193 c 0,18,19
 1051 193 1051 193 1122 200 c 128,-1,20
 1193 207 1193 207 1264 226.5 c 128,-1,21
 1335 246 1335 246 1400 280 c 128,-1,22
 1465 314 1465 314 1513 369 c 1,23,-1
 1615 289 l 1,24,25
 1590 228 1590 228 1545 180 c 128,-1,26
 1500 132 1500 132 1442 95.5 c 128,-1,27
 1384 59 1384 59 1316.5 33.5 c 128,-1,28
 1249 8 1249 8 1178 -8 c 128,-1,29
 1107 -24 1107 -24 1036 -31.5 c 128,-1,30
 965 -39 965 -39 900 -39 c 0,31,32
 717 -39 717 -39 569.5 -1 c 128,-1,33
 422 37 422 37 317.5 110.5 c 128,-1,34
 213 184 213 184 156.5 291.5 c 128,-1,35
 100 399 100 399 100 537 c 0,0,1
1120 699 m 1,36,37
 1120 773 1120 773 1106.5 823.5 c 128,-1,38
 1093 874 1093 874 1066 905 c 128,-1,39
 1039 936 1039 936 998.5 949.5 c 128,-1,40
 958 963 958 963 904 963 c 0,41,42
 790 963 790 963 723 894 c 128,-1,43
 656 825 656 825 635 699 c 1,44,-1
 1120 699 l 1,36,37
EndSplineSet
Validated: 1
EndChar

StartChar: f
Encoding: 102 102 10
Width: 1282
Flags: W
LayerCount: 2
Fore
SplineSet
311 244 m 1,0,-1
 311 903 l 1,1,-1
 49 903 l 1,2,-1
 49 1107 l 1,3,-1
 311 1107 l 1,4,-1
 311 1238 l 2,5,6
 311 1366 311 1366 364.5 1462.5 c 128,-1,7
 418 1559 418 1559 509 1623 c 128,-1,8
 600 1687 600 1687 718.5 1719 c 128,-1,9
 837 1751 837 1751 968 1751 c 0,10,11
 1017 1751 1017 1751 1076 1747 c 128,-1,12
 1135 1743 1135 1743 1194.5 1731.5 c 128,-1,13
 1254 1720 1254 1720 1309.5 1699 c 128,-1,14
 1365 1678 1365 1678 1408 1644.5 c 128,-1,15
 1451 1611 1451 1611 1477 1563 c 128,-1,16
 1503 1515 1503 1515 1503 1449 c 0,17,18
 1503 1441 1503 1441 1502.5 1432 c 128,-1,19
 1502 1423 1502 1423 1501 1415 c 1,20,-1
 1134 1320 l 1,21,22
 1136 1334 1136 1334 1137 1347 c 128,-1,23
 1138 1360 1138 1360 1138 1373 c 0,24,25
 1138 1412 1138 1412 1126.5 1444.5 c 128,-1,26
 1115 1477 1115 1477 1093.5 1501 c 128,-1,27
 1072 1525 1072 1525 1040.5 1538.5 c 128,-1,28
 1009 1552 1009 1552 970 1552 c 0,29,30
 908 1552 908 1552 872 1521.5 c 128,-1,31
 836 1491 836 1491 817 1438 c 128,-1,32
 798 1385 798 1385 793 1314 c 128,-1,33
 788 1243 788 1243 788 1161 c 2,34,-1
 788 1107 l 1,35,-1
 1159 1107 l 1,36,-1
 1159 903 l 1,37,-1
 788 903 l 1,38,-1
 788 244 l 1,39,-1
 1159 0 l 1,40,-1
 40 0 l 1,41,-1
 311 244 l 1,0,-1
EndSplineSet
Validated: 1
EndChar

StartChar: g
Encoding: 103 103 11
Width: 1764
Flags: W
LayerCount: 2
Fore
SplineSet
40 -212 m 0,0,1
 40 -168 40 -168 67 -132 c 128,-1,2
 94 -96 94 -96 140 -67 c 128,-1,3
 186 -38 186 -38 247 -16 c 128,-1,4
 308 6 308 6 376 21 c 1,5,6
 318 33 318 33 271 50 c 128,-1,7
 224 67 224 67 190.5 90 c 128,-1,8
 157 113 157 113 138.5 142 c 128,-1,9
 120 171 120 171 120 206 c 0,10,11
 120 247 120 247 145.5 279.5 c 128,-1,12
 171 312 171 312 211.5 336 c 128,-1,13
 252 360 252 360 303 375 c 128,-1,14
 354 390 354 390 405 396 c 1,15,16
 351 421 351 421 307 455 c 128,-1,17
 263 489 263 489 231 530.5 c 128,-1,18
 199 572 199 572 181.5 621.5 c 128,-1,19
 164 671 164 671 164 729 c 0,20,21
 164 833 164 833 220 911.5 c 128,-1,22
 276 990 276 990 368 1042 c 128,-1,23
 460 1094 460 1094 577 1120 c 128,-1,24
 694 1146 694 1146 817 1146 c 0,25,26
 930 1146 930 1146 1038.5 1124 c 128,-1,27
 1147 1102 1147 1102 1236 1057 c 1,28,29
 1247 1115 1247 1115 1278 1157 c 128,-1,30
 1309 1199 1309 1199 1351.5 1226 c 128,-1,31
 1394 1253 1394 1253 1444.5 1266 c 128,-1,32
 1495 1279 1495 1279 1545 1279 c 0,33,34
 1609 1279 1609 1279 1660 1265 c 128,-1,35
 1711 1251 1711 1251 1747 1222.5 c 128,-1,36
 1783 1194 1783 1194 1802.5 1151 c 128,-1,37
 1822 1108 1822 1108 1822 1051 c 0,38,39
 1822 1030 1822 1030 1818 1006.5 c 128,-1,40
 1814 983 1814 983 1805 957 c 1,41,-1
 1550 899 l 1,42,43
 1553 920 1553 920 1553 939 c 0,44,45
 1553 973 1553 973 1544 996.5 c 128,-1,46
 1535 1020 1535 1020 1521 1035 c 128,-1,47
 1507 1050 1507 1050 1489 1056.5 c 128,-1,48
 1471 1063 1471 1063 1453 1063 c 0,49,50
 1413 1063 1413 1063 1388 1039.5 c 128,-1,51
 1363 1016 1363 1016 1352 981 c 1,52,53
 1408 932 1408 932 1439.5 869.5 c 128,-1,54
 1471 807 1471 807 1471 729 c 0,55,56
 1471 625 1471 625 1414.5 547 c 128,-1,57
 1358 469 1358 469 1265.5 416.5 c 128,-1,58
 1173 364 1173 364 1055 338 c 128,-1,59
 937 312 937 312 814 312 c 0,60,61
 657 312 657 312 517 353 c 1,62,63
 506 345 506 345 499.5 336 c 128,-1,64
 493 327 493 327 493 316 c 0,65,66
 493 291 493 291 516.5 272.5 c 128,-1,67
 540 254 540 254 598 241.5 c 128,-1,68
 656 229 656 229 755 223 c 128,-1,69
 854 217 854 217 1004 217 c 0,70,71
 1210 217 1210 217 1349.5 197.5 c 128,-1,72
 1489 178 1489 178 1574 138.5 c 128,-1,73
 1659 99 1659 99 1695.5 40 c 128,-1,74
 1732 -19 1732 -19 1732 -98 c 0,75,76
 1732 -202 1732 -202 1670.5 -273.5 c 128,-1,77
 1609 -345 1609 -345 1492.5 -390 c 128,-1,78
 1376 -435 1376 -435 1208.5 -455 c 128,-1,79
 1041 -475 1041 -475 829 -475 c 0,80,81
 649 -475 649 -475 503.5 -459 c 128,-1,82
 358 -443 358 -443 255 -410.5 c 128,-1,83
 152 -378 152 -378 96 -328.5 c 128,-1,84
 40 -279 40 -279 40 -212 c 0,0,1
590 729 m 0,85,86
 590 670 590 670 608 627 c 128,-1,87
 626 584 626 584 657 556 c 128,-1,88
 688 528 688 528 729.5 515 c 128,-1,89
 771 502 771 502 817 502 c 256,90,91
 863 502 863 502 904.5 516 c 128,-1,92
 946 530 946 530 977 558 c 128,-1,93
 1008 586 1008 586 1026 628.5 c 128,-1,94
 1044 671 1044 671 1044 729 c 0,95,96
 1044 789 1044 789 1027 833 c 128,-1,97
 1010 877 1010 877 979.5 906 c 128,-1,98
 949 935 949 935 907.5 949 c 128,-1,99
 866 963 866 963 817 963 c 0,100,101
 771 963 771 963 729.5 949 c 128,-1,102
 688 935 688 935 657 906 c 128,-1,103
 626 877 626 877 608 833 c 128,-1,104
 590 789 590 789 590 729 c 0,85,86
530 -127 m 0,105,106
 530 -161 530 -161 543.5 -191 c 128,-1,107
 557 -221 557 -221 593 -243 c 128,-1,108
 629 -265 629 -265 691.5 -277.5 c 128,-1,109
 754 -290 754 -290 853 -290 c 0,110,111
 927 -290 927 -290 1003.5 -285.5 c 128,-1,112
 1080 -281 1080 -281 1142 -267.5 c 128,-1,113
 1204 -254 1204 -254 1243 -228.5 c 128,-1,114
 1282 -203 1282 -203 1282 -161 c 256,115,116
 1282 -119 1282 -119 1259 -90 c 128,-1,117
 1236 -61 1236 -61 1176.5 -43.5 c 128,-1,118
 1117 -26 1117 -26 1015 -18 c 128,-1,119
 913 -10 913 -10 755 -10 c 0,120,121
 717 -10 717 -10 679.5 -9 c 128,-1,122
 642 -8 642 -8 606 -6 c 1,123,124
 571 -27 571 -27 550.5 -58 c 128,-1,125
 530 -89 530 -89 530 -127 c 0,105,106
EndSplineSet
Validated: 1
EndChar

StartChar: h
Encoding: 104 104 12
Width: 1997
Flags: W
LayerCount: 2
Fore
SplineSet
311 244 m 1,0,-1
 311 1330 l 1,1,-1
 49 1554 l 1,2,-1
 788 1584 l 1,3,-1
 788 901 l 1,4,5
 863 1019 863 1019 980.5 1082.5 c 128,-1,6
 1098 1146 1098 1146 1247 1146 c 0,7,8
 1363 1146 1363 1146 1453.5 1110.5 c 128,-1,9
 1544 1075 1544 1075 1605.5 1004.5 c 128,-1,10
 1667 934 1667 934 1699 828.5 c 128,-1,11
 1731 723 1731 723 1731 584 c 2,12,-1
 1731 244 l 1,13,-1
 2002 0 l 1,14,-1
 1070 0 l 1,15,-1
 1254 244 l 1,16,-1
 1254 563 l 2,17,18
 1254 627 1254 627 1242 684 c 128,-1,19
 1230 741 1230 741 1204.5 784 c 128,-1,20
 1179 827 1179 827 1139 852 c 128,-1,21
 1099 877 1099 877 1043 877 c 256,22,23
 987 877 987 877 940 852.5 c 128,-1,24
 893 828 893 828 859 781.5 c 128,-1,25
 825 735 825 735 806.5 667.5 c 128,-1,26
 788 600 788 600 788 513 c 2,27,-1
 788 244 l 1,28,-1
 972 0 l 1,29,-1
 40 0 l 1,30,-1
 311 244 l 1,0,-1
EndSplineSet
Validated: 1
EndChar

StartChar: i
Encoding: 105 105 13
Width: 1055
Flags: W
LayerCount: 2
Fore
SplineSet
522 1235 m 256,0,1
 468 1235 468 1235 420.5 1255.5 c 128,-1,2
 373 1276 373 1276 338 1311 c 128,-1,3
 303 1346 303 1346 282.5 1393.5 c 128,-1,4
 262 1441 262 1441 262 1495 c 256,5,6
 262 1549 262 1549 282.5 1596.5 c 128,-1,7
 303 1644 303 1644 338 1679.5 c 128,-1,8
 373 1715 373 1715 420.5 1735.5 c 128,-1,9
 468 1756 468 1756 522 1756 c 256,10,11
 576 1756 576 1756 623.5 1735.5 c 128,-1,12
 671 1715 671 1715 706.5 1679.5 c 128,-1,13
 742 1644 742 1644 762.5 1596.5 c 128,-1,14
 783 1549 783 1549 783 1495 c 256,15,16
 783 1441 783 1441 762.5 1393.5 c 128,-1,17
 742 1346 742 1346 706.5 1311 c 128,-1,18
 671 1276 671 1276 623.5 1255.5 c 128,-1,19
 576 1235 576 1235 522 1235 c 256,0,1
311 244 m 1,20,-1
 311 853 l 1,21,-1
 49 1077 l 1,22,-1
 778 1107 l 1,23,-1
 778 244 l 1,24,-1
 1049 0 l 1,25,-1
 40 0 l 1,26,-1
 311 244 l 1,20,-1
EndSplineSet
Validated: 1
EndChar

StartChar: j
Encoding: 106 106 14
Width: 1058
Flags: W
LayerCount: 2
Fore
SplineSet
582 1235 m 256,0,1
 528 1235 528 1235 480.5 1255.5 c 128,-1,2
 433 1276 433 1276 398 1311 c 128,-1,3
 363 1346 363 1346 342.5 1393.5 c 128,-1,4
 322 1441 322 1441 322 1495 c 256,5,6
 322 1549 322 1549 342.5 1596.5 c 128,-1,7
 363 1644 363 1644 398 1679.5 c 128,-1,8
 433 1715 433 1715 480.5 1735.5 c 128,-1,9
 528 1756 528 1756 582 1756 c 256,10,11
 636 1756 636 1756 683.5 1735.5 c 128,-1,12
 731 1715 731 1715 766.5 1679.5 c 128,-1,13
 802 1644 802 1644 822.5 1596.5 c 128,-1,14
 843 1549 843 1549 843 1495 c 256,15,16
 843 1441 843 1441 822.5 1393.5 c 128,-1,17
 802 1346 802 1346 766.5 1311 c 128,-1,18
 731 1276 731 1276 683.5 1255.5 c 128,-1,19
 636 1235 636 1235 582 1235 c 256,0,1
115 -59 m 1,20,21
 103 -101 103 -101 103 -137 c 0,22,23
 103 -175 103 -175 112.5 -209.5 c 128,-1,24
 122 -244 122 -244 140 -270 c 128,-1,25
 158 -296 158 -296 183.5 -311.5 c 128,-1,26
 209 -327 209 -327 241 -327 c 0,27,28
 284 -327 284 -327 311.5 -302 c 128,-1,29
 339 -277 339 -277 354.5 -235 c 128,-1,30
 370 -193 370 -193 375.5 -137.5 c 128,-1,31
 381 -82 381 -82 381 -20 c 2,32,-1
 381 853 l 1,33,-1
 119 1077 l 1,34,-1
 848 1107 l 1,35,-1
 848 -66 l 2,36,37
 848 -191 848 -191 803.5 -281 c 128,-1,38
 759 -371 759 -371 683.5 -428.5 c 128,-1,39
 608 -486 608 -486 508.5 -513 c 128,-1,40
 409 -540 409 -540 298 -540 c 0,41,42
 218 -540 218 -540 140 -517.5 c 128,-1,43
 62 -495 62 -495 -0.5 -451.5 c 128,-1,44
 -63 -408 -63 -408 -101.5 -344.5 c 128,-1,45
 -140 -281 -140 -281 -140 -198 c 0,46,47
 -140 -188 -140 -188 -140 -179 c 128,-1,48
 -140 -170 -140 -170 -138 -159 c 1,49,-1
 115 -59 l 1,20,21
EndSplineSet
Validated: 1
EndChar

StartChar: k
Encoding: 107 107 15
Width: 1861
Flags: W
LayerCount: 2
Fore
SplineSet
311 244 m 1,0,-1
 311 1330 l 1,1,-1
 49 1554 l 1,2,-1
 778 1584 l 1,3,-1
 778 596 l 1,4,-1
 1153 885 l 1,5,-1
 986 1107 l 1,6,-1
 1768 1107 l 1,7,-1
 1209 679 l 1,8,-1
 1698 144 l 1,9,-1
 1882 0 l 1,10,-1
 1010 0 l 1,11,-1
 1114 146 l 1,12,-1
 877 424 l 1,13,-1
 778 348 l 1,14,-1
 778 214 l 1,15,-1
 942 0 l 1,16,-1
 40 0 l 1,17,-1
 311 244 l 1,0,-1
EndSplineSet
Validated: 1
EndChar

StartChar: l
Encoding: 108 108 16
Width: 1069
Flags: W
LayerCount: 2
Fore
SplineSet
311 244 m 1,0,-1
 311 1330 l 1,1,-1
 49 1554 l 1,2,-1
 778 1584 l 1,3,-1
 778 244 l 1,4,-1
 1049 0 l 1,5,-1
 40 0 l 1,6,-1
 311 244 l 1,0,-1
EndSplineSet
Validated: 1
EndChar

StartChar: m
Encoding: 109 109 17
Width: 2807
Flags: W
LayerCount: 2
Fore
SplineSet
311 244 m 1,0,-1
 311 853 l 1,1,-1
 49 1077 l 1,2,-1
 768 1107 l 1,3,-1
 768 901 l 1,4,5
 843 1019 843 1019 960.5 1082.5 c 128,-1,6
 1078 1146 1078 1146 1227 1146 c 0,7,8
 1393 1146 1393 1146 1492.5 1074.5 c 128,-1,9
 1592 1003 1592 1003 1636 860 c 1,10,11
 1708 997 1708 997 1833 1071.5 c 128,-1,12
 1958 1146 1958 1146 2119 1146 c 0,13,14
 2235 1146 2235 1146 2317.5 1110.5 c 128,-1,15
 2400 1075 2400 1075 2452.5 1004.5 c 128,-1,16
 2505 934 2505 934 2529 828.5 c 128,-1,17
 2553 723 2553 723 2553 584 c 2,18,-1
 2553 240 l 1,19,-1
 2554 244 l 1,20,-1
 2805 0 l 1,21,-1
 1923 0 l 1,22,-1
 2096 242 l 1,23,-1
 2096 563 l 2,24,25
 2096 627 2096 627 2089 684 c 128,-1,26
 2082 741 2082 741 2062 784 c 128,-1,27
 2042 827 2042 827 2006.5 852 c 128,-1,28
 1971 877 1971 877 1915 877 c 0,29,30
 1822 877 1822 877 1757 813 c 128,-1,31
 1692 749 1692 749 1670 629 c 1,32,33
 1670 618 1670 618 1670.5 606.5 c 128,-1,34
 1671 595 1671 595 1671 584 c 2,35,-1
 1671 244 l 1,36,-1
 1855 0 l 1,37,-1
 1020 0 l 1,38,-1
 1204 244 l 1,39,-1
 1204 563 l 2,40,41
 1204 627 1204 627 1197 684 c 128,-1,42
 1190 741 1190 741 1170 784 c 128,-1,43
 1150 827 1150 827 1114.5 852 c 128,-1,44
 1079 877 1079 877 1023 877 c 256,45,46
 967 877 967 877 920 852.5 c 128,-1,47
 873 828 873 828 839 781.5 c 128,-1,48
 805 735 805 735 786.5 667.5 c 128,-1,49
 768 600 768 600 768 513 c 2,50,-1
 768 244 l 1,51,-1
 952 0 l 1,52,-1
 40 0 l 1,53,-1
 311 244 l 1,0,-1
EndSplineSet
Validated: 1
EndChar

StartChar: n
Encoding: 110 110 18
Width: 1997
Flags: W
LayerCount: 2
Fore
SplineSet
311 244 m 1,0,-1
 311 853 l 1,1,-1
 49 1077 l 1,2,-1
 788 1107 l 1,3,-1
 788 890 l 1,4,5
 860 1013 860 1013 977.5 1079.5 c 128,-1,6
 1095 1146 1095 1146 1247 1146 c 0,7,8
 1363 1146 1363 1146 1453.5 1110.5 c 128,-1,9
 1544 1075 1544 1075 1605.5 1004.5 c 128,-1,10
 1667 934 1667 934 1699 828.5 c 128,-1,11
 1731 723 1731 723 1731 584 c 2,12,-1
 1731 244 l 1,13,-1
 2002 0 l 1,14,-1
 1070 0 l 1,15,-1
 1254 244 l 1,16,-1
 1254 563 l 2,17,18
 1254 627 1254 627 1242 684 c 128,-1,19
 1230 741 1230 741 1204.5 784 c 128,-1,20
 1179 827 1179 827 1139 852 c 128,-1,21
 1099 877 1099 877 1043 877 c 256,22,23
 987 877 987 877 940 852.5 c 128,-1,24
 893 828 893 828 859 781.5 c 128,-1,25
 825 735 825 735 806.5 667.5 c 128,-1,26
 788 600 788 600 788 513 c 2,27,-1
 788 244 l 1,28,-1
 972 0 l 1,29,-1
 40 0 l 1,30,-1
 311 244 l 1,0,-1
EndSplineSet
Validated: 1
EndChar

StartChar: o
Encoding: 111 111 19
Width: 1848
Flags: W
LayerCount: 2
Fore
SplineSet
100 553 m 0,0,1
 100 704 100 704 161.5 815.5 c 128,-1,2
 223 927 223 927 333 1000.5 c 128,-1,3
 443 1074 443 1074 594 1110 c 128,-1,4
 745 1146 745 1146 924 1146 c 256,5,6
 1103 1146 1103 1146 1254 1110 c 128,-1,7
 1405 1074 1405 1074 1515 1000.5 c 128,-1,8
 1625 927 1625 927 1686.5 815.5 c 128,-1,9
 1748 704 1748 704 1748 553 c 0,10,11
 1748 396 1748 396 1686.5 284 c 128,-1,12
 1625 172 1625 172 1515 100 c 128,-1,13
 1405 28 1405 28 1254 -5.5 c 128,-1,14
 1103 -39 1103 -39 924 -39 c 256,15,16
 745 -39 745 -39 594 -5.5 c 128,-1,17
 443 28 443 28 333 100 c 128,-1,18
 223 172 223 172 161.5 284 c 128,-1,19
 100 396 100 396 100 553 c 0,0,1
626 553 m 0,20,21
 626 461 626 461 649.5 386 c 128,-1,22
 673 311 673 311 713.5 258.5 c 128,-1,23
 754 206 754 206 808.5 177.5 c 128,-1,24
 863 149 863 149 924 149 c 256,25,26
 985 149 985 149 1039.5 177.5 c 128,-1,27
 1094 206 1094 206 1134.5 258.5 c 128,-1,28
 1175 311 1175 311 1198.5 386 c 128,-1,29
 1222 461 1222 461 1222 553 c 0,30,31
 1222 646 1222 646 1198.5 722 c 128,-1,32
 1175 798 1175 798 1134.5 852 c 128,-1,33
 1094 906 1094 906 1039.5 936 c 128,-1,34
 985 966 985 966 924 966 c 256,35,36
 863 966 863 966 808.5 936 c 128,-1,37
 754 906 754 906 713.5 852 c 128,-1,38
 673 798 673 798 649.5 722 c 128,-1,39
 626 646 626 646 626 553 c 0,20,21
EndSplineSet
Validated: 1
EndChar

StartChar: p
Encoding: 112 112 20
Width: 1970
Flags: W
LayerCount: 2
Fore
SplineSet
311 833 m 1,0,-1
 40 1077 l 1,1,-1
 788 1107 l 1,2,-1
 788 922 l 1,3,4
 859 1036 859 1036 974.5 1091 c 128,-1,5
 1090 1146 1090 1146 1236 1146 c 0,6,7
 1391 1146 1391 1146 1509.5 1098.5 c 128,-1,8
 1628 1051 1628 1051 1708 968.5 c 128,-1,9
 1788 886 1788 886 1829 776 c 128,-1,10
 1870 666 1870 666 1870 540 c 0,11,12
 1870 428 1870 428 1834 323.5 c 128,-1,13
 1798 219 1798 219 1722 138.5 c 128,-1,14
 1646 58 1646 58 1527.5 9.5 c 128,-1,15
 1409 -39 1409 -39 1243 -39 c 0,16,17
 1091 -39 1091 -39 975 13.5 c 128,-1,18
 859 66 859 66 788 177 c 1,19,-1
 788 -192 l 1,20,-1
 1159 -436 l 1,21,-1
 40 -436 l 1,22,-1
 311 -192 l 1,23,-1
 311 833 l 1,0,-1
788 553 m 0,24,25
 788 463 788 463 812.5 400 c 128,-1,26
 837 337 837 337 876.5 297.5 c 128,-1,27
 916 258 916 258 965.5 240 c 128,-1,28
 1015 222 1015 222 1066 222 c 0,29,30
 1127 222 1127 222 1178 243 c 128,-1,31
 1229 264 1229 264 1266 305.5 c 128,-1,32
 1303 347 1303 347 1323.5 409 c 128,-1,33
 1344 471 1344 471 1344 553 c 256,34,35
 1344 635 1344 635 1323.5 698.5 c 128,-1,36
 1303 762 1303 762 1266 805.5 c 128,-1,37
 1229 849 1229 849 1178 871 c 128,-1,38
 1127 893 1127 893 1066 893 c 0,39,40
 1012 893 1012 893 962 874.5 c 128,-1,41
 912 856 912 856 873.5 815.5 c 128,-1,42
 835 775 835 775 811.5 710.5 c 128,-1,43
 788 646 788 646 788 553 c 0,24,25
EndSplineSet
Validated: 1
EndChar

StartChar: q
Encoding: 113 113 21
Width: 1900
Flags: W
LayerCount: 2
Fore
SplineSet
100 544 m 0,0,1
 100 692 100 692 150.5 804.5 c 128,-1,2
 201 917 201 917 288.5 993 c 128,-1,3
 376 1069 376 1069 495 1107.5 c 128,-1,4
 614 1146 614 1146 751 1146 c 0,5,6
 831 1146 831 1146 906.5 1132 c 128,-1,7
 982 1118 982 1118 1051 1086 c 128,-1,8
 1120 1054 1120 1054 1180 1002.5 c 128,-1,9
 1240 951 1240 951 1289 877 c 1,10,-1
 1659 1107 l 1,11,-1
 1659 -192 l 1,12,-1
 1930 -436 l 1,13,-1
 811 -436 l 1,14,-1
 1182 -192 l 1,15,-1
 1182 184 l 1,16,17
 1148 123 1148 123 1100 80.5 c 128,-1,18
 1052 38 1052 38 995 11.5 c 128,-1,19
 938 -15 938 -15 874 -27 c 128,-1,20
 810 -39 810 -39 744 -39 c 0,21,22
 573 -39 573 -39 451 8 c 128,-1,23
 329 55 329 55 251 135.5 c 128,-1,24
 173 216 173 216 136.5 321.5 c 128,-1,25
 100 427 100 427 100 544 c 0,0,1
626 553 m 256,26,27
 626 471 626 471 646.5 409 c 128,-1,28
 667 347 667 347 704 305.5 c 128,-1,29
 741 264 741 264 792 243 c 128,-1,30
 843 222 843 222 904 222 c 0,31,32
 955 222 955 222 1004.5 240 c 128,-1,33
 1054 258 1054 258 1093.5 297.5 c 128,-1,34
 1133 337 1133 337 1157.5 400 c 128,-1,35
 1182 463 1182 463 1182 553 c 0,36,37
 1182 646 1182 646 1158.5 710.5 c 128,-1,38
 1135 775 1135 775 1096.5 815.5 c 128,-1,39
 1058 856 1058 856 1008 874.5 c 128,-1,40
 958 893 958 893 904 893 c 0,41,42
 843 893 843 893 792 871 c 128,-1,43
 741 849 741 849 704 805.5 c 128,-1,44
 667 762 667 762 646.5 698.5 c 128,-1,45
 626 635 626 635 626 553 c 256,26,27
EndSplineSet
Validated: 1
EndChar

StartChar: r
Encoding: 114 114 22
Width: 1559
Flags: W
LayerCount: 2
Fore
SplineSet
311 244 m 1,0,-1
 311 853 l 1,1,-1
 49 1077 l 1,2,-1
 788 1107 l 1,3,-1
 788 895 l 1,4,5
 827 957 827 957 877.5 1004 c 128,-1,6
 928 1051 928 1051 985.5 1082.5 c 128,-1,7
 1043 1114 1043 1114 1105.5 1130 c 128,-1,8
 1168 1146 1168 1146 1231 1146 c 0,9,10
 1314 1146 1314 1146 1374.5 1118 c 128,-1,11
 1435 1090 1435 1090 1474 1039.5 c 128,-1,12
 1513 989 1513 989 1532 920 c 128,-1,13
 1551 851 1551 851 1551 770 c 0,14,15
 1551 744 1551 744 1549 717 c 128,-1,16
 1547 690 1547 690 1541 664 c 1,17,-1
 1176 631 l 1,18,19
 1180 647 1180 647 1180.5 661.5 c 128,-1,20
 1181 676 1181 676 1181 690 c 0,21,22
 1181 731 1181 731 1171.5 765 c 128,-1,23
 1162 799 1162 799 1143.5 823.5 c 128,-1,24
 1125 848 1125 848 1096.5 861.5 c 128,-1,25
 1068 875 1068 875 1030 875 c 0,26,27
 990 875 990 875 957 859 c 128,-1,28
 924 843 924 843 897 816 c 128,-1,29
 870 789 870 789 849.5 753.5 c 128,-1,30
 829 718 829 718 815.5 679.5 c 128,-1,31
 802 641 802 641 795 602 c 128,-1,32
 788 563 788 563 788 529 c 2,33,-1
 788 254 l 1,34,-1
 1136 0 l 1,35,-1
 50 0 l 1,36,-1
 311 244 l 1,0,-1
EndSplineSet
Validated: 1
EndChar

StartChar: s
Encoding: 115 115 23
Width: 1661
Flags: W
LayerCount: 2
Fore
SplineSet
179 408 m 1,0,1
 255 358 255 358 342.5 315.5 c 128,-1,2
 430 273 430 273 524 241.5 c 128,-1,3
 618 210 618 210 716 192 c 128,-1,4
 814 174 814 174 912 174 c 0,5,6
 949 174 949 174 985.5 179 c 128,-1,7
 1022 184 1022 184 1050.5 194.5 c 128,-1,8
 1079 205 1079 205 1096.5 222.5 c 128,-1,9
 1114 240 1114 240 1114 265 c 0,10,11
 1114 286 1114 286 1100.5 302.5 c 128,-1,12
 1087 319 1087 319 1049 333 c 128,-1,13
 1011 347 1011 347 942.5 358 c 128,-1,14
 874 369 874 369 764 378 c 0,15,16
 690 384 690 384 615 393.5 c 128,-1,17
 540 403 540 403 470.5 420 c 128,-1,18
 401 437 401 437 340.5 464 c 128,-1,19
 280 491 280 491 235.5 530.5 c 128,-1,20
 191 570 191 570 165 625 c 128,-1,21
 139 680 139 680 139 754 c 0,22,23
 139 850 139 850 185 923 c 128,-1,24
 231 996 231 996 309.5 1045.5 c 128,-1,25
 388 1095 388 1095 492 1120.5 c 128,-1,26
 596 1146 596 1146 712 1146 c 0,27,28
 837 1146 837 1146 959.5 1116.5 c 128,-1,29
 1082 1087 1082 1087 1202 1032 c 1,30,-1
 1464 1140 l 1,31,-1
 1464 744 l 1,32,33
 1381 793 1381 793 1292.5 830.5 c 128,-1,34
 1204 868 1204 868 1116.5 893 c 128,-1,35
 1029 918 1029 918 945.5 930.5 c 128,-1,36
 862 943 862 943 790 943 c 0,37,38
 742 943 742 943 703 936 c 128,-1,39
 664 929 664 929 635.5 917 c 128,-1,40
 607 905 607 905 591.5 889 c 128,-1,41
 576 873 576 873 576 855 c 256,42,43
 576 837 576 837 589.5 823 c 128,-1,44
 603 809 603 809 643.5 796.5 c 128,-1,45
 684 784 684 784 758.5 772.5 c 128,-1,46
 833 761 833 761 954 749 c 0,47,48
 1073 737 1073 737 1182.5 713.5 c 128,-1,49
 1292 690 1292 690 1376 647.5 c 128,-1,50
 1460 605 1460 605 1510 537.5 c 128,-1,51
 1560 470 1560 470 1560 369 c 0,52,53
 1560 296 1560 296 1533.5 237 c 128,-1,54
 1507 178 1507 178 1462 133 c 128,-1,55
 1417 88 1417 88 1357 55.5 c 128,-1,56
 1297 23 1297 23 1229.5 2 c 128,-1,57
 1162 -19 1162 -19 1091 -29 c 128,-1,58
 1020 -39 1020 -39 953 -39 c 0,59,60
 821 -39 821 -39 692 -6 c 128,-1,61
 563 27 563 27 441 91 c 1,62,-1
 179 -26 l 1,63,-1
 179 408 l 1,0,1
EndSplineSet
Validated: 1
EndChar

StartChar: t
Encoding: 116 116 24
Width: 1399
Flags: W
LayerCount: 2
Fore
SplineSet
232 903 m 1,0,-1
 60 903 l 1,1,-1
 60 1058 l 1,2,3
 131 1058 131 1058 193 1078.5 c 128,-1,4
 255 1099 255 1099 307.5 1134 c 128,-1,5
 360 1169 360 1169 401.5 1215.5 c 128,-1,6
 443 1262 443 1262 472 1313.5 c 128,-1,7
 501 1365 501 1365 516.5 1418.5 c 128,-1,8
 532 1472 532 1472 532 1522 c 1,9,-1
 729 1522 l 1,10,-1
 729 1107 l 1,11,-1
 1220 1107 l 1,12,-1
 1220 903 l 1,13,-1
 729 903 l 1,14,-1
 729 454 l 2,15,16
 729 361 729 361 751.5 306 c 128,-1,17
 774 251 774 251 809.5 223 c 128,-1,18
 845 195 845 195 887.5 187 c 128,-1,19
 930 179 930 179 970 179 c 0,20,21
 1072 179 1072 179 1131.5 237.5 c 128,-1,22
 1191 296 1191 296 1191 417 c 0,23,24
 1191 426 1191 426 1191 436 c 128,-1,25
 1191 446 1191 446 1189 457 c 1,26,-1
 1361 406 l 1,27,28
 1364 379 1364 379 1364 355 c 0,29,30
 1364 282 1364 282 1341 224 c 128,-1,31
 1318 166 1318 166 1278 122.5 c 128,-1,32
 1238 79 1238 79 1183.5 48 c 128,-1,33
 1129 17 1129 17 1067 -2 c 128,-1,34
 1005 -21 1005 -21 938 -30 c 128,-1,35
 871 -39 871 -39 805 -39 c 0,36,37
 674 -39 674 -39 568 -13 c 128,-1,38
 462 13 462 13 387.5 70 c 128,-1,39
 313 127 313 127 272.5 217.5 c 128,-1,40
 232 308 232 308 232 437 c 2,41,-1
 232 903 l 1,0,-1
EndSplineSet
Validated: 1
EndChar

StartChar: u
Encoding: 117 117 25
Width: 1958
Flags: W
LayerCount: 2
Fore
SplineSet
255 833 m 1,0,-1
 -16 1077 l 1,1,-1
 732 1107 l 1,2,-1
 732 544 l 2,3,4
 732 480 732 480 744 423 c 128,-1,5
 756 366 756 366 781.5 323 c 128,-1,6
 807 280 807 280 847 255 c 128,-1,7
 887 230 887 230 943 230 c 256,8,9
 999 230 999 230 1046 254 c 128,-1,10
 1093 278 1093 278 1126.5 324.5 c 128,-1,11
 1160 371 1160 371 1179 439 c 128,-1,12
 1198 507 1198 507 1198 594 c 2,13,-1
 1198 833 l 1,14,-1
 934 1077 l 1,15,-1
 1675 1107 l 1,16,-1
 1675 237 l 1,17,-1
 1937 13 l 1,18,-1
 1198 -17 l 1,19,-1
 1198 205 l 1,20,21
 1123 87 1123 87 1005.5 24 c 128,-1,22
 888 -39 888 -39 739 -39 c 0,23,24
 506 -39 506 -39 380.5 102.5 c 128,-1,25
 255 244 255 244 255 523 c 2,26,-1
 255 833 l 1,0,-1
EndSplineSet
Validated: 1
EndChar

StartChar: v
Encoding: 118 118 26
Width: 1829
Flags: W
LayerCount: 2
Fore
SplineSet
234 852 m 1,0,-1
 -48 1107 l 1,1,-1
 864 1107 l 1,2,-1
 753 949 l 1,3,-1
 1022 252 l 1,4,-1
 1231 908 l 1,5,-1
 1075 1107 l 1,6,-1
 1864 1107 l 1,7,-1
 1605 900 l 1,8,-1
 1235 0 l 1,9,-1
 666 0 l 1,10,-1
 234 852 l 1,0,-1
EndSplineSet
Validated: 1
EndChar

StartChar: w
Encoding: 119 119 27
Width: 2723
Flags: W
LayerCount: 2
Fore
SplineSet
196 851 m 1,0,-1
 -86 1107 l 1,1,-1
 813 1107 l 1,2,-1
 696 941 l 1,3,-1
 936 213 l 1,4,-1
 1135 934 l 1,5,-1
 1014 1107 l 1,6,-1
 1823 1107 l 1,7,-1
 1706 941 l 1,8,-1
 1946 213 l 1,9,-1
 2145 934 l 1,10,-1
 2024 1107 l 1,11,-1
 2743 1107 l 1,12,-1
 2503 874 l 1,13,-1
 2184 0 l 1,14,-1
 1575 0 l 1,15,-1
 1365 524 l 1,16,-1
 1174 0 l 1,17,-1
 565 0 l 1,18,-1
 196 851 l 1,0,-1
EndSplineSet
Validated: 1
EndChar

StartChar: x
Encoding: 120 120 28
Width: 1759
Flags: W
LayerCount: 2
Fore
SplineSet
324 237 m 1,0,-1
 599 575 l 1,1,-1
 342 859 l 1,2,-1
 -10 1107 l 1,3,-1
 859 1107 l 1,4,-1
 781 995 l 1,5,-1
 986 761 l 1,6,-1
 1137 982 l 1,7,-1
 1050 1107 l 1,8,-1
 1769 1107 l 1,9,-1
 1432 873 l 1,10,-1
 1164 544 l 1,11,-1
 1435 245 l 1,12,-1
 1769 0 l 1,13,-1
 920 0 l 1,14,-1
 997 111 l 1,15,-1
 781 355 l 1,16,-1
 612 123 l 1,17,-1
 699 0 l 1,18,-1
 -10 0 l 1,19,-1
 324 237 l 1,0,-1
EndSplineSet
Validated: 1
EndChar

StartChar: y
Encoding: 121 121 29
Width: 1752
Flags: W
LayerCount: 2
Fore
SplineSet
471 67 m 1,0,1
 459 23 459 23 459 -19 c 0,2,3
 459 -67 459 -67 472 -110.5 c 128,-1,4
 485 -154 485 -154 514 -187 c 128,-1,5
 543 -220 543 -220 588.5 -239.5 c 128,-1,6
 634 -259 634 -259 700 -259 c 0,7,8
 755 -259 755 -259 797 -237.5 c 128,-1,9
 839 -216 839 -216 870.5 -180.5 c 128,-1,10
 902 -145 902 -145 923.5 -98 c 128,-1,11
 945 -51 945 -51 958 0 c 1,12,-1
 641 0 l 1,13,-1
 255 890 l 1,14,-1
 0 1107 l 1,15,-1
 889 1107 l 1,16,-1
 772 941 l 1,17,-1
 1012 213 l 1,18,-1
 1211 934 l 1,19,-1
 1090 1107 l 1,20,-1
 1819 1107 l 1,21,-1
 1584 914 l 1,22,-1
 1250 0 l 2,23,24
 1197 -146 1197 -146 1132 -238.5 c 128,-1,25
 1067 -331 1067 -331 988.5 -383.5 c 128,-1,26
 910 -436 910 -436 817.5 -455.5 c 128,-1,27
 725 -475 725 -475 616 -475 c 0,28,29
 486 -475 486 -475 384.5 -446.5 c 128,-1,30
 283 -418 283 -418 213 -365.5 c 128,-1,31
 143 -313 143 -313 106.5 -238.5 c 128,-1,32
 70 -164 70 -164 70 -71 c 0,33,34
 70 -48 70 -48 73.5 -21 c 128,-1,35
 77 6 77 6 81 27 c 1,36,-1
 471 67 l 1,0,1
EndSplineSet
Validated: 1
EndChar

StartChar: z
Encoding: 122 122 30
Width: 1688
Flags: W
LayerCount: 2
Fore
SplineSet
811 893 m 1,0,-1
 423 893 l 1,1,-1
 179 575 l 1,2,-1
 179 1107 l 1,3,-1
 1578 1107 l 1,4,-1
 852 214 l 1,5,-1
 1322 214 l 1,6,-1
 1569 552 l 1,7,-1
 1569 0 l 1,8,-1
 70 0 l 1,9,-1
 811 893 l 1,0,-1
EndSplineSet
Validated: 1
EndChar

StartChar: A
Encoding: 65 65 31
Width: 2126
Flags: W
LayerCount: 2
Fore
SplineSet
234 251 m 1,0,-1
 705 1189 l 1,1,-1
 490 1434 l 1,2,-1
 1662 1434 l 1,3,-1
 1481 1180 l 1,4,-1
 1903 253 l 1,5,-1
 2166 0 l 1,6,-1
 1116 0 l 1,7,-1
 1334 251 l 1,8,-1
 1291 356 l 1,9,-1
 631 356 l 1,10,-1
 584 251 l 1,11,-1
 871 0 l 1,12,-1
 -60 0 l 1,13,-1
 234 251 l 1,0,-1
1207 565 m 1,14,-1
 978 1129 l 1,15,-1
 725 565 l 1,16,-1
 1207 565 l 1,14,-1
EndSplineSet
Validated: 1
EndChar

StartChar: B
Encoding: 66 66 32
Width: 2108
Flags: W
LayerCount: 2
Fore
SplineSet
341 254 m 1,0,-1
 341 1180 l 1,1,-1
 31 1434 l 1,2,3
 104 1435 104 1435 195 1435.5 c 128,-1,4
 286 1436 286 1436 383 1437 c 128,-1,5
 480 1438 480 1438 577 1438.5 c 128,-1,6
 674 1439 674 1439 760 1439.5 c 128,-1,7
 846 1440 846 1440 915 1440.5 c 128,-1,8
 984 1441 984 1441 1025 1441 c 0,9,10
 1120 1441 1120 1441 1224 1437 c 128,-1,11
 1328 1433 1328 1433 1428.5 1419.5 c 128,-1,12
 1529 1406 1529 1406 1619.5 1379.5 c 128,-1,13
 1710 1353 1710 1353 1778.5 1308.5 c 128,-1,14
 1847 1264 1847 1264 1887.5 1198.5 c 128,-1,15
 1928 1133 1928 1133 1928 1041 c 0,16,17
 1928 962 1928 962 1901 907 c 128,-1,18
 1874 852 1874 852 1823 815 c 128,-1,19
 1772 778 1772 778 1698.5 757.5 c 128,-1,20
 1625 737 1625 737 1531 727 c 1,21,22
 1641 716 1641 716 1731 694 c 128,-1,23
 1821 672 1821 672 1884.5 633.5 c 128,-1,24
 1948 595 1948 595 1983 536 c 128,-1,25
 2018 477 2018 477 2018 393 c 0,26,27
 2018 301 2018 301 1977.5 235.5 c 128,-1,28
 1937 170 1937 170 1868.5 125.5 c 128,-1,29
 1800 81 1800 81 1709.5 54.5 c 128,-1,30
 1619 28 1619 28 1518.5 14.5 c 128,-1,31
 1418 1 1418 1 1314 -3 c 128,-1,32
 1210 -7 1210 -7 1115 -7 c 0,33,34
 1070 -7 1070 -7 994.5 -6.5 c 128,-1,35
 919 -6 919 -6 825 -5.5 c 128,-1,36
 731 -5 731 -5 625.5 -4.5 c 128,-1,37
 520 -4 520 -4 414.5 -3 c 128,-1,38
 309 -2 309 -2 209.5 -1.5 c 128,-1,39
 110 -1 110 -1 30 0 c 1,40,-1
 341 254 l 1,0,-1
994 819 m 2,41,42
 1025 819 1025 819 1066 820 c 128,-1,43
 1107 821 1107 821 1151 826.5 c 128,-1,44
 1195 832 1195 832 1237.5 843.5 c 128,-1,45
 1280 855 1280 855 1313.5 876.5 c 128,-1,46
 1347 898 1347 898 1367.5 931 c 128,-1,47
 1388 964 1388 964 1388 1012 c 0,48,49
 1388 1082 1388 1082 1351.5 1124 c 128,-1,50
 1315 1166 1315 1166 1257.5 1188.5 c 128,-1,51
 1200 1211 1200 1211 1130 1218 c 128,-1,52
 1060 1225 1060 1225 994 1225 c 2,53,-1
 868 1225 l 1,54,-1
 868 819 l 1,55,-1
 994 819 l 2,41,42
1064 209 m 2,56,57
 1109 209 1109 209 1157 210.5 c 128,-1,58
 1205 212 1205 212 1251 219 c 128,-1,59
 1297 226 1297 226 1338.5 239.5 c 128,-1,60
 1380 253 1380 253 1411 278 c 128,-1,61
 1442 303 1442 303 1460 340 c 128,-1,62
 1478 377 1478 377 1478 430 c 0,63,64
 1478 487 1478 487 1453 526 c 128,-1,65
 1428 565 1428 565 1376.5 589.5 c 128,-1,66
 1325 614 1325 614 1247 624.5 c 128,-1,67
 1169 635 1169 635 1064 635 c 2,68,-1
 868 635 l 1,69,-1
 868 209 l 1,70,-1
 1064 209 l 2,56,57
EndSplineSet
Validated: 1
EndChar

StartChar: C
Encoding: 67 67 33
Width: 2054
Flags: W
LayerCount: 2
Fore
SplineSet
90 717 m 0,0,1
 90 850 90 850 129 958 c 128,-1,2
 168 1066 168 1066 237 1150 c 128,-1,3
 306 1234 306 1234 400 1294.5 c 128,-1,4
 494 1355 494 1355 604.5 1394.5 c 128,-1,5
 715 1434 715 1434 837 1453 c 128,-1,6
 959 1472 959 1472 1084 1472 c 0,7,8
 1176 1472 1176 1472 1258 1461 c 128,-1,9
 1340 1450 1340 1450 1411.5 1431.5 c 128,-1,10
 1483 1413 1483 1413 1543 1389 c 128,-1,11
 1603 1365 1603 1365 1651 1339 c 1,12,-1
 1724 1434 l 1,13,-1
 1933 1434 l 1,14,-1
 1933 926 l 1,15,-1
 1668 876 l 1,16,17
 1644 957 1644 957 1597 1027 c 128,-1,18
 1550 1097 1550 1097 1484 1148 c 128,-1,19
 1418 1199 1418 1199 1334.5 1228.5 c 128,-1,20
 1251 1258 1251 1258 1153 1258 c 0,21,22
 1027 1258 1027 1258 937 1213.5 c 128,-1,23
 847 1169 847 1169 789.5 1094.5 c 128,-1,24
 732 1020 732 1020 705 922 c 128,-1,25
 678 824 678 824 678 717 c 0,26,27
 678 586 678 586 716.5 485 c 128,-1,28
 755 384 755 384 824 315.5 c 128,-1,29
 893 247 893 247 987.5 212 c 128,-1,30
 1082 177 1082 177 1195 177 c 0,31,32
 1283 177 1283 177 1361 199.5 c 128,-1,33
 1439 222 1439 222 1498.5 268.5 c 128,-1,34
 1558 315 1558 315 1595.5 386 c 128,-1,35
 1633 457 1633 457 1641 554 c 1,36,-1
 1947 554 l 1,37,38
 1947 459 1947 459 1916.5 378 c 128,-1,39
 1886 297 1886 297 1830.5 231 c 128,-1,40
 1775 165 1775 165 1697 114.5 c 128,-1,41
 1619 64 1619 64 1523 30 c 128,-1,42
 1427 -4 1427 -4 1316.5 -21.5 c 128,-1,43
 1206 -39 1206 -39 1085 -39 c 0,44,45
 971 -39 971 -39 852.5 -23.5 c 128,-1,46
 734 -8 734 -8 623.5 27 c 128,-1,47
 513 62 513 62 416 119.5 c 128,-1,48
 319 177 319 177 246.5 261 c 128,-1,49
 174 345 174 345 132 458 c 128,-1,50
 90 571 90 571 90 717 c 0,0,1
EndSplineSet
Validated: 1
EndChar

StartChar: D
Encoding: 68 68 34
Width: 2154
Flags: W
LayerCount: 2
Fore
SplineSet
341 254 m 1,0,-1
 341 1180 l 1,1,-1
 31 1434 l 1,2,3
 108 1435 108 1435 207 1435.5 c 128,-1,4
 306 1436 306 1436 413.5 1437 c 128,-1,5
 521 1438 521 1438 630.5 1438.5 c 128,-1,6
 740 1439 740 1439 837 1439.5 c 128,-1,7
 934 1440 934 1440 1012 1440.5 c 128,-1,8
 1090 1441 1090 1441 1135 1441 c 0,9,10
 1311 1441 1311 1441 1452 1423 c 128,-1,11
 1593 1405 1593 1405 1700 1362 c 0,12,13
 1795 1324 1795 1324 1864 1263.5 c 128,-1,14
 1933 1203 1933 1203 1977.5 1126 c 128,-1,15
 2022 1049 2022 1049 2043 958 c 128,-1,16
 2064 867 2064 867 2064 767 c 0,17,18
 2064 582 2064 582 1994.5 438 c 128,-1,19
 1925 294 1925 294 1797.5 195 c 128,-1,20
 1670 96 1670 96 1491.5 44.5 c 128,-1,21
 1313 -7 1313 -7 1095 -7 c 0,22,23
 1066 -7 1066 -7 1000.5 -7 c 128,-1,24
 935 -7 935 -7 846.5 -6.5 c 128,-1,25
 758 -6 758 -6 653 -5 c 128,-1,26
 548 -4 548 -4 439 -3.5 c 128,-1,27
 330 -3 330 -3 224.5 -2 c 128,-1,28
 119 -1 119 -1 30 0 c 1,29,-1
 341 254 l 1,0,-1
1064 209 m 2,30,31
 1188 209 1188 209 1271 249 c 128,-1,32
 1354 289 1354 289 1404 361.5 c 128,-1,33
 1454 434 1454 434 1475 534.5 c 128,-1,34
 1496 635 1496 635 1496 757 c 0,35,36
 1496 869 1496 869 1468 956 c 128,-1,37
 1440 1043 1440 1043 1387 1103 c 128,-1,38
 1334 1163 1334 1163 1257.5 1194 c 128,-1,39
 1181 1225 1181 1225 1084 1225 c 2,40,-1
 868 1225 l 1,41,-1
 868 209 l 1,42,-1
 1064 209 l 2,30,31
EndSplineSet
Validated: 1
EndChar

StartChar: E
Encoding: 69 69 35
Width: 1972
Flags: W
LayerCount: 2
Fore
SplineSet
311 254 m 1,0,-1
 311 1180 l 1,1,-1
 30 1434 l 1,2,-1
 1847 1434 l 1,3,-1
 1827 938 l 1,4,-1
 1428 1205 l 1,5,-1
 838 1205 l 1,6,-1
 838 874 l 1,7,-1
 1440 874 l 1,8,-1
 1440 654 l 1,9,-1
 838 654 l 1,10,-1
 838 229 l 1,11,-1
 1428 229 l 1,12,-1
 1837 473 l 1,13,-1
 1837 0 l 1,14,-1
 30 0 l 1,15,-1
 311 254 l 1,0,-1
EndSplineSet
Validated: 1
EndChar

StartChar: F
Encoding: 70 70 36
Width: 1949
Flags: W
LayerCount: 2
Fore
SplineSet
311 254 m 1,0,-1
 311 1180 l 1,1,-1
 30 1434 l 1,2,-1
 1887 1434 l 1,3,-1
 1867 938 l 1,4,-1
 1468 1205 l 1,5,-1
 838 1205 l 1,6,-1
 838 774 l 1,7,-1
 1480 774 l 1,8,-1
 1480 554 l 1,9,-1
 838 554 l 1,10,-1
 838 254 l 1,11,-1
 1249 0 l 1,12,-1
 30 0 l 1,13,-1
 311 254 l 1,0,-1
EndSplineSet
Validated: 1
EndChar

StartChar: G
Encoding: 71 71 37
Width: 2154
Flags: W
LayerCount: 2
Fore
SplineSet
90 689 m 0,0,1
 90 819 90 819 127 928 c 128,-1,2
 164 1037 164 1037 230 1124 c 128,-1,3
 296 1211 296 1211 387.5 1276 c 128,-1,4
 479 1341 479 1341 588.5 1385 c 128,-1,5
 698 1429 698 1429 821 1450.5 c 128,-1,6
 944 1472 944 1472 1074 1472 c 0,7,8
 1152 1472 1152 1472 1230.5 1462 c 128,-1,9
 1309 1452 1309 1452 1383 1434 c 128,-1,10
 1457 1416 1457 1416 1524.5 1391 c 128,-1,11
 1592 1366 1592 1366 1649 1336 c 1,12,-1
 1725 1434 l 1,13,-1
 1949 1434 l 1,14,-1
 1949 946 l 1,15,-1
 1695 946 l 1,16,17
 1653 1021 1653 1021 1593.5 1079 c 128,-1,18
 1534 1137 1534 1137 1462.5 1177 c 128,-1,19
 1391 1217 1391 1217 1310.5 1237.5 c 128,-1,20
 1230 1258 1230 1258 1145 1258 c 0,21,22
 1052 1258 1052 1258 968 1226 c 128,-1,23
 884 1194 884 1194 821 1128 c 128,-1,24
 758 1062 758 1062 721 960.5 c 128,-1,25
 684 859 684 859 684 720 c 0,26,27
 684 587 684 587 724.5 485.5 c 128,-1,28
 765 384 765 384 833 315.5 c 128,-1,29
 901 247 901 247 991.5 212 c 128,-1,30
 1082 177 1082 177 1182 177 c 0,31,32
 1270 177 1270 177 1334 189.5 c 128,-1,33
 1398 202 1398 202 1450 234 c 1,34,-1
 1450 484 l 1,35,-1
 1159 764 l 1,36,-1
 1962 764 l 1,37,-1
 1962 0 l 1,38,-1
 1725 0 l 1,39,-1
 1670 100 l 1,40,41
 1611 62 1611 62 1544 35.5 c 128,-1,42
 1477 9 1477 9 1404 -7.5 c 128,-1,43
 1331 -24 1331 -24 1254 -31.5 c 128,-1,44
 1177 -39 1177 -39 1098 -39 c 0,45,46
 963 -39 963 -39 835.5 -23 c 128,-1,47
 708 -7 708 -7 596 28.5 c 128,-1,48
 484 64 484 64 391 120.5 c 128,-1,49
 298 177 298 177 231 257.5 c 128,-1,50
 164 338 164 338 127 445 c 128,-1,51
 90 552 90 552 90 689 c 0,0,1
EndSplineSet
Validated: 1
EndChar

StartChar: H
Encoding: 72 72 38
Width: 2206
Flags: W
LayerCount: 2
Fore
SplineSet
311 254 m 1,0,-1
 311 1181 l 1,1,-1
 30 1434 l 1,2,-1
 828 1434 l 1,3,-1
 828 886 l 1,4,-1
 1378 886 l 1,5,-1
 1378 1434 l 1,6,-1
 2157 1434 l 1,7,-1
 1895 1180 l 1,8,-1
 1895 254 l 1,9,-1
 2176 0 l 1,10,-1
 1378 0 l 1,11,-1
 1378 677 l 1,12,-1
 828 677 l 1,13,-1
 828 0 l 1,14,-1
 30 0 l 1,15,-1
 311 254 l 1,0,-1
EndSplineSet
Validated: 1
EndChar

StartChar: I
Encoding: 73 73 39
Width: 1101
Flags: W
LayerCount: 2
Fore
SplineSet
292 1180 m 1,0,-1
 60 1434 l 1,1,-1
 809 1434 l 1,2,-1
 809 254 l 1,3,-1
 1041 0 l 1,4,-1
 292 0 l 1,5,-1
 292 1180 l 1,0,-1
EndSplineSet
Validated: 1
EndChar

StartChar: J
Encoding: 74 74 40
Width: 1209
Flags: W
LayerCount: 2
Fore
SplineSet
130 168 m 1,0,1
 172 156 172 156 206.5 151 c 128,-1,2
 241 146 241 146 282 146 c 0,3,4
 332 146 332 146 377.5 152.5 c 128,-1,5
 423 159 423 159 457 183.5 c 128,-1,6
 491 208 491 208 511 256 c 128,-1,7
 531 304 531 304 531 387 c 2,8,-1
 531 1180 l 1,9,-1
 279 1434 l 1,10,-1
 1038 1434 l 1,11,-1
 1038 347 l 2,12,13
 1038 237 1038 237 1009 157.5 c 128,-1,14
 980 78 980 78 922 26.5 c 128,-1,15
 864 -25 864 -25 778.5 -49.5 c 128,-1,16
 693 -74 693 -74 580 -74 c 0,17,18
 499 -74 499 -74 427.5 -64.5 c 128,-1,19
 356 -55 356 -55 297 -39.5 c 128,-1,20
 238 -24 238 -24 194 -3.5 c 128,-1,21
 150 17 150 17 125 38 c 1,22,-1
 130 168 l 1,0,1
EndSplineSet
Validated: 1
EndChar

StartChar: K
Encoding: 75 75 41
Width: 2060
Flags: W
LayerCount: 2
Fore
SplineSet
311 254 m 1,0,-1
 311 1181 l 1,1,-1
 30 1434 l 1,2,-1
 1000 1434 l 1,3,-1
 828 1181 l 1,4,-1
 828 750 l 1,5,-1
 1393 1180 l 1,6,-1
 1240 1434 l 1,7,-1
 2090 1434 l 1,8,-1
 1375 873 l 1,9,-1
 1835 254 l 1,10,-1
 2110 0 l 1,11,-1
 1208 0 l 1,12,-1
 1294 138 l 1,13,-1
 991 572 l 1,14,-1
 828 443 l 1,15,-1
 828 254 l 1,16,-1
 1040 0 l 1,17,-1
 30 0 l 1,18,-1
 311 254 l 1,0,-1
EndSplineSet
Validated: 1
EndChar

StartChar: L
Encoding: 76 76 42
Width: 1837
Flags: W
LayerCount: 2
Fore
SplineSet
311 254 m 1,0,-1
 311 1180 l 1,1,-1
 30 1434 l 1,2,-1
 1219 1434 l 1,3,-1
 838 1180 l 1,4,-1
 838 229 l 1,5,-1
 1368 229 l 1,6,-1
 1777 583 l 1,7,-1
 1777 0 l 1,8,-1
 30 0 l 1,9,-1
 311 254 l 1,0,-1
EndSplineSet
Validated: 1
EndChar

StartChar: M
Encoding: 77 77 43
Width: 2465
Flags: W
LayerCount: 2
Fore
SplineSet
303 253 m 1,0,-1
 303 1144 l 1,1,-1
 5 1434 l 1,2,-1
 729 1434 l 1,3,-1
 1230 662 l 1,4,-1
 1681 1434 l 1,5,-1
 2450 1434 l 1,6,-1
 2138 1190 l 1,7,-1
 2138 254 l 1,8,-1
 2429 0 l 1,9,-1
 1351 0 l 1,10,-1
 1631 254 l 1,11,-1
 1631 771 l 1,12,-1
 1201 0 l 1,13,-1
 1056 0 l 1,14,-1
 575 763 l 1,15,-1
 575 253 l 1,16,-1
 876 0 l 1,17,-1
 42 0 l 1,18,-1
 303 253 l 1,0,-1
EndSplineSet
Validated: 1
EndChar

StartChar: N
Encoding: 78 78 44
Width: 2113
Flags: W
LayerCount: 2
Fore
SplineSet
313 254 m 1,0,-1
 313 1152 l 1,1,-1
 5 1434 l 1,2,-1
 769 1434 l 1,3,-1
 1575 714 l 1,4,-1
 1575 1180 l 1,5,-1
 1295 1434 l 1,6,-1
 2098 1434 l 1,7,-1
 1847 1180 l 1,8,-1
 1847 0 l 1,9,-1
 1575 0 l 1,10,-1
 585 904 l 1,11,-1
 585 254 l 1,12,-1
 886 0 l 1,13,-1
 42 0 l 1,14,-1
 313 254 l 1,0,-1
EndSplineSet
Validated: 1
EndChar

StartChar: O
Encoding: 79 79 45
Width: 2066
Flags: W
LayerCount: 2
Fore
SplineSet
90 717 m 0,0,1
 90 855 90 855 130.5 965 c 128,-1,2
 171 1075 171 1075 240 1159 c 128,-1,3
 309 1243 309 1243 402 1302.5 c 128,-1,4
 495 1362 495 1362 599.5 1399.5 c 128,-1,5
 704 1437 704 1437 815 1454.5 c 128,-1,6
 926 1472 926 1472 1032 1472 c 0,7,8
 1148 1472 1148 1472 1263.5 1454.5 c 128,-1,9
 1379 1437 1379 1437 1483.5 1399.5 c 128,-1,10
 1588 1362 1588 1362 1678 1302.5 c 128,-1,11
 1768 1243 1768 1243 1834.5 1159 c 128,-1,12
 1901 1075 1901 1075 1938.5 965 c 128,-1,13
 1976 855 1976 855 1976 717 c 0,14,15
 1976 581 1976 581 1937 472 c 128,-1,16
 1898 363 1898 363 1830 279 c 128,-1,17
 1762 195 1762 195 1670.5 135 c 128,-1,18
 1579 75 1579 75 1474.5 36 c 128,-1,19
 1370 -3 1370 -3 1256.5 -21 c 128,-1,20
 1143 -39 1143 -39 1032 -39 c 256,21,22
 921 -39 921 -39 808 -22 c 128,-1,23
 695 -5 695 -5 590.5 32 c 128,-1,24
 486 69 486 69 394.5 128 c 128,-1,25
 303 187 303 187 235.5 271 c 128,-1,26
 168 355 168 355 129 465.5 c 128,-1,27
 90 576 90 576 90 717 c 0,0,1
678 717 m 0,28,29
 678 599 678 599 704 498.5 c 128,-1,30
 730 398 730 398 777 324 c 128,-1,31
 824 250 824 250 889 208 c 128,-1,32
 954 166 954 166 1032 166 c 256,33,34
 1110 166 1110 166 1175 209 c 128,-1,35
 1240 252 1240 252 1287.5 326 c 128,-1,36
 1335 400 1335 400 1361.5 500.5 c 128,-1,37
 1388 601 1388 601 1388 717 c 0,38,39
 1388 834 1388 834 1363 936.5 c 128,-1,40
 1338 1039 1338 1039 1291.5 1114.5 c 128,-1,41
 1245 1190 1245 1190 1179 1233.5 c 128,-1,42
 1113 1277 1113 1277 1032 1277 c 0,43,44
 954 1277 954 1277 889 1233.5 c 128,-1,45
 824 1190 824 1190 777 1114.5 c 128,-1,46
 730 1039 730 1039 704 936.5 c 128,-1,47
 678 834 678 834 678 717 c 0,28,29
EndSplineSet
Validated: 1
EndChar

StartChar: P
Encoding: 80 80 46
Width: 2065
Flags: W
LayerCount: 2
Fore
SplineSet
341 254 m 1,0,-1
 341 1180 l 1,1,-1
 31 1434 l 1,2,3
 127 1435 127 1435 235 1436 c 128,-1,4
 343 1437 343 1437 452.5 1437.5 c 128,-1,5
 562 1438 562 1438 668 1439 c 128,-1,6
 774 1440 774 1440 865 1440.5 c 128,-1,7
 956 1441 956 1441 1027 1441 c 128,-1,8
 1098 1441 1098 1441 1139 1441 c 0,9,10
 1240 1441 1240 1441 1343 1434.5 c 128,-1,11
 1446 1428 1446 1428 1541 1410 c 128,-1,12
 1636 1392 1636 1392 1719 1360.5 c 128,-1,13
 1802 1329 1802 1329 1863 1278 c 128,-1,14
 1924 1227 1924 1227 1959.5 1155 c 128,-1,15
 1995 1083 1995 1083 1995 985 c 0,16,17
 1995 879 1995 879 1964.5 800.5 c 128,-1,18
 1934 722 1934 722 1876 666.5 c 128,-1,19
 1818 611 1818 611 1735.5 576 c 128,-1,20
 1653 541 1653 541 1548 521 c 128,-1,21
 1443 501 1443 501 1318.5 493.5 c 128,-1,22
 1194 486 1194 486 1053 486 c 0,23,24
 1015 486 1015 486 967 487 c 128,-1,25
 919 488 919 488 868 490 c 1,26,-1
 868 254 l 1,27,-1
 1279 0 l 1,28,-1
 30 0 l 1,29,-1
 341 254 l 1,0,-1
994 709 m 2,30,31
 1118 709 1118 709 1201 720.5 c 128,-1,32
 1284 732 1284 732 1334 762 c 128,-1,33
 1384 792 1384 792 1405 844 c 128,-1,34
 1426 896 1426 896 1426 977 c 256,35,36
 1426 1058 1426 1058 1398 1107 c 128,-1,37
 1370 1156 1370 1156 1317 1182.5 c 128,-1,38
 1264 1209 1264 1209 1187.5 1217 c 128,-1,39
 1111 1225 1111 1225 1014 1225 c 2,40,-1
 868 1225 l 1,41,-1
 868 709 l 1,42,-1
 994 709 l 2,30,31
EndSplineSet
Validated: 1
EndChar

StartChar: Q
Encoding: 81 81 47
Width: 2066
Flags: W
LayerCount: 2
Fore
SplineSet
90 717 m 0,0,1
 90 855 90 855 129 965 c 128,-1,2
 168 1075 168 1075 235.5 1159 c 128,-1,3
 303 1243 303 1243 394.5 1302.5 c 128,-1,4
 486 1362 486 1362 590.5 1399.5 c 128,-1,5
 695 1437 695 1437 808 1454.5 c 128,-1,6
 921 1472 921 1472 1032 1472 c 256,7,8
 1143 1472 1143 1472 1256.5 1454.5 c 128,-1,9
 1370 1437 1370 1437 1474.5 1399.5 c 128,-1,10
 1579 1362 1579 1362 1670.5 1302.5 c 128,-1,11
 1762 1243 1762 1243 1830 1159 c 128,-1,12
 1898 1075 1898 1075 1937 965 c 128,-1,13
 1976 855 1976 855 1976 717 c 0,14,15
 1976 583 1976 583 1939.5 476.5 c 128,-1,16
 1903 370 1903 370 1839.5 287 c 128,-1,17
 1776 204 1776 204 1690 144 c 128,-1,18
 1604 84 1604 84 1504 45 c 1,19,20
 1506 10 1506 10 1513.5 -19 c 128,-1,21
 1521 -48 1521 -48 1538.5 -70 c 128,-1,22
 1556 -92 1556 -92 1585.5 -104 c 128,-1,23
 1615 -116 1615 -116 1662 -116 c 0,24,25
 1676 -116 1676 -116 1698 -115 c 128,-1,26
 1720 -114 1720 -114 1744.5 -111.5 c 128,-1,27
 1769 -109 1769 -109 1794.5 -105 c 128,-1,28
 1820 -101 1820 -101 1841 -96 c 1,29,-1
 1806 -404 l 1,30,31
 1777 -410 1777 -410 1745.5 -415 c 128,-1,32
 1714 -420 1714 -420 1682.5 -423 c 128,-1,33
 1651 -426 1651 -426 1622 -427.5 c 128,-1,34
 1593 -429 1593 -429 1571 -429 c 0,35,36
 1473 -429 1473 -429 1401 -400 c 128,-1,37
 1329 -371 1329 -371 1281 -318.5 c 128,-1,38
 1233 -266 1233 -266 1208.5 -192.5 c 128,-1,39
 1184 -119 1184 -119 1183 -31 c 1,40,41
 1145 -35 1145 -35 1107.5 -37 c 128,-1,42
 1070 -39 1070 -39 1032 -39 c 0,43,44
 921 -39 921 -39 808 -22 c 128,-1,45
 695 -5 695 -5 590.5 32 c 128,-1,46
 486 69 486 69 394.5 128 c 128,-1,47
 303 187 303 187 235.5 271 c 128,-1,48
 168 355 168 355 129 465.5 c 128,-1,49
 90 576 90 576 90 717 c 0,0,1
743 387 m 1,50,51
 800 433 800 433 881 459.5 c 128,-1,52
 962 486 962 486 1060 486 c 0,53,54
 1145 486 1145 486 1210.5 462.5 c 128,-1,55
 1276 439 1276 439 1327 401 c 1,56,57
 1356 468 1356 468 1372 548 c 128,-1,58
 1388 628 1388 628 1388 717 c 0,59,60
 1388 834 1388 834 1363 936.5 c 128,-1,61
 1338 1039 1338 1039 1291.5 1114.5 c 128,-1,62
 1245 1190 1245 1190 1179 1233.5 c 128,-1,63
 1113 1277 1113 1277 1032 1277 c 0,64,65
 954 1277 954 1277 889 1233.5 c 128,-1,66
 824 1190 824 1190 777 1114.5 c 128,-1,67
 730 1039 730 1039 704 936.5 c 128,-1,68
 678 834 678 834 678 717 c 0,69,70
 678 622 678 622 694.5 539 c 128,-1,71
 711 456 711 456 743 387 c 1,50,51
827 259 m 1,72,73
 869 214 869 214 920.5 190 c 128,-1,74
 972 166 972 166 1032 166 c 0,75,76
 1108 166 1108 166 1173 208 c 1,77,78
 1153 262 1153 262 1102.5 290 c 128,-1,79
 1052 318 1052 318 993 318 c 0,80,81
 948 318 948 318 904 303.5 c 128,-1,82
 860 289 860 289 827 259 c 1,72,73
EndSplineSet
Validated: 1
EndChar

StartChar: R
Encoding: 82 82 48
Width: 2186
Flags: W
LayerCount: 2
Fore
SplineSet
341 254 m 1,0,-1
 341 1180 l 1,1,-1
 31 1434 l 1,2,3
 125 1435 125 1435 226 1436 c 128,-1,4
 327 1437 327 1437 427 1437.5 c 128,-1,5
 527 1438 527 1438 622 1439 c 128,-1,6
 717 1440 717 1440 800.5 1440.5 c 128,-1,7
 884 1441 884 1441 952 1441 c 128,-1,8
 1020 1441 1020 1441 1065 1441 c 0,9,10
 1160 1441 1160 1441 1264 1437 c 128,-1,11
 1368 1433 1368 1433 1468.5 1419.5 c 128,-1,12
 1569 1406 1569 1406 1659.5 1379.5 c 128,-1,13
 1750 1353 1750 1353 1818.5 1308.5 c 128,-1,14
 1887 1264 1887 1264 1927.5 1198.5 c 128,-1,15
 1968 1133 1968 1133 1968 1041 c 0,16,17
 1968 971 1968 971 1943 915 c 128,-1,18
 1918 859 1918 859 1871.5 815 c 128,-1,19
 1825 771 1825 771 1759 738 c 128,-1,20
 1693 705 1693 705 1612 681 c 1,21,22
 1675 672 1675 672 1730.5 638.5 c 128,-1,23
 1786 605 1786 605 1827 554 c 128,-1,24
 1868 503 1868 503 1891.5 436 c 128,-1,25
 1915 369 1915 369 1915 292 c 2,26,-1
 1915 234 l 1,27,-1
 2196 0 l 1,28,-1
 1212 0 l 1,29,-1
 1364 213 l 1,30,-1
 1364 336 l 2,31,32
 1364 388 1364 388 1349 431.5 c 128,-1,33
 1334 475 1334 475 1308 506.5 c 128,-1,34
 1282 538 1282 538 1247.5 555.5 c 128,-1,35
 1213 573 1213 573 1175 573 c 2,36,-1
 868 573 l 1,37,-1
 868 254 l 1,38,-1
 1049 0 l 1,39,-1
 30 0 l 1,40,-1
 341 254 l 1,0,-1
1014 769 m 2,41,42
 1119 769 1119 769 1197 778 c 128,-1,43
 1275 787 1275 787 1326.5 812 c 128,-1,44
 1378 837 1378 837 1403 881 c 128,-1,45
 1428 925 1428 925 1428 994 c 0,46,47
 1428 1047 1428 1047 1410 1085 c 128,-1,48
 1392 1123 1392 1123 1361 1148.5 c 128,-1,49
 1330 1174 1330 1174 1288.5 1189.5 c 128,-1,50
 1247 1205 1247 1205 1201 1212.5 c 128,-1,51
 1155 1220 1155 1220 1107 1222.5 c 128,-1,52
 1059 1225 1059 1225 1014 1225 c 2,53,-1
 868 1225 l 1,54,-1
 868 769 l 1,55,-1
 1014 769 l 2,41,42
EndSplineSet
Validated: 1
EndChar

StartChar: S
Encoding: 83 83 49
Width: 1944
Flags: W
LayerCount: 2
Fore
SplineSet
182 489 m 1,0,1
 279 425 279 425 386 369.5 c 128,-1,2
 493 314 493 314 607.5 273 c 128,-1,3
 722 232 722 232 842.5 208.5 c 128,-1,4
 963 185 963 185 1088 185 c 0,5,6
 1136 185 1136 185 1180.5 191 c 128,-1,7
 1225 197 1225 197 1258.5 210.5 c 128,-1,8
 1292 224 1292 224 1312.5 246.5 c 128,-1,9
 1333 269 1333 269 1333 301 c 0,10,11
 1333 330 1333 330 1316 359.5 c 128,-1,12
 1299 389 1299 389 1250.5 416 c 128,-1,13
 1202 443 1202 443 1115 466.5 c 128,-1,14
 1028 490 1028 490 889 508 c 0,15,16
 703 532 703 532 566 570 c 128,-1,17
 429 608 429 608 339 667 c 128,-1,18
 249 726 249 726 205 809 c 128,-1,19
 161 892 161 892 161 1006 c 0,20,21
 161 1115 161 1115 210.5 1201.5 c 128,-1,22
 260 1288 260 1288 353 1348 c 128,-1,23
 446 1408 446 1408 579 1440 c 128,-1,24
 712 1472 712 1472 879 1472 c 0,25,26
 948 1472 948 1472 1018 1464.5 c 128,-1,27
 1088 1457 1088 1457 1156 1444 c 128,-1,28
 1224 1431 1224 1431 1289 1413.5 c 128,-1,29
 1354 1396 1354 1396 1411 1377 c 1,30,-1
 1607 1485 l 1,31,-1
 1744 1485 l 1,32,-1
 1744 1005 l 1,33,34
 1637 1068 1637 1068 1528.5 1116 c 128,-1,35
 1420 1164 1420 1164 1313.5 1196.5 c 128,-1,36
 1207 1229 1207 1229 1105.5 1245.5 c 128,-1,37
 1004 1262 1004 1262 912 1262 c 0,38,39
 852 1262 852 1262 803.5 1253 c 128,-1,40
 755 1244 755 1244 721.5 1229 c 128,-1,41
 688 1214 688 1214 670 1193.5 c 128,-1,42
 652 1173 652 1173 652 1150 c 0,43,44
 652 1117 652 1117 670 1090.5 c 128,-1,45
 688 1064 688 1064 740 1041 c 128,-1,46
 792 1018 792 1018 886 996.5 c 128,-1,47
 980 975 980 975 1132 950 c 0,48,49
 1233 933 1233 933 1325 914 c 128,-1,50
 1417 895 1417 895 1496 868.5 c 128,-1,51
 1575 842 1575 842 1638.5 805 c 128,-1,52
 1702 768 1702 768 1747 716 c 128,-1,53
 1792 664 1792 664 1816.5 594 c 128,-1,54
 1841 524 1841 524 1841 431 c 0,55,56
 1841 307 1841 307 1781 218 c 128,-1,57
 1721 129 1721 129 1619 72 c 128,-1,58
 1517 15 1517 15 1381.5 -12 c 128,-1,59
 1246 -39 1246 -39 1096 -39 c 0,60,61
 956 -39 956 -39 813 -9.5 c 128,-1,62
 670 20 670 20 539 86 c 1,63,-1
 379 -14 l 1,64,-1
 182 -14 l 1,65,-1
 182 489 l 1,0,1
EndSplineSet
Validated: 1
EndChar

StartChar: T
Encoding: 84 84 50
Width: 1838
Flags: W
LayerCount: 2
Fore
SplineSet
654 253 m 1,0,-1
 654 1234 l 1,1,-1
 453 1234 l 1,2,-1
 75 814 l 1,3,-1
 54 1434 l 1,4,-1
 649 1434 l 1,5,-1
 654 1430 l 1,6,-1
 654 1434 l 1,7,-1
 1784 1434 l 1,8,-1
 1763 814 l 1,9,-1
 1375 1234 l 1,10,-1
 1181 1234 l 1,11,-1
 1181 253 l 1,12,-1
 1535 0 l 1,13,-1
 312 0 l 1,14,-1
 654 253 l 1,0,-1
EndSplineSet
Validated: 1
EndChar

StartChar: U
Encoding: 85 85 51
Width: 2027
Flags: W
LayerCount: 2
Fore
SplineSet
291 1181 m 1,0,-1
 10 1434 l 1,1,-1
 1062 1434 l 1,2,-1
 808 1181 l 1,3,-1
 808 727 l 2,4,5
 808 583 808 583 829.5 483.5 c 128,-1,6
 851 384 851 384 894 321.5 c 128,-1,7
 937 259 937 259 1002 231.5 c 128,-1,8
 1067 204 1067 204 1154 204 c 0,9,10
 1207 204 1207 204 1253 212.5 c 128,-1,11
 1299 221 1299 221 1337.5 243 c 128,-1,12
 1376 265 1376 265 1405.5 303 c 128,-1,13
 1435 341 1435 341 1455.5 399 c 128,-1,14
 1476 457 1476 457 1487 538 c 128,-1,15
 1498 619 1498 619 1498 727 c 2,16,-1
 1498 1180 l 1,17,-1
 1280 1434 l 1,18,-1
 2037 1434 l 1,19,-1
 1781 1180 l 1,20,-1
 1781 667 l 2,21,22
 1781 526 1781 526 1758 418.5 c 128,-1,23
 1735 311 1735 311 1692 232.5 c 128,-1,24
 1649 154 1649 154 1587 102 c 128,-1,25
 1525 50 1525 50 1447 18.5 c 128,-1,26
 1369 -13 1369 -13 1277 -26 c 128,-1,27
 1185 -39 1185 -39 1081 -39 c 0,28,29
 863 -39 863 -39 712 5 c 128,-1,30
 561 49 561 49 467.5 137.5 c 128,-1,31
 374 226 374 226 332.5 358.5 c 128,-1,32
 291 491 291 491 291 667 c 2,33,-1
 291 1181 l 1,0,-1
EndSplineSet
Validated: 1
EndChar

StartChar: V
Encoding: 86 86 52
Width: 1979
Flags: W
LayerCount: 2
Fore
SplineSet
285 1181 m 1,0,-1
 -42 1434 l 1,1,-1
 987 1434 l 1,2,-1
 831 1212 l 1,3,-1
 1140 413 l 1,4,-1
 1393 1204 l 1,5,-1
 1227 1434 l 1,6,-1
 2037 1434 l 1,7,-1
 1739 1201 l 1,8,-1
 1278 0 l 1,9,-1
 779 0 l 1,10,-1
 285 1181 l 1,0,-1
EndSplineSet
Validated: 1
EndChar

StartChar: W
Encoding: 87 87 53
Width: 2669
Flags: W
LayerCount: 2
Fore
SplineSet
210 1207 m 1,0,-1
 -40 1434 l 1,1,-1
 889 1434 l 1,2,-1
 762 1198 l 1,3,-1
 992 363 l 1,4,-1
 1185 1200 l 1,5,-1
 1050 1434 l 1,6,-1
 1889 1434 l 1,7,-1
 1759 1192 l 1,8,-1
 1972 353 l 1,9,-1
 2179 1193 l 1,10,-1
 2050 1434 l 1,11,-1
 2729 1434 l 1,12,-1
 2504 1230 l 1,13,-1
 2140 0 l 1,14,-1
 1581 0 l 1,15,-1
 1386 783 l 1,16,-1
 1220 0 l 1,17,-1
 631 0 l 1,18,-1
 210 1207 l 1,0,-1
EndSplineSet
Validated: 1
EndChar

StartChar: X
Encoding: 88 88 54
Width: 2091
Flags: W
LayerCount: 2
Fore
SplineSet
424 322 m 1,0,-1
 751 694 l 1,1,-1
 392 1150 l 1,2,-1
 14 1434 l 1,3,-1
 1022 1434 l 1,4,-1
 926 1298 l 1,5,-1
 1156 986 l 1,6,-1
 1366 1256 l 1,7,-1
 1183 1434 l 1,8,-1
 2078 1434 l 1,9,-1
 1646 1119 l 1,10,-1
 1345 762 l 1,11,-1
 1719 286 l 1,12,-1
 2101 0 l 1,13,-1
 1095 0 l 1,14,-1
 1190 136 l 1,15,-1
 935 471 l 1,16,-1
 703 178 l 1,17,-1
 885 0 l 1,18,-1
 -10 0 l 1,19,-1
 424 322 l 1,0,-1
EndSplineSet
Validated: 1
EndChar

StartChar: Y
Encoding: 89 89 55
Width: 1939
Flags: W
LayerCount: 2
Fore
SplineSet
731 254 m 1,0,-1
 731 450 l 1,1,-1
 258 1191 l 1,2,-1
 -40 1434 l 1,3,-1
 949 1434 l 1,4,-1
 814 1242 l 1,5,-1
 1092 743 l 1,6,-1
 1318 1233 l 1,7,-1
 1154 1434 l 1,8,-1
 1999 1434 l 1,9,-1
 1656 1184 l 1,10,-1
 1238 450 l 1,11,-1
 1238 254 l 1,12,-1
 1508 0 l 1,13,-1
 479 0 l 1,14,-1
 731 254 l 1,0,-1
EndSplineSet
Validated: 1
EndChar

StartChar: Z
Encoding: 90 90 56
Width: 1838
Flags: W
LayerCount: 2
Fore
SplineSet
914 1205 m 1,0,-1
 466 1205 l 1,1,-1
 159 787 l 1,2,-1
 159 1434 l 1,3,-1
 1738 1434 l 1,4,-1
 889 229 l 1,5,-1
 1422 229 l 1,6,-1
 1729 647 l 1,7,-1
 1729 0 l 1,8,-1
 50 0 l 1,9,-1
 914 1205 l 1,0,-1
EndSplineSet
Validated: 1
EndChar

StartChar: ampersand
Encoding: 38 38 57
Width: 2299
Flags: W
LayerCount: 2
Fore
SplineSet
110 345 m 256,0,1
 110 419 110 419 150.5 478 c 128,-1,2
 191 537 191 537 259 582 c 128,-1,3
 327 627 327 627 415.5 657.5 c 128,-1,4
 504 688 504 688 601 706 c 1,5,6
 491 791 491 791 434.5 876 c 128,-1,7
 378 961 378 961 378 1058 c 0,8,9
 378 1128 378 1128 404.5 1186 c 128,-1,10
 431 1244 431 1244 477.5 1290 c 128,-1,11
 524 1336 524 1336 589 1370 c 128,-1,12
 654 1404 654 1404 731 1427 c 128,-1,13
 808 1450 808 1450 894.5 1461 c 128,-1,14
 981 1472 981 1472 1072 1472 c 0,15,16
 1226 1472 1226 1472 1348.5 1445 c 128,-1,17
 1471 1418 1471 1418 1556 1368.5 c 128,-1,18
 1641 1319 1641 1319 1686 1250.5 c 128,-1,19
 1731 1182 1731 1182 1731 1098 c 0,20,21
 1731 1023 1731 1023 1696 959.5 c 128,-1,22
 1661 896 1661 896 1596.5 848 c 128,-1,23
 1532 800 1532 800 1441.5 770 c 128,-1,24
 1351 740 1351 740 1240 731 c 1,25,26
 1333 684 1333 684 1432 638.5 c 128,-1,27
 1531 593 1531 593 1632 549 c 1,28,29
 1637 584 1637 584 1639.5 620 c 128,-1,30
 1642 656 1642 656 1642 694 c 0,31,32
 1642 730 1642 730 1639 766 c 1,33,-1
 2043 630 l 1,34,35
 2043 501 2043 501 2011 399 c 1,36,37
 2086 371 2086 371 2153.5 349 c 128,-1,38
 2221 327 2221 327 2279 310 c 1,39,-1
 2007 -39 l 1,40,41
 1946 -19 1946 -19 1876 11 c 128,-1,42
 1806 41 1806 41 1728 78 c 1,43,44
 1599 15 1599 15 1423.5 -12 c 128,-1,45
 1248 -39 1248 -39 1027 -39 c 0,46,47
 902 -39 902 -39 785 -31 c 128,-1,48
 668 -23 668 -23 566.5 -5 c 128,-1,49
 465 13 465 13 381 42.5 c 128,-1,50
 297 72 297 72 236.5 114.5 c 128,-1,51
 176 157 176 157 143 214 c 128,-1,52
 110 271 110 271 110 345 c 256,0,1
1043 839 m 1,53,54
 1102 855 1102 855 1151 877 c 128,-1,55
 1200 899 1200 899 1235 929 c 128,-1,56
 1270 959 1270 959 1289.5 997.5 c 128,-1,57
 1309 1036 1309 1036 1309 1085 c 0,58,59
 1309 1127 1309 1127 1292.5 1159.5 c 128,-1,60
 1276 1192 1276 1192 1246 1215 c 128,-1,61
 1216 1238 1216 1238 1173 1250 c 128,-1,62
 1130 1262 1130 1262 1078 1262 c 0,63,64
 1019 1262 1019 1262 973.5 1247.5 c 128,-1,65
 928 1233 928 1233 896.5 1208.5 c 128,-1,66
 865 1184 865 1184 849 1150.5 c 128,-1,67
 833 1117 833 1117 833 1079 c 0,68,69
 833 1017 833 1017 889.5 958 c 128,-1,70
 946 899 946 899 1043 839 c 1,53,54
618 399 m 0,71,72
 618 355 618 355 637 321 c 128,-1,73
 656 287 656 287 689.5 262 c 128,-1,74
 723 237 723 237 768.5 220 c 128,-1,75
 814 203 814 203 866 192.5 c 128,-1,76
 918 182 918 182 974 177.5 c 128,-1,77
 1030 173 1030 173 1085 173 c 0,78,79
 1194 173 1194 173 1276.5 189.5 c 128,-1,80
 1359 206 1359 206 1420 236 c 1,81,82
 1299 300 1299 300 1179.5 365.5 c 128,-1,83
 1060 431 1060 431 947 492 c 0,84,85
 903 515 903 515 863 537.5 c 128,-1,86
 823 560 823 560 786 582 c 1,87,88
 749 567 749 567 718.5 547 c 128,-1,89
 688 527 688 527 665.5 504 c 128,-1,90
 643 481 643 481 630.5 454.5 c 128,-1,91
 618 428 618 428 618 399 c 0,71,72
EndSplineSet
Validated: 1
EndChar

StartChar: zero
Encoding: 48 48 58
Width: 2026
Flags: W
LayerCount: 2
Fore
SplineSet
140 717 m 0,0,1
 140 849 140 849 175.5 956 c 128,-1,2
 211 1063 211 1063 273.5 1147 c 128,-1,3
 336 1231 336 1231 420 1292 c 128,-1,4
 504 1353 504 1353 600.5 1393 c 128,-1,5
 697 1433 697 1433 802.5 1452.5 c 128,-1,6
 908 1472 908 1472 1012 1472 c 256,7,8
 1116 1472 1116 1472 1221.5 1452.5 c 128,-1,9
 1327 1433 1327 1433 1424 1393 c 128,-1,10
 1521 1353 1521 1353 1605.5 1292 c 128,-1,11
 1690 1231 1690 1231 1752.5 1147 c 128,-1,12
 1815 1063 1815 1063 1850.5 956 c 128,-1,13
 1886 849 1886 849 1886 717 c 256,14,15
 1886 585 1886 585 1850.5 478 c 128,-1,16
 1815 371 1815 371 1752.5 287 c 128,-1,17
 1690 203 1690 203 1605.5 141.5 c 128,-1,18
 1521 80 1521 80 1424 40 c 128,-1,19
 1327 0 1327 0 1221.5 -19.5 c 128,-1,20
 1116 -39 1116 -39 1012 -39 c 256,21,22
 908 -39 908 -39 802.5 -20 c 128,-1,23
 697 -1 697 -1 600.5 38 c 128,-1,24
 504 77 504 77 420 138 c 128,-1,25
 336 199 336 199 273.5 283 c 128,-1,26
 211 367 211 367 175.5 475 c 128,-1,27
 140 583 140 583 140 717 c 0,0,1
708 717 m 0,28,29
 708 599 708 599 726.5 498.5 c 128,-1,30
 745 398 745 398 782.5 324 c 128,-1,31
 820 250 820 250 877 208 c 128,-1,32
 934 166 934 166 1012 166 c 256,33,34
 1090 166 1090 166 1147.5 209 c 128,-1,35
 1205 252 1205 252 1243 326 c 128,-1,36
 1281 400 1281 400 1299.5 500.5 c 128,-1,37
 1318 601 1318 601 1318 717 c 0,38,39
 1318 834 1318 834 1300.5 936.5 c 128,-1,40
 1283 1039 1283 1039 1246 1114.5 c 128,-1,41
 1209 1190 1209 1190 1151 1233.5 c 128,-1,42
 1093 1277 1093 1277 1012 1277 c 0,43,44
 934 1277 934 1277 877 1233.5 c 128,-1,45
 820 1190 820 1190 782.5 1114.5 c 128,-1,46
 745 1039 745 1039 726.5 936.5 c 128,-1,47
 708 834 708 834 708 717 c 0,28,29
EndSplineSet
Validated: 1
EndChar

StartChar: one
Encoding: 49 49 59
Width: 1135
Flags: W
LayerCount: 2
Fore
SplineSet
342 254 m 1,0,-1
 342 1080 l 1,1,-1
 60 1244 l 1,2,-1
 670 1434 l 1,3,-1
 849 1434 l 1,4,-1
 849 254 l 1,5,-1
 1120 0 l 1,6,-1
 71 0 l 1,7,-1
 342 254 l 1,0,-1
EndSplineSet
Validated: 1
EndChar

StartChar: two
Encoding: 50 50 60
Width: 1906
Flags: W
LayerCount: 2
Fore
SplineSet
204 0 m 1,0,1
 181 55 181 55 165.5 113 c 128,-1,2
 150 171 150 171 150 241 c 0,3,4
 150 325 150 325 174 390 c 128,-1,5
 198 455 198 455 239.5 505 c 128,-1,6
 281 555 281 555 337.5 591.5 c 128,-1,7
 394 628 394 628 459.5 655 c 128,-1,8
 525 682 525 682 596.5 701.5 c 128,-1,9
 668 721 668 721 739 737 c 0,10,11
 857 763 857 763 948 785 c 128,-1,12
 1039 807 1039 807 1101 837 c 128,-1,13
 1163 867 1163 867 1195 909.5 c 128,-1,14
 1227 952 1227 952 1227 1019 c 0,15,16
 1227 1080 1227 1080 1204 1125 c 128,-1,17
 1181 1170 1181 1170 1140.5 1199.5 c 128,-1,18
 1100 1229 1100 1229 1046 1243.5 c 128,-1,19
 992 1258 992 1258 929 1258 c 0,20,21
 855 1258 855 1258 799.5 1241 c 128,-1,22
 744 1224 744 1224 706.5 1185.5 c 128,-1,23
 669 1147 669 1147 650 1085.5 c 128,-1,24
 631 1024 631 1024 631 934 c 1,25,-1
 186 934 l 1,26,27
 182 958 182 958 180 986 c 128,-1,28
 178 1014 178 1014 178 1036 c 0,29,30
 178 1123 178 1123 207.5 1189.5 c 128,-1,31
 237 1256 237 1256 289.5 1304.5 c 128,-1,32
 342 1353 342 1353 414.5 1385 c 128,-1,33
 487 1417 487 1417 574 1436.5 c 128,-1,34
 661 1456 661 1456 759 1464 c 128,-1,35
 857 1472 857 1472 960 1472 c 0,36,37
 1167 1472 1167 1472 1318.5 1441 c 128,-1,38
 1470 1410 1470 1410 1568 1351 c 128,-1,39
 1666 1292 1666 1292 1713.5 1206.5 c 128,-1,40
 1761 1121 1761 1121 1761 1011 c 0,41,42
 1761 936 1761 936 1733.5 877 c 128,-1,43
 1706 818 1706 818 1659 771 c 128,-1,44
 1612 724 1612 724 1548 688 c 128,-1,45
 1484 652 1484 652 1410.5 624 c 128,-1,46
 1337 596 1337 596 1258 575.5 c 128,-1,47
 1179 555 1179 555 1102 539 c 0,48,49
 1006 519 1006 519 924 497 c 128,-1,50
 842 475 842 475 782.5 448 c 128,-1,51
 723 421 723 421 689 386.5 c 128,-1,52
 655 352 655 352 655 306 c 0,53,54
 655 296 655 296 656 285 c 128,-1,55
 657 274 657 274 659 264 c 1,56,-1
 1322 264 l 1,57,-1
 1727 619 l 1,58,-1
 1727 0 l 1,59,-1
 204 0 l 1,0,1
EndSplineSet
Validated: 1
EndChar

StartChar: three
Encoding: 51 51 61
Width: 1983
Flags: W
LayerCount: 2
Fore
SplineSet
135 385 m 0,0,1
 135 409 135 409 136.5 437 c 128,-1,2
 138 465 138 465 143 492 c 1,3,-1
 619 492 l 1,4,5
 619 327 619 327 716 245.5 c 128,-1,6
 813 164 813 164 999 164 c 0,7,8
 1067 164 1067 164 1124 176.5 c 128,-1,9
 1181 189 1181 189 1222.5 216 c 128,-1,10
 1264 243 1264 243 1287 286.5 c 128,-1,11
 1310 330 1310 330 1310 393 c 0,12,13
 1310 470 1310 470 1273 516.5 c 128,-1,14
 1236 563 1236 563 1170 588 c 128,-1,15
 1104 613 1104 613 1012.5 621 c 128,-1,16
 921 629 921 629 811 629 c 1,17,-1
 838 789 l 1,18,19
 922 789 922 789 992.5 800.5 c 128,-1,20
 1063 812 1063 812 1113 839 c 128,-1,21
 1163 866 1163 866 1191 910 c 128,-1,22
 1219 954 1219 954 1219 1019 c 0,23,24
 1219 1143 1219 1143 1147.5 1205.5 c 128,-1,25
 1076 1268 1076 1268 952 1268 c 0,26,27
 819 1268 819 1268 749.5 1191 c 128,-1,28
 680 1114 680 1114 680 951 c 1,29,-1
 206 951 l 1,30,31
 201 961 201 961 198.5 987.5 c 128,-1,32
 196 1014 196 1014 196 1036 c 0,33,34
 196 1120 196 1120 230 1185.5 c 128,-1,35
 264 1251 264 1251 321 1299.5 c 128,-1,36
 378 1348 378 1348 454 1381 c 128,-1,37
 530 1414 530 1414 614.5 1434 c 128,-1,38
 699 1454 699 1454 786 1463 c 128,-1,39
 873 1472 873 1472 954 1472 c 0,40,41
 1164 1472 1164 1472 1320 1442.5 c 128,-1,42
 1476 1413 1476 1413 1579 1356.5 c 128,-1,43
 1682 1300 1682 1300 1732.5 1217.5 c 128,-1,44
 1783 1135 1783 1135 1783 1028 c 0,45,46
 1783 977 1783 977 1764 936.5 c 128,-1,47
 1745 896 1745 896 1712 864.5 c 128,-1,48
 1679 833 1679 833 1635.5 809.5 c 128,-1,49
 1592 786 1592 786 1543 770 c 128,-1,50
 1494 754 1494 754 1442 744 c 128,-1,51
 1390 734 1390 734 1342 730 c 1,52,53
 1395 730 1395 730 1455 725 c 128,-1,54
 1515 720 1515 720 1574 707.5 c 128,-1,55
 1633 695 1633 695 1687 672 c 128,-1,56
 1741 649 1741 649 1782.5 613 c 128,-1,57
 1824 577 1824 577 1848.5 525.5 c 128,-1,58
 1873 474 1873 474 1873 405 c 0,59,60
 1873 301 1873 301 1808.5 218.5 c 128,-1,61
 1744 136 1744 136 1624 79 c 128,-1,62
 1504 22 1504 22 1334 -8.5 c 128,-1,63
 1164 -39 1164 -39 954 -39 c 0,64,65
 855 -39 855 -39 756 -30.5 c 128,-1,66
 657 -22 657 -22 566 -2.5 c 128,-1,67
 475 17 475 17 396 49 c 128,-1,68
 317 81 317 81 259 128 c 128,-1,69
 201 175 201 175 168 238.5 c 128,-1,70
 135 302 135 302 135 385 c 0,0,1
EndSplineSet
Validated: 1
EndChar

StartChar: four
Encoding: 52 52 62
Width: 1959
Flags: W
LayerCount: 2
Fore
SplineSet
20 486 m 1,0,-1
 895 1434 l 1,1,-1
 1498 1434 l 1,2,-1
 1498 576 l 1,3,-1
 1889 576 l 1,4,-1
 1889 370 l 1,5,-1
 1498 370 l 1,6,-1
 1498 254 l 1,7,-1
 1769 0 l 1,8,-1
 680 0 l 1,9,-1
 991 254 l 1,10,-1
 991 370 l 1,11,-1
 20 370 l 1,12,-1
 20 486 l 1,0,-1
991 576 m 1,13,-1
 991 1188 l 1,14,-1
 473 576 l 1,15,-1
 991 576 l 1,13,-1
EndSplineSet
Validated: 1
EndChar

StartChar: five
Encoding: 53 53 63
Width: 1962
Flags: W
LayerCount: 2
Fore
SplineSet
160 359 m 0,0,1
 160 371 160 371 161.5 383.5 c 128,-1,2
 163 396 163 396 165 408 c 1,3,-1
 654 465 l 1,4,5
 640 451 640 451 633 428 c 128,-1,6
 626 405 626 405 626 379 c 0,7,8
 626 341 626 341 643 298.5 c 128,-1,9
 660 256 660 256 697 220.5 c 128,-1,10
 734 185 734 185 793 162 c 128,-1,11
 852 139 852 139 937 139 c 0,12,13
 1014 139 1014 139 1077 156.5 c 128,-1,14
 1140 174 1140 174 1184.5 210 c 128,-1,15
 1229 246 1229 246 1253.5 300.5 c 128,-1,16
 1278 355 1278 355 1278 429 c 0,17,18
 1278 511 1278 511 1249.5 567 c 128,-1,19
 1221 623 1221 623 1171.5 657 c 128,-1,20
 1122 691 1122 691 1054 705.5 c 128,-1,21
 986 720 986 720 908 720 c 256,22,23
 830 720 830 720 756.5 705.5 c 128,-1,24
 683 691 683 691 618 669 c 128,-1,25
 553 647 553 647 499 620.5 c 128,-1,26
 445 594 445 594 405 570 c 1,27,-1
 202 655 l 1,28,-1
 282 1434 l 1,29,30
 358 1430 358 1430 463.5 1425.5 c 128,-1,31
 569 1421 569 1421 690.5 1417.5 c 128,-1,32
 812 1414 812 1414 944 1412 c 128,-1,33
 1076 1410 1076 1410 1205 1410 c 0,34,35
 1293 1410 1293 1410 1377 1411 c 128,-1,36
 1461 1412 1461 1412 1533.5 1415 c 128,-1,37
 1606 1418 1606 1418 1663.5 1422.5 c 128,-1,38
 1721 1427 1721 1427 1758 1434 c 1,39,40
 1763 1417 1763 1417 1765.5 1399 c 128,-1,41
 1768 1381 1768 1381 1768 1362 c 0,42,43
 1768 1271 1768 1271 1750 1211.5 c 128,-1,44
 1732 1152 1732 1152 1690.5 1116.5 c 128,-1,45
 1649 1081 1649 1081 1581.5 1067 c 128,-1,46
 1514 1053 1514 1053 1415 1053 c 0,47,48
 1275 1053 1275 1053 1156.5 1072 c 128,-1,49
 1038 1091 1038 1091 930 1114 c 0,50,51
 877 1126 877 1126 825.5 1136.5 c 128,-1,52
 774 1147 774 1147 723 1155.5 c 128,-1,53
 672 1164 672 1164 620.5 1169 c 128,-1,54
 569 1174 569 1174 517 1174 c 1,55,56
 517 1173 517 1173 515 1155 c 128,-1,57
 513 1137 513 1137 510 1108 c 128,-1,58
 507 1079 507 1079 503 1041.5 c 128,-1,59
 499 1004 499 1004 494.5 963.5 c 128,-1,60
 490 923 490 923 486 883 c 128,-1,61
 482 843 482 843 478 809 c 1,62,63
 534 837 534 837 610 862 c 128,-1,64
 686 887 686 887 771 905.5 c 128,-1,65
 856 924 856 924 946 934.5 c 128,-1,66
 1036 945 1036 945 1121 945 c 0,67,68
 1203 945 1203 945 1289.5 937.5 c 128,-1,69
 1376 930 1376 930 1458 910 c 128,-1,70
 1540 890 1540 890 1612.5 856.5 c 128,-1,71
 1685 823 1685 823 1739.5 771.5 c 128,-1,72
 1794 720 1794 720 1825.5 648 c 128,-1,73
 1857 576 1857 576 1857 480 c 0,74,75
 1857 352 1857 352 1787.5 255 c 128,-1,76
 1718 158 1718 158 1595.5 93 c 128,-1,77
 1473 28 1473 28 1305 -5.5 c 128,-1,78
 1137 -39 1137 -39 941 -39 c 0,79,80
 773 -39 773 -39 630 -14 c 128,-1,81
 487 11 487 11 382.5 60.5 c 128,-1,82
 278 110 278 110 219 185 c 128,-1,83
 160 260 160 260 160 359 c 0,0,1
EndSplineSet
Validated: 1
EndChar

StartChar: six
Encoding: 54 54 64
Width: 1922
Flags: W
LayerCount: 2
Fore
SplineSet
127 693 m 0,0,1
 127 859 127 859 184.5 1001.5 c 128,-1,2
 242 1144 242 1144 356.5 1248.5 c 128,-1,3
 471 1353 471 1353 642 1412.5 c 128,-1,4
 813 1472 813 1472 1041 1472 c 0,5,6
 1128 1472 1128 1472 1215 1464.5 c 128,-1,7
 1302 1457 1302 1457 1381.5 1441.5 c 128,-1,8
 1461 1426 1461 1426 1529 1400.5 c 128,-1,9
 1597 1375 1597 1375 1647.5 1339 c 128,-1,10
 1698 1303 1698 1303 1726.5 1255.5 c 128,-1,11
 1755 1208 1755 1208 1755 1148 c 0,12,13
 1755 1133 1755 1133 1752 1116.5 c 128,-1,14
 1749 1100 1749 1100 1744 1086 c 1,15,-1
 1332 1027 l 1,16,17
 1337 1042 1337 1042 1339 1058.5 c 128,-1,18
 1341 1075 1341 1075 1341 1097 c 0,19,20
 1341 1123 1341 1123 1321.5 1153 c 128,-1,21
 1302 1183 1302 1183 1263 1208 c 128,-1,22
 1224 1233 1224 1233 1166.5 1249.5 c 128,-1,23
 1109 1266 1109 1266 1034 1266 c 0,24,25
 933 1266 933 1266 861.5 1238.5 c 128,-1,26
 790 1211 790 1211 744 1156.5 c 128,-1,27
 698 1102 698 1102 677 1021 c 128,-1,28
 656 940 656 940 656 833 c 1,29,30
 703 854 703 854 760.5 870.5 c 128,-1,31
 818 887 818 887 882 898 c 128,-1,32
 946 909 946 909 1014 915 c 128,-1,33
 1082 921 1082 921 1150 921 c 0,34,35
 1231 921 1231 921 1312.5 910.5 c 128,-1,36
 1394 900 1394 900 1468.5 877 c 128,-1,37
 1543 854 1543 854 1608 819 c 128,-1,38
 1673 784 1673 784 1720.5 735.5 c 128,-1,39
 1768 687 1768 687 1795.5 624 c 128,-1,40
 1823 561 1823 561 1823 483 c 0,41,42
 1823 388 1823 388 1792 312 c 128,-1,43
 1761 236 1761 236 1705.5 178 c 128,-1,44
 1650 120 1650 120 1573.5 79 c 128,-1,45
 1497 38 1497 38 1406.5 11.5 c 128,-1,46
 1316 -15 1316 -15 1214.5 -27 c 128,-1,47
 1113 -39 1113 -39 1008 -39 c 0,48,49
 127 -39 127 -39 127 693 c 0,0,1
660 629 m 1,50,51
 663 526 663 526 685 438.5 c 128,-1,52
 707 351 707 351 749.5 287.5 c 128,-1,53
 792 224 792 224 856 188 c 128,-1,54
 920 152 920 152 1008 152 c 0,55,56
 1081 152 1081 152 1135.5 173.5 c 128,-1,57
 1190 195 1190 195 1225 233 c 128,-1,58
 1260 271 1260 271 1277.5 324.5 c 128,-1,59
 1295 378 1295 378 1295 443 c 0,60,61
 1295 504 1295 504 1275.5 552.5 c 128,-1,62
 1256 601 1256 601 1219 634.5 c 128,-1,63
 1182 668 1182 668 1128.5 686 c 128,-1,64
 1075 704 1075 704 1008 704 c 0,65,66
 928 704 928 704 836 684 c 128,-1,67
 744 664 744 664 660 629 c 1,50,51
EndSplineSet
Validated: 1
EndChar

StartChar: seven
Encoding: 55 55 65
Width: 1791
Flags: W
LayerCount: 2
Fore
SplineSet
435 98 m 0,0,1
 435 167 435 167 456.5 231.5 c 128,-1,2
 478 296 478 296 515.5 357 c 128,-1,3
 553 418 553 418 603.5 475 c 128,-1,4
 654 532 654 532 712 586.5 c 128,-1,5
 770 641 770 641 831.5 693 c 128,-1,6
 893 745 893 745 954 795 c 0,7,8
 1023 852 1023 852 1086 906.5 c 128,-1,9
 1149 961 1149 961 1197.5 1014.5 c 128,-1,10
 1246 1068 1246 1068 1276 1121 c 128,-1,11
 1306 1174 1306 1174 1309 1227 c 1,12,-1
 595 1171 l 1,13,-1
 170 791 l 1,14,-1
 200 1479 l 1,15,-1
 434 1434 l 1,16,-1
 1666 1434 l 1,17,18
 1681 1380 1681 1380 1681 1325 c 0,19,20
 1681 1255 1681 1255 1659.5 1184 c 128,-1,21
 1638 1113 1638 1113 1602 1042 c 128,-1,22
 1566 971 1566 971 1519 900.5 c 128,-1,23
 1472 830 1472 830 1421 761 c 0,24,25
 1362 681 1362 681 1305.5 602 c 128,-1,26
 1249 523 1249 523 1204.5 445 c 128,-1,27
 1160 367 1160 367 1132.5 291 c 128,-1,28
 1105 215 1105 215 1105 141 c 0,29,30
 1105 88 1105 88 1122 57 c 128,-1,31
 1139 26 1139 26 1177 0 c 1,32,-1
 459 0 l 1,33,34
 446 24 446 24 440.5 44.5 c 128,-1,35
 435 65 435 65 435 98 c 0,0,1
EndSplineSet
Validated: 1
EndChar

StartChar: eight
Encoding: 56 56 66
Width: 1878
Flags: W
LayerCount: 2
Fore
SplineSet
100 351 m 0,0,1
 100 421 100 421 134 474 c 128,-1,2
 168 527 168 527 224.5 565.5 c 128,-1,3
 281 604 281 604 354.5 629 c 128,-1,4
 428 654 428 654 507 668 c 1,5,6
 437 697 437 697 376.5 733 c 128,-1,7
 316 769 316 769 271.5 815 c 128,-1,8
 227 861 227 861 201.5 918 c 128,-1,9
 176 975 176 975 176 1046 c 0,10,11
 176 1126 176 1126 208 1188.5 c 128,-1,12
 240 1251 240 1251 295 1298.5 c 128,-1,13
 350 1346 350 1346 424 1379 c 128,-1,14
 498 1412 498 1412 582 1432.5 c 128,-1,15
 666 1453 666 1453 756 1462.5 c 128,-1,16
 846 1472 846 1472 933 1472 c 0,17,18
 1089 1472 1089 1472 1225 1449.5 c 128,-1,19
 1361 1427 1361 1427 1461.5 1382 c 128,-1,20
 1562 1337 1562 1337 1620 1268 c 128,-1,21
 1678 1199 1678 1199 1678 1106 c 0,22,23
 1678 1051 1678 1051 1655 1006 c 128,-1,24
 1632 961 1632 961 1591.5 925.5 c 128,-1,25
 1551 890 1551 890 1495.5 864 c 128,-1,26
 1440 838 1440 838 1374 821 c 1,27,28
 1456 799 1456 799 1529 766.5 c 128,-1,29
 1602 734 1602 734 1657.5 686 c 128,-1,30
 1713 638 1713 638 1745.5 573.5 c 128,-1,31
 1778 509 1778 509 1778 422 c 0,32,33
 1778 300 1778 300 1716.5 213 c 128,-1,34
 1655 126 1655 126 1543.5 69.5 c 128,-1,35
 1432 13 1432 13 1275.5 -13.5 c 128,-1,36
 1119 -40 1119 -40 929 -40 c 0,37,38
 735 -40 735 -40 581.5 -11 c 128,-1,39
 428 18 428 18 321 70 c 128,-1,40
 214 122 214 122 157 194 c 128,-1,41
 100 266 100 266 100 351 c 0,0,1
691 1079 m 0,42,43
 691 1030 691 1030 726 997.5 c 128,-1,44
 761 965 761 965 820 942.5 c 128,-1,45
 879 920 879 920 957 904.5 c 128,-1,46
 1035 889 1035 889 1121 874 c 1,47,48
 1293 921 1293 921 1293 1075 c 0,49,50
 1293 1129 1293 1129 1262.5 1165 c 128,-1,51
 1232 1201 1232 1201 1185.5 1222.5 c 128,-1,52
 1139 1244 1139 1244 1084 1252.5 c 128,-1,53
 1029 1261 1029 1261 979 1261 c 0,54,55
 916 1261 916 1261 863 1247.5 c 128,-1,56
 810 1234 810 1234 771.5 1209.5 c 128,-1,57
 733 1185 733 1185 712 1151.5 c 128,-1,58
 691 1118 691 1118 691 1079 c 0,42,43
528 420 m 0,59,60
 528 365 528 365 564 320.5 c 128,-1,61
 600 276 600 276 660 244.5 c 128,-1,62
 720 213 720 213 798.5 196 c 128,-1,63
 877 179 877 179 962 179 c 0,64,65
 1045 179 1045 179 1112 187.5 c 128,-1,66
 1179 196 1179 196 1226 216.5 c 128,-1,67
 1273 237 1273 237 1298 269.5 c 128,-1,68
 1323 302 1323 302 1323 350 c 0,69,70
 1323 384 1323 384 1294.5 411 c 128,-1,71
 1266 438 1266 438 1216.5 460 c 128,-1,72
 1167 482 1167 482 1100 500.5 c 128,-1,73
 1033 519 1033 519 957 536 c 0,74,75
 897 550 897 550 835 565.5 c 128,-1,76
 773 581 773 581 710 599 c 1,77,78
 670 587 670 587 636.5 569 c 128,-1,79
 603 551 603 551 579 528.5 c 128,-1,80
 555 506 555 506 541.5 478.5 c 128,-1,81
 528 451 528 451 528 420 c 0,59,60
EndSplineSet
Validated: 1
EndChar

StartChar: nine
Encoding: 57 57 67
Width: 1935
Flags: W
LayerCount: 2
Fore
SplineSet
167 285 m 0,0,1
 167 300 167 300 170 316.5 c 128,-1,2
 173 333 173 333 178 347 c 1,3,-1
 594 406 l 1,4,5
 590 388 590 388 587.5 372 c 128,-1,6
 585 356 585 356 585 336 c 0,7,8
 585 310 585 310 601.5 280 c 128,-1,9
 618 250 618 250 655 225 c 128,-1,10
 692 200 692 200 751.5 183.5 c 128,-1,11
 811 167 811 167 898 167 c 0,12,13
 999 167 999 167 1069 194.5 c 128,-1,14
 1139 222 1139 222 1183 276.5 c 128,-1,15
 1227 331 1227 331 1246.5 412 c 128,-1,16
 1266 493 1266 493 1266 600 c 1,17,18
 1219 579 1219 579 1163 562.5 c 128,-1,19
 1107 546 1107 546 1044.5 535 c 128,-1,20
 982 524 982 524 915.5 518 c 128,-1,21
 849 512 849 512 782 512 c 0,22,23
 701 512 701 512 619.5 522.5 c 128,-1,24
 538 533 538 533 463.5 556 c 128,-1,25
 389 579 389 579 324 614 c 128,-1,26
 259 649 259 649 211.5 697.5 c 128,-1,27
 164 746 164 746 136.5 809 c 128,-1,28
 109 872 109 872 109 950 c 0,29,30
 109 1045 109 1045 140 1121 c 128,-1,31
 171 1197 171 1197 226.5 1255 c 128,-1,32
 282 1313 282 1313 358.5 1354 c 128,-1,33
 435 1395 435 1395 525.5 1421.5 c 128,-1,34
 616 1448 616 1448 717.5 1460 c 128,-1,35
 819 1472 819 1472 924 1472 c 0,36,37
 1366 1472 1366 1472 1580.5 1289.5 c 128,-1,38
 1795 1107 1795 1107 1795 740 c 0,39,40
 1795 574 1795 574 1739 431.5 c 128,-1,41
 1683 289 1683 289 1570.5 184.5 c 128,-1,42
 1458 80 1458 80 1288.5 20.5 c 128,-1,43
 1119 -39 1119 -39 891 -39 c 0,44,45
 803 -39 803 -39 715.5 -31.5 c 128,-1,46
 628 -24 628 -24 547.5 -8.5 c 128,-1,47
 467 7 467 7 397.5 32.5 c 128,-1,48
 328 58 328 58 277 94 c 128,-1,49
 226 130 226 130 196.5 177.5 c 128,-1,50
 167 225 167 225 167 285 c 0,0,1
924 729 m 0,51,52
 1004 729 1004 729 1091 749 c 128,-1,53
 1178 769 1178 769 1262 804 c 1,54,55
 1259 907 1259 907 1238.5 992 c 128,-1,56
 1218 1077 1218 1077 1177.5 1138 c 128,-1,57
 1137 1199 1137 1199 1074.5 1233 c 128,-1,58
 1012 1267 1012 1267 924 1267 c 0,59,60
 777 1267 777 1267 707 1193 c 128,-1,61
 637 1119 637 1119 637 990 c 0,62,63
 637 929 637 929 656.5 880.5 c 128,-1,64
 676 832 676 832 713 798.5 c 128,-1,65
 750 765 750 765 803.5 747 c 128,-1,66
 857 729 857 729 924 729 c 0,51,52
EndSplineSet
Validated: 1
EndChar

StartChar: period
Encoding: 46 46 68
Width: 739
Flags: W
LayerCount: 2
Fore
SplineSet
120 210 m 256,0,1
 120 262 120 262 139.5 307.5 c 128,-1,2
 159 353 159 353 192.5 387 c 128,-1,3
 226 421 226 421 271.5 440.5 c 128,-1,4
 317 460 317 460 369 460 c 256,5,6
 421 460 421 460 466.5 440.5 c 128,-1,7
 512 421 512 421 546 387 c 128,-1,8
 580 353 580 353 599.5 307.5 c 128,-1,9
 619 262 619 262 619 210 c 256,10,11
 619 158 619 158 599.5 112.5 c 128,-1,12
 580 67 580 67 546 33.5 c 128,-1,13
 512 0 512 0 466.5 -19.5 c 128,-1,14
 421 -39 421 -39 369 -39 c 256,15,16
 317 -39 317 -39 271.5 -19.5 c 128,-1,17
 226 0 226 0 192.5 33.5 c 128,-1,18
 159 67 159 67 139.5 112.5 c 128,-1,19
 120 158 120 158 120 210 c 256,0,1
EndSplineSet
Validated: 1
EndChar

StartChar: periodcentered
Encoding: 183 183 69
Width: 739
Flags: W
LayerCount: 2
Fore
SplineSet
369 501 m 256,0,1
 317 501 317 501 271.5 520.5 c 128,-1,2
 226 540 226 540 192.5 573.5 c 128,-1,3
 159 607 159 607 139.5 652.5 c 128,-1,4
 120 698 120 698 120 750 c 256,5,6
 120 802 120 802 139.5 847.5 c 128,-1,7
 159 893 159 893 192.5 927 c 128,-1,8
 226 961 226 961 271.5 980.5 c 128,-1,9
 317 1000 317 1000 369 1000 c 256,10,11
 421 1000 421 1000 466.5 980.5 c 128,-1,12
 512 961 512 961 546 927 c 128,-1,13
 580 893 580 893 599.5 847.5 c 128,-1,14
 619 802 619 802 619 750 c 256,15,16
 619 698 619 698 599.5 652.5 c 128,-1,17
 580 607 580 607 546 573.5 c 128,-1,18
 512 540 512 540 466.5 520.5 c 128,-1,19
 421 501 421 501 369 501 c 256,0,1
EndSplineSet
Validated: 1
EndChar

StartChar: bullet
Encoding: 8226 8226 70
Width: 861
Flags: W
LayerCount: 2
Fore
SplineSet
430 445 m 0,0,1
 365 445 365 445 308.5 469.5 c 128,-1,2
 252 494 252 494 210 536 c 128,-1,3
 168 578 168 578 144 634.5 c 128,-1,4
 120 691 120 691 120 755 c 256,5,6
 120 819 120 819 144 876 c 128,-1,7
 168 933 168 933 210 975 c 128,-1,8
 252 1017 252 1017 308.5 1041.5 c 128,-1,9
 365 1066 365 1066 430 1066 c 0,10,11
 494 1066 494 1066 551 1041.5 c 128,-1,12
 608 1017 608 1017 650 975 c 128,-1,13
 692 933 692 933 716.5 876 c 128,-1,14
 741 819 741 819 741 755 c 256,15,16
 741 691 741 691 716.5 634.5 c 128,-1,17
 692 578 692 578 650 536 c 128,-1,18
 608 494 608 494 551 469.5 c 128,-1,19
 494 445 494 445 430 445 c 0,0,1
EndSplineSet
Validated: 1
EndChar

StartChar: comma
Encoding: 44 44 71
Width: 748
Flags: W
LayerCount: 2
Fore
SplineSet
120 203 m 0,0,1
 121 258 121 258 138.5 305 c 128,-1,2
 156 352 156 352 188.5 386.5 c 128,-1,3
 221 421 221 421 267 440.5 c 128,-1,4
 313 460 313 460 370 460 c 256,5,6
 427 460 427 460 474 440 c 128,-1,7
 521 420 521 420 555.5 383 c 128,-1,8
 590 346 590 346 609 294.5 c 128,-1,9
 628 243 628 243 628 180 c 0,10,11
 628 20 628 20 555 -110.5 c 128,-1,12
 482 -241 482 -241 339 -337 c 1,13,-1
 235 -278 l 1,14,15
 286 -217 286 -217 319.5 -154.5 c 128,-1,16
 353 -92 353 -92 371 -31 c 1,17,18
 366 -32 366 -32 351 -32 c 0,19,20
 303 -32 303 -32 260.5 -14.5 c 128,-1,21
 218 3 218 3 187 34.5 c 128,-1,22
 156 66 156 66 138 109 c 128,-1,23
 120 152 120 152 120 203 c 0,0,1
EndSplineSet
Validated: 1
EndChar

StartChar: colon
Encoding: 58 58 72
Width: 739
Flags: W
LayerCount: 2
Fore
SplineSet
369 647 m 256,0,1
 317 647 317 647 271.5 666.5 c 128,-1,2
 226 686 226 686 192.5 719.5 c 128,-1,3
 159 753 159 753 139.5 798.5 c 128,-1,4
 120 844 120 844 120 896 c 256,5,6
 120 948 120 948 139.5 993.5 c 128,-1,7
 159 1039 159 1039 192.5 1073 c 128,-1,8
 226 1107 226 1107 271.5 1126.5 c 128,-1,9
 317 1146 317 1146 369 1146 c 256,10,11
 421 1146 421 1146 466.5 1126.5 c 128,-1,12
 512 1107 512 1107 546 1073 c 128,-1,13
 580 1039 580 1039 599.5 993.5 c 128,-1,14
 619 948 619 948 619 896 c 256,15,16
 619 844 619 844 599.5 798.5 c 128,-1,17
 580 753 580 753 546 719.5 c 128,-1,18
 512 686 512 686 466.5 666.5 c 128,-1,19
 421 647 421 647 369 647 c 256,0,1
120 210 m 256,20,21
 120 262 120 262 139.5 307.5 c 128,-1,22
 159 353 159 353 192.5 387 c 128,-1,23
 226 421 226 421 271.5 440.5 c 128,-1,24
 317 460 317 460 369 460 c 256,25,26
 421 460 421 460 466.5 440.5 c 128,-1,27
 512 421 512 421 546 387 c 128,-1,28
 580 353 580 353 599.5 307.5 c 128,-1,29
 619 262 619 262 619 210 c 256,30,31
 619 158 619 158 599.5 112.5 c 128,-1,32
 580 67 580 67 546 33.5 c 128,-1,33
 512 0 512 0 466.5 -19.5 c 128,-1,34
 421 -39 421 -39 369 -39 c 256,35,36
 317 -39 317 -39 271.5 -19.5 c 128,-1,37
 226 0 226 0 192.5 33.5 c 128,-1,38
 159 67 159 67 139.5 112.5 c 128,-1,39
 120 158 120 158 120 210 c 256,20,21
EndSplineSet
Validated: 1
EndChar

StartChar: semicolon
Encoding: 59 59 73
Width: 748
Flags: W
LayerCount: 2
Fore
SplineSet
369 647 m 256,0,1
 317 647 317 647 271.5 666.5 c 128,-1,2
 226 686 226 686 192.5 719.5 c 128,-1,3
 159 753 159 753 139.5 798.5 c 128,-1,4
 120 844 120 844 120 896 c 256,5,6
 120 948 120 948 139.5 993.5 c 128,-1,7
 159 1039 159 1039 192.5 1073 c 128,-1,8
 226 1107 226 1107 271.5 1126.5 c 128,-1,9
 317 1146 317 1146 369 1146 c 256,10,11
 421 1146 421 1146 466.5 1126.5 c 128,-1,12
 512 1107 512 1107 546 1073 c 128,-1,13
 580 1039 580 1039 599.5 993.5 c 128,-1,14
 619 948 619 948 619 896 c 256,15,16
 619 844 619 844 599.5 798.5 c 128,-1,17
 580 753 580 753 546 719.5 c 128,-1,18
 512 686 512 686 466.5 666.5 c 128,-1,19
 421 647 421 647 369 647 c 256,0,1
120 203 m 0,20,21
 121 258 121 258 138.5 305 c 128,-1,22
 156 352 156 352 188.5 386.5 c 128,-1,23
 221 421 221 421 267 440.5 c 128,-1,24
 313 460 313 460 370 460 c 256,25,26
 427 460 427 460 474 440 c 128,-1,27
 521 420 521 420 555.5 383 c 128,-1,28
 590 346 590 346 609 294.5 c 128,-1,29
 628 243 628 243 628 180 c 0,30,31
 628 20 628 20 555 -110.5 c 128,-1,32
 482 -241 482 -241 339 -337 c 1,33,-1
 235 -278 l 1,34,35
 286 -217 286 -217 319.5 -154.5 c 128,-1,36
 353 -92 353 -92 371 -31 c 1,37,38
 366 -32 366 -32 351 -32 c 0,39,40
 303 -32 303 -32 260.5 -14.5 c 128,-1,41
 218 3 218 3 187 34.5 c 128,-1,42
 156 66 156 66 138 109 c 128,-1,43
 120 152 120 152 120 203 c 0,20,21
EndSplineSet
Validated: 1
EndChar

StartChar: exclam
Encoding: 33 33 74
Width: 739
Flags: W
LayerCount: 2
Fore
SplineSet
231 598 m 1,0,1
 223 640 223 640 214.5 702.5 c 128,-1,2
 206 765 206 765 196.5 840 c 128,-1,3
 187 915 187 915 177.5 1000.5 c 128,-1,4
 168 1086 168 1086 159.5 1174 c 128,-1,5
 151 1262 151 1262 143.5 1351 c 128,-1,6
 136 1440 136 1440 131 1522 c 1,7,-1
 608 1522 l 1,8,9
 603 1440 603 1440 595.5 1351.5 c 128,-1,10
 588 1263 588 1263 579.5 1174 c 128,-1,11
 571 1085 571 1085 561.5 1000 c 128,-1,12
 552 915 552 915 542.5 840 c 128,-1,13
 533 765 533 765 524 702.5 c 128,-1,14
 515 640 515 640 508 598 c 1,15,-1
 231 598 l 1,0,1
120 210 m 256,16,17
 120 262 120 262 139.5 307.5 c 128,-1,18
 159 353 159 353 192.5 387 c 128,-1,19
 226 421 226 421 271.5 440.5 c 128,-1,20
 317 460 317 460 369 460 c 256,21,22
 421 460 421 460 466.5 440.5 c 128,-1,23
 512 421 512 421 546 387 c 128,-1,24
 580 353 580 353 599.5 307.5 c 128,-1,25
 619 262 619 262 619 210 c 256,26,27
 619 158 619 158 599.5 112.5 c 128,-1,28
 580 67 580 67 546 33.5 c 128,-1,29
 512 0 512 0 466.5 -19.5 c 128,-1,30
 421 -39 421 -39 369 -39 c 256,31,32
 317 -39 317 -39 271.5 -19.5 c 128,-1,33
 226 0 226 0 192.5 33.5 c 128,-1,34
 159 67 159 67 139.5 112.5 c 128,-1,35
 120 158 120 158 120 210 c 256,16,17
EndSplineSet
Validated: 1
EndChar

StartChar: exclamdown
Encoding: 161 161 75
Width: 739
Flags: W
LayerCount: 2
Fore
SplineSet
370 538 m 256,0,1
 318 538 318 538 272.5 557.5 c 128,-1,2
 227 577 227 577 193 611 c 128,-1,3
 159 645 159 645 139.5 690.5 c 128,-1,4
 120 736 120 736 120 788 c 256,5,6
 120 840 120 840 139.5 885 c 128,-1,7
 159 930 159 930 193 964 c 128,-1,8
 227 998 227 998 272.5 1017.5 c 128,-1,9
 318 1037 318 1037 370 1037 c 256,10,11
 422 1037 422 1037 467 1017.5 c 128,-1,12
 512 998 512 998 546 964 c 128,-1,13
 580 930 580 930 599.5 885 c 128,-1,14
 619 840 619 840 619 788 c 256,15,16
 619 736 619 736 599.5 690.5 c 128,-1,17
 580 645 580 645 546 611 c 128,-1,18
 512 577 512 577 467 557.5 c 128,-1,19
 422 538 422 538 370 538 c 256,0,1
508 400 m 1,20,21
 515 358 515 358 524 295.5 c 128,-1,22
 533 233 533 233 542.5 158 c 128,-1,23
 552 83 552 83 561.5 -2.5 c 128,-1,24
 571 -88 571 -88 579.5 -176.5 c 128,-1,25
 588 -265 588 -265 595.5 -353.5 c 128,-1,26
 603 -442 603 -442 608 -524 c 1,27,-1
 131 -524 l 1,28,29
 136 -442 136 -442 143.5 -353 c 128,-1,30
 151 -264 151 -264 159.5 -176 c 128,-1,31
 168 -88 168 -88 177.5 -2.5 c 128,-1,32
 187 83 187 83 196.5 158 c 128,-1,33
 206 233 206 233 214.5 295 c 128,-1,34
 223 357 223 357 231 400 c 1,35,-1
 508 400 l 1,20,21
EndSplineSet
Validated: 1
EndChar

StartChar: question
Encoding: 63 63 76
Width: 1766
Flags: W
LayerCount: 2
Fore
SplineSet
690 597 m 1,0,1
 681 620 681 620 677 641.5 c 128,-1,2
 673 663 673 663 673 682 c 0,3,4
 673 728 673 728 695 762.5 c 128,-1,5
 717 797 717 797 752.5 823.5 c 128,-1,6
 788 850 788 850 833.5 871 c 128,-1,7
 879 892 879 892 926.5 910 c 128,-1,8
 974 928 974 928 1019.5 946 c 128,-1,9
 1065 964 1065 964 1100.5 985.5 c 128,-1,10
 1136 1007 1136 1007 1158 1033.5 c 128,-1,11
 1180 1060 1180 1060 1180 1096 c 0,12,13
 1180 1143 1180 1143 1154.5 1178.5 c 128,-1,14
 1129 1214 1129 1214 1087 1238 c 128,-1,15
 1045 1262 1045 1262 990.5 1274 c 128,-1,16
 936 1286 936 1286 878 1286 c 0,17,18
 808 1286 808 1286 743.5 1269.5 c 128,-1,19
 679 1253 679 1253 629.5 1217 c 128,-1,20
 580 1181 580 1181 550.5 1123 c 128,-1,21
 521 1065 521 1065 521 982 c 0,22,23
 521 962 521 962 523.5 940 c 128,-1,24
 526 918 526 918 532 895 c 1,25,-1
 134 972 l 1,26,27
 130 996 130 996 128 1019 c 128,-1,28
 126 1042 126 1042 126 1064 c 0,29,30
 126 1148 126 1148 154 1212.5 c 128,-1,31
 182 1277 182 1277 232.5 1325.5 c 128,-1,32
 283 1374 283 1374 351.5 1407.5 c 128,-1,33
 420 1441 420 1441 501.5 1461.5 c 128,-1,34
 583 1482 583 1482 673.5 1491 c 128,-1,35
 764 1500 764 1500 858 1500 c 0,36,37
 1033 1500 1033 1500 1179.5 1478 c 128,-1,38
 1326 1456 1326 1456 1431.5 1410 c 128,-1,39
 1537 1364 1537 1364 1596 1292 c 128,-1,40
 1655 1220 1655 1220 1655 1121 c 0,41,42
 1655 1051 1655 1051 1628 1000.5 c 128,-1,43
 1601 950 1601 950 1557 913.5 c 128,-1,44
 1513 877 1513 877 1456.5 851.5 c 128,-1,45
 1400 826 1400 826 1341 806 c 128,-1,46
 1282 786 1282 786 1225.5 769.5 c 128,-1,47
 1169 753 1169 753 1125 734 c 128,-1,48
 1081 715 1081 715 1054 691.5 c 128,-1,49
 1027 668 1027 668 1027 634 c 0,50,51
 1027 615 1027 615 1034 597 c 1,52,-1
 690 597 l 1,0,1
621 210 m 256,53,54
 621 262 621 262 640.5 307.5 c 128,-1,55
 660 353 660 353 693.5 387 c 128,-1,56
 727 421 727 421 772.5 440.5 c 128,-1,57
 818 460 818 460 870 460 c 256,58,59
 922 460 922 460 967.5 440.5 c 128,-1,60
 1013 421 1013 421 1047 387 c 128,-1,61
 1081 353 1081 353 1100.5 307.5 c 128,-1,62
 1120 262 1120 262 1120 210 c 256,63,64
 1120 158 1120 158 1100.5 112.5 c 128,-1,65
 1081 67 1081 67 1047 33.5 c 128,-1,66
 1013 0 1013 0 967.5 -19.5 c 128,-1,67
 922 -39 922 -39 870 -39 c 256,68,69
 818 -39 818 -39 772.5 -19.5 c 128,-1,70
 727 0 727 0 693.5 33.5 c 128,-1,71
 660 67 660 67 640.5 112.5 c 128,-1,72
 621 158 621 158 621 210 c 256,53,54
EndSplineSet
Validated: 1
EndChar

StartChar: questiondown
Encoding: 191 191 77
Width: 1766
Flags: W
LayerCount: 2
Fore
SplineSet
646 787 m 256,0,1
 646 839 646 839 665.5 884 c 128,-1,2
 685 929 685 929 719 963 c 128,-1,3
 753 997 753 997 798.5 1016.5 c 128,-1,4
 844 1036 844 1036 896 1036 c 256,5,6
 948 1036 948 1036 993 1016.5 c 128,-1,7
 1038 997 1038 997 1072 963 c 128,-1,8
 1106 929 1106 929 1125.5 884 c 128,-1,9
 1145 839 1145 839 1145 787 c 256,10,11
 1145 735 1145 735 1125.5 689.5 c 128,-1,12
 1106 644 1106 644 1072 610 c 128,-1,13
 1038 576 1038 576 993 556.5 c 128,-1,14
 948 537 948 537 896 537 c 256,15,16
 844 537 844 537 798.5 556.5 c 128,-1,17
 753 576 753 576 719 610 c 128,-1,18
 685 644 685 644 665.5 689.5 c 128,-1,19
 646 735 646 735 646 787 c 256,0,1
111 -124 m 0,20,21
 111 -54 111 -54 138 -3.5 c 128,-1,22
 165 47 165 47 209 83.5 c 128,-1,23
 253 120 253 120 309.5 145.5 c 128,-1,24
 366 171 366 171 425 191 c 128,-1,25
 484 211 484 211 540.5 227.5 c 128,-1,26
 597 244 597 244 641 263 c 128,-1,27
 685 282 685 282 712 305.5 c 128,-1,28
 739 329 739 329 739 363 c 0,29,30
 739 382 739 382 732 400 c 1,31,-1
 1076 400 l 1,32,33
 1085 377 1085 377 1089 355.5 c 128,-1,34
 1093 334 1093 334 1093 315 c 0,35,36
 1093 254 1093 254 1055.5 212.5 c 128,-1,37
 1018 171 1018 171 961.5 140.5 c 128,-1,38
 905 110 905 110 839.5 87 c 128,-1,39
 774 64 774 64 717.5 38.5 c 128,-1,40
 661 13 661 13 623.5 -19.5 c 128,-1,41
 586 -52 586 -52 586 -99 c 256,42,43
 586 -146 586 -146 611.5 -181.5 c 128,-1,44
 637 -217 637 -217 679 -241 c 128,-1,45
 721 -265 721 -265 775.5 -277 c 128,-1,46
 830 -289 830 -289 888 -289 c 0,47,48
 958 -289 958 -289 1022.5 -272.5 c 128,-1,49
 1087 -256 1087 -256 1136.5 -220 c 128,-1,50
 1186 -184 1186 -184 1215.5 -126 c 128,-1,51
 1245 -68 1245 -68 1245 15 c 0,52,53
 1245 35 1245 35 1242.5 57 c 128,-1,54
 1240 79 1240 79 1234 102 c 1,55,-1
 1632 25 l 1,56,57
 1636 1 1636 1 1638 -22 c 128,-1,58
 1640 -45 1640 -45 1640 -67 c 0,59,60
 1640 -151 1640 -151 1612 -215.5 c 128,-1,61
 1584 -280 1584 -280 1533.5 -328.5 c 128,-1,62
 1483 -377 1483 -377 1414.5 -410.5 c 128,-1,63
 1346 -444 1346 -444 1264.5 -464.5 c 128,-1,64
 1183 -485 1183 -485 1092.5 -494 c 128,-1,65
 1002 -503 1002 -503 908 -503 c 0,66,67
 733 -503 733 -503 586.5 -481 c 128,-1,68
 440 -459 440 -459 334.5 -413 c 128,-1,69
 229 -367 229 -367 170 -295 c 128,-1,70
 111 -223 111 -223 111 -124 c 0,20,21
EndSplineSet
Validated: 1
EndChar

StartChar: quoteleft
Encoding: 8216 8216 78
Width: 742
Flags: W
LayerCount: 2
Fore
SplineSet
374 1063 m 0,0,1
 323 1063 323 1063 276.5 1082.5 c 128,-1,2
 230 1102 230 1102 195.5 1138 c 128,-1,3
 161 1174 161 1174 140.5 1224.5 c 128,-1,4
 120 1275 120 1275 120 1337 c 0,5,6
 120 1418 120 1418 142 1483.5 c 128,-1,7
 164 1549 164 1549 202.5 1601.5 c 128,-1,8
 241 1654 241 1654 294 1693 c 128,-1,9
 347 1732 347 1732 409 1760 c 1,10,-1
 476 1697 l 1,11,12
 409 1658 409 1658 372.5 1612 c 128,-1,13
 336 1566 336 1566 322 1503 c 1,14,15
 336 1507 336 1507 352 1510 c 128,-1,16
 368 1513 368 1513 391 1513 c 0,17,18
 443 1513 443 1513 485.5 1498 c 128,-1,19
 528 1483 528 1483 558.5 1454.5 c 128,-1,20
 589 1426 589 1426 605.5 1384 c 128,-1,21
 622 1342 622 1342 622 1288 c 0,22,23
 622 1241 622 1241 605.5 1200 c 128,-1,24
 589 1159 589 1159 557.5 1128.5 c 128,-1,25
 526 1098 526 1098 479.5 1080.5 c 128,-1,26
 433 1063 433 1063 374 1063 c 0,0,1
EndSplineSet
Validated: 1
EndChar

StartChar: quoteright
Encoding: 8217 8217 79
Width: 742
Flags: W
LayerCount: 2
Fore
SplineSet
266 1126 m 1,0,1
 333 1165 333 1165 369.5 1211 c 128,-1,2
 406 1257 406 1257 420 1320 c 1,3,4
 406 1316 406 1316 390 1313 c 128,-1,5
 374 1310 374 1310 351 1310 c 0,6,7
 299 1310 299 1310 256.5 1325 c 128,-1,8
 214 1340 214 1340 183.5 1368.5 c 128,-1,9
 153 1397 153 1397 136.5 1439 c 128,-1,10
 120 1481 120 1481 120 1535 c 0,11,12
 120 1582 120 1582 136.5 1623 c 128,-1,13
 153 1664 153 1664 184.5 1694.5 c 128,-1,14
 216 1725 216 1725 262.5 1742.5 c 128,-1,15
 309 1760 309 1760 368 1760 c 0,16,17
 419 1760 419 1760 465.5 1740.5 c 128,-1,18
 512 1721 512 1721 546.5 1685 c 128,-1,19
 581 1649 581 1649 601.5 1598.5 c 128,-1,20
 622 1548 622 1548 622 1486 c 0,21,22
 622 1405 622 1405 600 1339.5 c 128,-1,23
 578 1274 578 1274 539.5 1221.5 c 128,-1,24
 501 1169 501 1169 448 1130 c 128,-1,25
 395 1091 395 1091 333 1063 c 1,26,-1
 266 1126 l 1,0,1
EndSplineSet
Validated: 1
EndChar

StartChar: quotedblleft
Encoding: 8220 8220 80
Width: 1342
Flags: W
LayerCount: 2
Fore
SplineSet
974 1063 m 0,0,1
 923 1063 923 1063 876.5 1082.5 c 128,-1,2
 830 1102 830 1102 795.5 1138 c 128,-1,3
 761 1174 761 1174 740.5 1224.5 c 128,-1,4
 720 1275 720 1275 720 1337 c 0,5,6
 720 1418 720 1418 742 1483.5 c 128,-1,7
 764 1549 764 1549 802.5 1601.5 c 128,-1,8
 841 1654 841 1654 894 1693 c 128,-1,9
 947 1732 947 1732 1009 1760 c 1,10,-1
 1076 1697 l 1,11,12
 1009 1658 1009 1658 972.5 1612 c 128,-1,13
 936 1566 936 1566 922 1503 c 1,14,15
 936 1507 936 1507 952 1510 c 128,-1,16
 968 1513 968 1513 991 1513 c 0,17,18
 1043 1513 1043 1513 1085.5 1498 c 128,-1,19
 1128 1483 1128 1483 1158.5 1454.5 c 128,-1,20
 1189 1426 1189 1426 1205.5 1384 c 128,-1,21
 1222 1342 1222 1342 1222 1288 c 0,22,23
 1222 1241 1222 1241 1205.5 1200 c 128,-1,24
 1189 1159 1189 1159 1157.5 1128.5 c 128,-1,25
 1126 1098 1126 1098 1079.5 1080.5 c 128,-1,26
 1033 1063 1033 1063 974 1063 c 0,0,1
374 1063 m 0,27,28
 323 1063 323 1063 276.5 1082.5 c 128,-1,29
 230 1102 230 1102 195.5 1138 c 128,-1,30
 161 1174 161 1174 140.5 1224.5 c 128,-1,31
 120 1275 120 1275 120 1337 c 0,32,33
 120 1418 120 1418 142 1483.5 c 128,-1,34
 164 1549 164 1549 202.5 1601.5 c 128,-1,35
 241 1654 241 1654 294 1693 c 128,-1,36
 347 1732 347 1732 409 1760 c 1,37,-1
 476 1697 l 1,38,39
 409 1658 409 1658 372.5 1612 c 128,-1,40
 336 1566 336 1566 322 1503 c 1,41,42
 336 1507 336 1507 352 1510 c 128,-1,43
 368 1513 368 1513 391 1513 c 0,44,45
 443 1513 443 1513 485.5 1498 c 128,-1,46
 528 1483 528 1483 558.5 1454.5 c 128,-1,47
 589 1426 589 1426 605.5 1384 c 128,-1,48
 622 1342 622 1342 622 1288 c 0,49,50
 622 1241 622 1241 605.5 1200 c 128,-1,51
 589 1159 589 1159 557.5 1128.5 c 128,-1,52
 526 1098 526 1098 479.5 1080.5 c 128,-1,53
 433 1063 433 1063 374 1063 c 0,27,28
EndSplineSet
Validated: 1
EndChar

StartChar: quotedblright
Encoding: 8221 8221 81
Width: 1342
Flags: W
LayerCount: 2
Fore
SplineSet
866 1126 m 1,0,1
 933 1165 933 1165 969.5 1211 c 128,-1,2
 1006 1257 1006 1257 1020 1320 c 1,3,4
 1006 1316 1006 1316 990 1313 c 128,-1,5
 974 1310 974 1310 951 1310 c 0,6,7
 899 1310 899 1310 856.5 1325 c 128,-1,8
 814 1340 814 1340 783.5 1368.5 c 128,-1,9
 753 1397 753 1397 736.5 1439 c 128,-1,10
 720 1481 720 1481 720 1535 c 0,11,12
 720 1582 720 1582 736.5 1623 c 128,-1,13
 753 1664 753 1664 784.5 1694.5 c 128,-1,14
 816 1725 816 1725 862.5 1742.5 c 128,-1,15
 909 1760 909 1760 968 1760 c 0,16,17
 1019 1760 1019 1760 1065.5 1740.5 c 128,-1,18
 1112 1721 1112 1721 1146.5 1685 c 128,-1,19
 1181 1649 1181 1649 1201.5 1598.5 c 128,-1,20
 1222 1548 1222 1548 1222 1486 c 0,21,22
 1222 1405 1222 1405 1200 1339.5 c 128,-1,23
 1178 1274 1178 1274 1139.5 1221.5 c 128,-1,24
 1101 1169 1101 1169 1048 1130 c 128,-1,25
 995 1091 995 1091 933 1063 c 1,26,-1
 866 1126 l 1,0,1
266 1126 m 1,27,28
 333 1165 333 1165 369.5 1211 c 128,-1,29
 406 1257 406 1257 420 1320 c 1,30,31
 406 1316 406 1316 390 1313 c 128,-1,32
 374 1310 374 1310 351 1310 c 0,33,34
 299 1310 299 1310 256.5 1325 c 128,-1,35
 214 1340 214 1340 183.5 1368.5 c 128,-1,36
 153 1397 153 1397 136.5 1439 c 128,-1,37
 120 1481 120 1481 120 1535 c 0,38,39
 120 1582 120 1582 136.5 1623 c 128,-1,40
 153 1664 153 1664 184.5 1694.5 c 128,-1,41
 216 1725 216 1725 262.5 1742.5 c 128,-1,42
 309 1760 309 1760 368 1760 c 0,43,44
 419 1760 419 1760 465.5 1740.5 c 128,-1,45
 512 1721 512 1721 546.5 1685 c 128,-1,46
 581 1649 581 1649 601.5 1598.5 c 128,-1,47
 622 1548 622 1548 622 1486 c 0,48,49
 622 1405 622 1405 600 1339.5 c 128,-1,50
 578 1274 578 1274 539.5 1221.5 c 128,-1,51
 501 1169 501 1169 448 1130 c 128,-1,52
 395 1091 395 1091 333 1063 c 1,53,-1
 266 1126 l 1,27,28
EndSplineSet
Validated: 1
EndChar

StartChar: quotesingle
Encoding: 39 39 82
Width: 628
Flags: W
LayerCount: 2
Fore
SplineSet
263 1106 m 1,0,1
 253 1132 253 1132 239 1172 c 128,-1,2
 225 1212 225 1212 210.5 1259 c 128,-1,3
 196 1306 196 1306 181.5 1356 c 128,-1,4
 167 1406 167 1406 155.5 1452 c 128,-1,5
 144 1498 144 1498 137 1536 c 128,-1,6
 130 1574 130 1574 130 1596 c 0,7,8
 130 1640 130 1640 144 1671.5 c 128,-1,9
 158 1703 158 1703 183 1723.5 c 128,-1,10
 208 1744 208 1744 241.5 1753.5 c 128,-1,11
 275 1763 275 1763 314 1763 c 256,12,13
 353 1763 353 1763 386.5 1753.5 c 128,-1,14
 420 1744 420 1744 445 1723.5 c 128,-1,15
 470 1703 470 1703 484 1671.5 c 128,-1,16
 498 1640 498 1640 498 1596 c 0,17,18
 498 1574 498 1574 491 1536 c 128,-1,19
 484 1498 484 1498 472.5 1452 c 128,-1,20
 461 1406 461 1406 446.5 1356 c 128,-1,21
 432 1306 432 1306 417.5 1259 c 128,-1,22
 403 1212 403 1212 389 1172 c 128,-1,23
 375 1132 375 1132 365 1106 c 1,24,-1
 263 1106 l 1,0,1
EndSplineSet
Validated: 1
EndChar

StartChar: quotesinglbase
Encoding: 8218 8218 83
Width: 742
Flags: W
LayerCount: 2
Fore
SplineSet
120 125 m 0,0,1
 120 172 120 172 136.5 213 c 128,-1,2
 153 254 153 254 184.5 284.5 c 128,-1,3
 216 315 216 315 262.5 332.5 c 128,-1,4
 309 350 309 350 368 350 c 0,5,6
 419 350 419 350 465.5 330.5 c 128,-1,7
 512 311 512 311 546.5 275 c 128,-1,8
 581 239 581 239 601.5 188.5 c 128,-1,9
 622 138 622 138 622 76 c 0,10,11
 622 -5 622 -5 600 -70.5 c 128,-1,12
 578 -136 578 -136 539.5 -188.5 c 128,-1,13
 501 -241 501 -241 448 -280 c 128,-1,14
 395 -319 395 -319 333 -347 c 1,15,-1
 266 -284 l 1,16,17
 333 -245 333 -245 369.5 -199 c 128,-1,18
 406 -153 406 -153 420 -90 c 1,19,20
 406 -94 406 -94 390 -97 c 128,-1,21
 374 -100 374 -100 351 -100 c 0,22,23
 299 -100 299 -100 256.5 -85 c 128,-1,24
 214 -70 214 -70 183.5 -41.5 c 128,-1,25
 153 -13 153 -13 136.5 29 c 128,-1,26
 120 71 120 71 120 125 c 0,0,1
EndSplineSet
Validated: 1
EndChar

StartChar: quotedbl
Encoding: 34 34 84
Width: 1118
Flags: W
LayerCount: 2
Fore
SplineSet
753 1106 m 1,0,1
 743 1132 743 1132 729 1172 c 128,-1,2
 715 1212 715 1212 700.5 1259 c 128,-1,3
 686 1306 686 1306 671.5 1356 c 128,-1,4
 657 1406 657 1406 645.5 1452 c 128,-1,5
 634 1498 634 1498 627 1536 c 128,-1,6
 620 1574 620 1574 620 1596 c 0,7,8
 620 1640 620 1640 634 1671.5 c 128,-1,9
 648 1703 648 1703 673 1723.5 c 128,-1,10
 698 1744 698 1744 731.5 1753.5 c 128,-1,11
 765 1763 765 1763 804 1763 c 256,12,13
 843 1763 843 1763 876.5 1753.5 c 128,-1,14
 910 1744 910 1744 935 1723.5 c 128,-1,15
 960 1703 960 1703 974 1671.5 c 128,-1,16
 988 1640 988 1640 988 1596 c 0,17,18
 988 1574 988 1574 981 1536 c 128,-1,19
 974 1498 974 1498 962.5 1452 c 128,-1,20
 951 1406 951 1406 936.5 1356 c 128,-1,21
 922 1306 922 1306 907.5 1259 c 128,-1,22
 893 1212 893 1212 879 1172 c 128,-1,23
 865 1132 865 1132 855 1106 c 1,24,-1
 753 1106 l 1,0,1
263 1106 m 1,25,26
 253 1132 253 1132 239 1172 c 128,-1,27
 225 1212 225 1212 210.5 1259 c 128,-1,28
 196 1306 196 1306 181.5 1356 c 128,-1,29
 167 1406 167 1406 155.5 1452 c 128,-1,30
 144 1498 144 1498 137 1536 c 128,-1,31
 130 1574 130 1574 130 1596 c 0,32,33
 130 1640 130 1640 144 1671.5 c 128,-1,34
 158 1703 158 1703 183 1723.5 c 128,-1,35
 208 1744 208 1744 241.5 1753.5 c 128,-1,36
 275 1763 275 1763 314 1763 c 256,37,38
 353 1763 353 1763 386.5 1753.5 c 128,-1,39
 420 1744 420 1744 445 1723.5 c 128,-1,40
 470 1703 470 1703 484 1671.5 c 128,-1,41
 498 1640 498 1640 498 1596 c 0,42,43
 498 1574 498 1574 491 1536 c 128,-1,44
 484 1498 484 1498 472.5 1452 c 128,-1,45
 461 1406 461 1406 446.5 1356 c 128,-1,46
 432 1306 432 1306 417.5 1259 c 128,-1,47
 403 1212 403 1212 389 1172 c 128,-1,48
 375 1132 375 1132 365 1106 c 1,49,-1
 263 1106 l 1,25,26
EndSplineSet
Validated: 1
EndChar

StartChar: quotedblbase
Encoding: 8222 8222 85
Width: 1342
Flags: W
LayerCount: 2
Fore
SplineSet
720 125 m 0,0,1
 720 172 720 172 736.5 213 c 128,-1,2
 753 254 753 254 784.5 284.5 c 128,-1,3
 816 315 816 315 862.5 332.5 c 128,-1,4
 909 350 909 350 968 350 c 0,5,6
 1019 350 1019 350 1065.5 330.5 c 128,-1,7
 1112 311 1112 311 1146.5 275 c 128,-1,8
 1181 239 1181 239 1201.5 188.5 c 128,-1,9
 1222 138 1222 138 1222 76 c 0,10,11
 1222 -5 1222 -5 1200 -70.5 c 128,-1,12
 1178 -136 1178 -136 1139.5 -188.5 c 128,-1,13
 1101 -241 1101 -241 1048 -280 c 128,-1,14
 995 -319 995 -319 933 -347 c 1,15,-1
 866 -284 l 1,16,17
 933 -245 933 -245 969.5 -199 c 128,-1,18
 1006 -153 1006 -153 1020 -90 c 1,19,20
 1006 -94 1006 -94 990 -97 c 128,-1,21
 974 -100 974 -100 951 -100 c 0,22,23
 899 -100 899 -100 856.5 -85 c 128,-1,24
 814 -70 814 -70 783.5 -41.5 c 128,-1,25
 753 -13 753 -13 736.5 29 c 128,-1,26
 720 71 720 71 720 125 c 0,0,1
120 125 m 0,27,28
 120 172 120 172 136.5 213 c 128,-1,29
 153 254 153 254 184.5 284.5 c 128,-1,30
 216 315 216 315 262.5 332.5 c 128,-1,31
 309 350 309 350 368 350 c 0,32,33
 419 350 419 350 465.5 330.5 c 128,-1,34
 512 311 512 311 546.5 275 c 128,-1,35
 581 239 581 239 601.5 188.5 c 128,-1,36
 622 138 622 138 622 76 c 0,37,38
 622 -5 622 -5 600 -70.5 c 128,-1,39
 578 -136 578 -136 539.5 -188.5 c 128,-1,40
 501 -241 501 -241 448 -280 c 128,-1,41
 395 -319 395 -319 333 -347 c 1,42,-1
 266 -284 l 1,43,44
 333 -245 333 -245 369.5 -199 c 128,-1,45
 406 -153 406 -153 420 -90 c 1,46,47
 406 -94 406 -94 390 -97 c 128,-1,48
 374 -100 374 -100 351 -100 c 0,49,50
 299 -100 299 -100 256.5 -85 c 128,-1,51
 214 -70 214 -70 183.5 -41.5 c 128,-1,52
 153 -13 153 -13 136.5 29 c 128,-1,53
 120 71 120 71 120 125 c 0,27,28
EndSplineSet
Validated: 1
EndChar

StartChar: guilsinglleft
Encoding: 8249 8249 86
Width: 953
Flags: W
LayerCount: 2
Fore
SplineSet
737 1121 m 1,0,-1
 863 1045 l 1,1,-1
 558 581 l 1,2,-1
 863 123 l 1,3,-1
 737 47 l 1,4,-1
 90 584 l 1,5,-1
 737 1121 l 1,0,-1
EndSplineSet
Validated: 1
EndChar

StartChar: guilsinglright
Encoding: 8250 8250 87
Width: 953
Flags: W
LayerCount: 2
Fore
SplineSet
394 581 m 1,0,-1
 90 1045 l 1,1,-1
 216 1121 l 1,2,-1
 863 584 l 1,3,-1
 216 47 l 1,4,-1
 90 123 l 1,5,-1
 394 581 l 1,0,-1
EndSplineSet
Validated: 1
EndChar

StartChar: guillemotleft
Encoding: 171 171 88
Width: 1653
Flags: W
LayerCount: 2
Fore
SplineSet
1437 1121 m 1,0,-1
 1563 1045 l 1,1,-1
 1258 581 l 1,2,-1
 1563 123 l 1,3,-1
 1437 47 l 1,4,-1
 790 584 l 1,5,-1
 1437 1121 l 1,0,-1
737 1121 m 1,6,-1
 863 1045 l 1,7,-1
 558 581 l 1,8,-1
 863 123 l 1,9,-1
 737 47 l 1,10,-1
 90 584 l 1,11,-1
 737 1121 l 1,6,-1
EndSplineSet
Validated: 1
EndChar

StartChar: guillemotright
Encoding: 187 187 89
Width: 1633
Flags: W
LayerCount: 2
Fore
SplineSet
1074 581 m 1,0,-1
 770 1045 l 1,1,-1
 896 1121 l 1,2,-1
 1543 584 l 1,3,-1
 896 47 l 1,4,-1
 770 123 l 1,5,-1
 1074 581 l 1,0,-1
394 581 m 1,6,-1
 90 1045 l 1,7,-1
 216 1121 l 1,8,-1
 863 584 l 1,9,-1
 216 47 l 1,10,-1
 90 123 l 1,11,-1
 394 581 l 1,6,-1
EndSplineSet
Validated: 1
EndChar

StartChar: onesuperior
Encoding: 185 185 90
Width: 973
Flags: W
LayerCount: 2
Fore
SplineSet
343 1172 m 1,0,-1
 343 1644 l 1,1,-1
 164 1748 l 1,2,-1
 497 1886 l 1,3,-1
 671 1886 l 1,4,-1
 671 1172 l 1,5,-1
 834 1026 l 1,6,-1
 180 1026 l 1,7,-1
 343 1172 l 1,0,-1
EndSplineSet
Validated: 1
EndChar

StartChar: twosuperior
Encoding: 178 178 91
Width: 1375
Flags: W
LayerCount: 2
Fore
SplineSet
200 1026 m 1,0,1
 185 1058 185 1058 176 1093 c 128,-1,2
 167 1128 167 1128 167 1170 c 0,3,4
 167 1241 167 1241 196.5 1289.5 c 128,-1,5
 226 1338 226 1338 274 1371 c 128,-1,6
 322 1404 322 1404 383 1424.5 c 128,-1,7
 444 1445 444 1445 508 1460 c 128,-1,8
 572 1475 572 1475 633 1488.5 c 128,-1,9
 694 1502 694 1502 742 1521 c 128,-1,10
 790 1540 790 1540 819.5 1567 c 128,-1,11
 849 1594 849 1594 849 1637 c 0,12,13
 849 1673 849 1673 835 1700 c 128,-1,14
 821 1727 821 1727 798 1745 c 128,-1,15
 775 1763 775 1763 745 1772 c 128,-1,16
 715 1781 715 1781 683 1781 c 0,17,18
 589 1781 589 1781 544.5 1739 c 128,-1,19
 500 1697 500 1697 500 1598 c 0,20,21
 500 1576 500 1576 508 1546 c 1,22,-1
 209 1592 l 1,23,24
 206 1607 206 1607 205 1620.5 c 128,-1,25
 204 1634 204 1634 204 1648 c 0,26,27
 204 1701 204 1701 225.5 1741 c 128,-1,28
 247 1781 247 1781 284 1810 c 128,-1,29
 321 1839 321 1839 371 1858 c 128,-1,30
 421 1877 421 1877 478.5 1888.5 c 128,-1,31
 536 1900 536 1900 597 1904.5 c 128,-1,32
 658 1909 658 1909 718 1909 c 0,33,34
 963 1909 963 1909 1088 1836.5 c 128,-1,35
 1213 1764 1213 1764 1213 1632 c 0,36,37
 1213 1562 1213 1562 1181 1514.5 c 128,-1,38
 1149 1467 1149 1467 1096.5 1434.5 c 128,-1,39
 1044 1402 1044 1402 976.5 1381.5 c 128,-1,40
 909 1361 909 1361 839 1346.5 c 128,-1,41
 769 1332 769 1332 701.5 1320 c 128,-1,42
 634 1308 634 1308 581.5 1292.5 c 128,-1,43
 529 1277 529 1277 497 1254.5 c 128,-1,44
 465 1232 465 1232 465 1196 c 0,45,46
 465 1194 465 1194 465.5 1190.5 c 128,-1,47
 466 1187 466 1187 466 1184 c 1,48,-1
 986 1184 l 1,49,-1
 1193 1387 l 1,50,-1
 1193 1026 l 1,51,-1
 200 1026 l 1,0,1
EndSplineSet
Validated: 1
EndChar

StartChar: threesuperior
Encoding: 179 179 92
Width: 1415
Flags: W
LayerCount: 2
Fore
SplineSet
690 1003 m 0,0,1
 631 1003 631 1003 569.5 1009.5 c 128,-1,2
 508 1016 508 1016 450.5 1030 c 128,-1,3
 393 1044 393 1044 342.5 1065 c 128,-1,4
 292 1086 292 1086 254 1115 c 128,-1,5
 216 1144 216 1144 194 1181.5 c 128,-1,6
 172 1219 172 1219 172 1265 c 0,7,8
 172 1278 172 1278 173 1292 c 128,-1,9
 174 1306 174 1306 176 1320 c 1,10,-1
 506 1320 l 1,11,12
 506 1225 506 1225 560 1177.5 c 128,-1,13
 614 1130 614 1130 711 1130 c 0,14,15
 796 1130 796 1130 840 1165.5 c 128,-1,16
 884 1201 884 1201 884 1261 c 0,17,18
 884 1303 884 1303 864.5 1330.5 c 128,-1,19
 845 1358 845 1358 808.5 1374.5 c 128,-1,20
 772 1391 772 1391 720.5 1397.5 c 128,-1,21
 669 1404 669 1404 605 1404 c 1,22,-1
 620 1500 l 1,23,24
 729 1500 729 1500 779.5 1538.5 c 128,-1,25
 830 1577 830 1577 830 1652 c 0,26,27
 830 1709 830 1709 797 1748 c 128,-1,28
 764 1787 764 1787 699 1787 c 0,29,30
 622 1787 622 1787 582.5 1743 c 128,-1,31
 543 1699 543 1699 543 1598 c 1,32,-1
 216 1598 l 1,33,34
 213 1605 213 1605 211.5 1620 c 128,-1,35
 210 1635 210 1635 210 1648 c 0,36,37
 210 1698 210 1698 232.5 1737 c 128,-1,38
 255 1776 255 1776 292.5 1805 c 128,-1,39
 330 1834 330 1834 379 1854 c 128,-1,40
 428 1874 428 1874 481 1886 c 128,-1,41
 534 1898 534 1898 588 1903.5 c 128,-1,42
 642 1909 642 1909 690 1909 c 0,43,44
 944 1909 944 1909 1078 1840.5 c 128,-1,45
 1212 1772 1212 1772 1212 1643 c 0,46,47
 1212 1613 1212 1613 1197 1588.5 c 128,-1,48
 1182 1564 1182 1564 1157.5 1545 c 128,-1,49
 1133 1526 1133 1526 1101 1512 c 128,-1,50
 1069 1498 1069 1498 1034.5 1488.5 c 128,-1,51
 1000 1479 1000 1479 966 1473 c 128,-1,52
 932 1467 932 1467 903 1464 c 1,53,54
 935 1464 935 1464 974 1461 c 128,-1,55
 1013 1458 1013 1458 1053.5 1450.5 c 128,-1,56
 1094 1443 1094 1443 1132 1429.5 c 128,-1,57
 1170 1416 1170 1416 1200 1394.5 c 128,-1,58
 1230 1373 1230 1373 1248 1342 c 128,-1,59
 1266 1311 1266 1311 1266 1270 c 0,60,61
 1266 1207 1266 1207 1223.5 1157.5 c 128,-1,62
 1181 1108 1181 1108 1104.5 1073.5 c 128,-1,63
 1028 1039 1028 1039 922 1021 c 128,-1,64
 816 1003 816 1003 690 1003 c 0,0,1
EndSplineSet
Validated: 1
EndChar

StartChar: onequarter
Encoding: 188 188 93
Width: 2400
Flags: W
LayerCount: 2
Fore
SplineSet
363 695 m 1,0,-1
 363 1257 l 1,1,-1
 164 1331 l 1,2,-1
 577 1469 l 1,3,-1
 691 1469 l 1,4,-1
 691 695 l 1,5,-1
 854 549 l 1,6,-1
 200 549 l 1,7,-1
 363 695 l 1,0,-1
1432 1434 m 1,8,-1
 1663 1434 l 1,9,-1
 828 0 l 1,10,-1
 599 0 l 1,11,-1
 1432 1434 l 1,8,-1
1186 312 m 1,12,-1
 1722 936 l 1,13,-1
 2124 936 l 1,14,-1
 2124 370 l 1,15,-1
 2319 370 l 1,16,-1
 2319 219 l 1,17,-1
 2124 219 l 1,18,-1
 2124 146 l 1,19,-1
 2287 0 l 1,20,-1
 1615 0 l 1,21,-1
 1778 146 l 1,22,-1
 1778 219 l 1,23,-1
 1186 219 l 1,24,-1
 1186 312 l 1,12,-1
1778 370 m 1,25,-1
 1778 724 l 1,26,-1
 1464 370 l 1,27,-1
 1778 370 l 1,25,-1
EndSplineSet
Validated: 1
EndChar

StartChar: onehalf
Encoding: 189 189 94
Width: 2607
Flags: W
LayerCount: 2
Fore
SplineSet
363 695 m 1,0,-1
 363 1257 l 1,1,-1
 164 1331 l 1,2,-1
 577 1469 l 1,3,-1
 691 1469 l 1,4,-1
 691 695 l 1,5,-1
 854 549 l 1,6,-1
 200 549 l 1,7,-1
 363 695 l 1,0,-1
1460 1434 m 1,8,-1
 1691 1434 l 1,9,-1
 856 0 l 1,10,-1
 627 0 l 1,11,-1
 1460 1434 l 1,8,-1
1399 144 m 0,12,13
 1399 215 1399 215 1428.5 265.5 c 128,-1,14
 1458 316 1458 316 1506 352.5 c 128,-1,15
 1554 389 1554 389 1615 414 c 128,-1,16
 1676 439 1676 439 1740 459 c 128,-1,17
 1804 479 1804 479 1865 497 c 128,-1,18
 1926 515 1926 515 1974 537 c 128,-1,19
 2022 559 2022 559 2051.5 588.5 c 128,-1,20
 2081 618 2081 618 2081 661 c 0,21,22
 2081 697 2081 697 2067 724 c 128,-1,23
 2053 751 2053 751 2030 769 c 128,-1,24
 2007 787 2007 787 1977 796 c 128,-1,25
 1947 805 1947 805 1915 805 c 0,26,27
 1822 805 1822 805 1780 762.5 c 128,-1,28
 1738 720 1738 720 1738 622 c 0,29,30
 1738 600 1738 600 1746 570 c 1,31,-1
 1431 616 l 1,32,33
 1428 631 1428 631 1427 644.5 c 128,-1,34
 1426 658 1426 658 1426 672 c 0,35,36
 1426 725 1426 725 1448 765 c 128,-1,37
 1470 805 1470 805 1508.5 834 c 128,-1,38
 1547 863 1547 863 1598.5 882 c 128,-1,39
 1650 901 1650 901 1708 912.5 c 128,-1,40
 1766 924 1766 924 1828 928.5 c 128,-1,41
 1890 933 1890 933 1950 933 c 0,42,43
 2195 933 2195 933 2320 860.5 c 128,-1,44
 2445 788 2445 788 2445 656 c 0,45,46
 2445 586 2445 586 2415.5 536 c 128,-1,47
 2386 486 2386 486 2338 450 c 128,-1,48
 2290 414 2290 414 2228.5 389.5 c 128,-1,49
 2167 365 2167 365 2103 345.5 c 128,-1,50
 2039 326 2039 326 1977.5 309.5 c 128,-1,51
 1916 293 1916 293 1868 274 c 128,-1,52
 1820 255 1820 255 1790.5 230.5 c 128,-1,53
 1761 206 1761 206 1761 170 c 0,54,55
 1761 168 1761 168 1761.5 164.5 c 128,-1,56
 1762 161 1762 161 1762 158 c 1,57,-1
 2181 158 l 1,58,-1
 2425 361 l 1,59,-1
 2425 0 l 1,60,-1
 1432 0 l 1,61,62
 1417 32 1417 32 1408 67 c 128,-1,63
 1399 102 1399 102 1399 144 c 0,12,13
EndSplineSet
Validated: 1
EndChar

StartChar: threequarters
Encoding: 190 190 95
Width: 2744
Flags: W
LayerCount: 2
Fore
SplineSet
189 812 m 0,0,1
 189 825 189 825 190 839 c 128,-1,2
 191 853 191 853 193 867 c 1,3,-1
 506 867 l 1,4,5
 506 820 506 820 521.5 782 c 128,-1,6
 537 744 537 744 565.5 717.5 c 128,-1,7
 594 691 594 691 633.5 676.5 c 128,-1,8
 673 662 673 662 721 662 c 0,9,10
 806 662 806 662 850 697.5 c 128,-1,11
 894 733 894 733 894 793 c 0,12,13
 894 835 894 835 874.5 865.5 c 128,-1,14
 855 896 855 896 818.5 916.5 c 128,-1,15
 782 937 782 937 730.5 946.5 c 128,-1,16
 679 956 679 956 615 956 c 1,17,-1
 630 1062 l 1,18,19
 738 1062 738 1062 789 1107.5 c 128,-1,20
 840 1153 840 1153 840 1228 c 0,21,22
 840 1285 840 1285 807 1324 c 128,-1,23
 774 1363 774 1363 709 1363 c 0,24,25
 632 1363 632 1363 587.5 1318.5 c 128,-1,26
 543 1274 543 1274 543 1174 c 1,27,-1
 243 1174 l 1,28,29
 240 1181 240 1181 238.5 1196 c 128,-1,30
 237 1211 237 1211 237 1224 c 0,31,32
 237 1275 237 1275 257.5 1313.5 c 128,-1,33
 278 1352 278 1352 312.5 1381 c 128,-1,34
 347 1410 347 1410 392.5 1430 c 128,-1,35
 438 1450 438 1450 488 1462 c 128,-1,36
 538 1474 538 1474 590 1479.5 c 128,-1,37
 642 1485 642 1485 690 1485 c 0,38,39
 816 1485 816 1485 913 1466.5 c 128,-1,40
 1010 1448 1010 1448 1075.5 1414.5 c 128,-1,41
 1141 1381 1141 1381 1174.5 1332.5 c 128,-1,42
 1208 1284 1208 1284 1208 1224 c 0,43,44
 1208 1179 1208 1179 1176.5 1144 c 128,-1,45
 1145 1109 1145 1109 1099 1084.5 c 128,-1,46
 1053 1060 1053 1060 999.5 1045.5 c 128,-1,47
 946 1031 946 1031 903 1027 c 1,48,49
 935 1027 935 1027 972.5 1022 c 128,-1,50
 1010 1017 1010 1017 1048 1005.5 c 128,-1,51
 1086 994 1086 994 1122 976.5 c 128,-1,52
 1158 959 1158 959 1185.5 934 c 128,-1,53
 1213 909 1213 909 1229.5 876 c 128,-1,54
 1246 843 1246 843 1246 802 c 0,55,56
 1246 739 1246 739 1206.5 689.5 c 128,-1,57
 1167 640 1167 640 1094.5 605.5 c 128,-1,58
 1022 571 1022 571 919 553 c 128,-1,59
 816 535 816 535 690 535 c 0,60,61
 601 535 601 535 512 550 c 128,-1,62
 423 565 423 565 351 598 c 128,-1,63
 279 631 279 631 234 683.5 c 128,-1,64
 189 736 189 736 189 812 c 0,0,1
1740 1434 m 1,65,-1
 1971 1434 l 1,66,-1
 1136 0 l 1,67,-1
 907 0 l 1,68,-1
 1740 1434 l 1,65,-1
1509 312 m 1,69,-1
 2045 936 l 1,70,-1
 2447 936 l 1,71,-1
 2447 370 l 1,72,-1
 2642 370 l 1,73,-1
 2642 219 l 1,74,-1
 2447 219 l 1,75,-1
 2447 146 l 1,76,-1
 2610 0 l 1,77,-1
 1938 0 l 1,78,-1
 2101 146 l 1,79,-1
 2101 219 l 1,80,-1
 1509 219 l 1,81,-1
 1509 312 l 1,69,-1
2101 370 m 1,82,-1
 2101 724 l 1,83,-1
 1787 370 l 1,84,-1
 2101 370 l 1,82,-1
EndSplineSet
Validated: 1
EndChar

StartChar: ordfeminine
Encoding: 170 170 96
Width: 1350
Flags: W
LayerCount: 2
Fore
SplineSet
444 884 m 256,0,1
 398 884 398 884 346.5 896 c 128,-1,2
 295 908 295 908 251.5 936 c 128,-1,3
 208 964 208 964 179 1010.5 c 128,-1,4
 150 1057 150 1057 150 1126 c 0,5,6
 150 1185 150 1185 172 1228.5 c 128,-1,7
 194 1272 194 1272 231 1303 c 128,-1,8
 268 1334 268 1334 317.5 1353 c 128,-1,9
 367 1372 367 1372 422 1383 c 128,-1,10
 477 1394 477 1394 534.5 1398 c 128,-1,11
 592 1402 592 1402 645 1402 c 0,12,13
 674 1402 674 1402 707.5 1401 c 128,-1,14
 741 1400 741 1400 774 1398 c 1,15,16
 772 1447 772 1447 764.5 1485.5 c 128,-1,17
 757 1524 757 1524 741 1550.5 c 128,-1,18
 725 1577 725 1577 698.5 1590.5 c 128,-1,19
 672 1604 672 1604 631 1604 c 0,20,21
 603 1604 603 1604 576 1596.5 c 128,-1,22
 549 1589 549 1589 526.5 1572 c 128,-1,23
 504 1555 504 1555 488 1527.5 c 128,-1,24
 472 1500 472 1500 467 1460 c 1,25,-1
 180 1507 l 1,26,27
 180 1557 180 1557 201.5 1596 c 128,-1,28
 223 1635 223 1635 259.5 1663.5 c 128,-1,29
 296 1692 296 1692 344 1711.5 c 128,-1,30
 392 1731 392 1731 445 1743.5 c 128,-1,31
 498 1756 498 1756 552.5 1761 c 128,-1,32
 607 1766 607 1766 657 1766 c 0,33,34
 750 1766 750 1766 831.5 1750 c 128,-1,35
 913 1734 913 1734 974 1691.5 c 128,-1,36
 1035 1649 1035 1649 1070 1575 c 128,-1,37
 1105 1501 1105 1501 1105 1385 c 2,38,-1
 1105 1123 l 2,39,40
 1105 1063 1105 1063 1129.5 1040 c 128,-1,41
 1154 1017 1154 1017 1199 1017 c 1,42,-1
 1199 929 l 1,43,44
 1186 915 1186 915 1136.5 899.5 c 128,-1,45
 1087 884 1087 884 1009 884 c 0,46,47
 962 884 962 884 925 889 c 128,-1,48
 888 894 888 894 860 907.5 c 128,-1,49
 832 921 832 921 813.5 944.5 c 128,-1,50
 795 968 795 968 785 1004 c 1,51,52
 754 972 754 972 714 949.5 c 128,-1,53
 674 927 674 927 629.5 912.5 c 128,-1,54
 585 898 585 898 537.5 891 c 128,-1,55
 490 884 490 884 444 884 c 256,0,1
604 1051 m 256,56,57
 627 1051 627 1051 656 1057.5 c 128,-1,58
 685 1064 685 1064 710.5 1078.5 c 128,-1,59
 736 1093 736 1093 754 1117 c 128,-1,60
 772 1141 772 1141 775 1176 c 1,61,-1
 775 1273 l 1,62,-1
 743 1273 l 2,63,64
 609 1273 609 1273 551 1242 c 128,-1,65
 493 1211 493 1211 493 1156 c 0,66,67
 493 1136 493 1136 502 1117 c 128,-1,68
 511 1098 511 1098 526 1083.5 c 128,-1,69
 541 1069 541 1069 561 1060 c 128,-1,70
 581 1051 581 1051 604 1051 c 256,56,57
EndSplineSet
Validated: 1
EndChar

StartChar: ordmasculine
Encoding: 186 186 97
Width: 1350
Flags: W
LayerCount: 2
Fore
SplineSet
676 884 m 0,0,1
 559 884 559 884 460 909.5 c 128,-1,2
 361 935 361 935 289 989 c 128,-1,3
 217 1043 217 1043 176 1126 c 128,-1,4
 135 1209 135 1209 135 1324 c 0,5,6
 135 1438 135 1438 176 1521.5 c 128,-1,7
 217 1605 217 1605 289 1659.5 c 128,-1,8
 361 1714 361 1714 460 1740 c 128,-1,9
 559 1766 559 1766 676 1766 c 0,10,11
 792 1766 792 1766 890.5 1740 c 128,-1,12
 989 1714 989 1714 1061 1659.5 c 128,-1,13
 1133 1605 1133 1605 1173.5 1521.5 c 128,-1,14
 1214 1438 1214 1438 1214 1324 c 0,15,16
 1214 1209 1214 1209 1173.5 1126 c 128,-1,17
 1133 1043 1133 1043 1061 989 c 128,-1,18
 989 935 989 935 890.5 909.5 c 128,-1,19
 792 884 792 884 676 884 c 0,0,1
676 1034 m 0,20,21
 715 1034 715 1034 750 1053.5 c 128,-1,22
 785 1073 785 1073 811 1110.5 c 128,-1,23
 837 1148 837 1148 852.5 1202 c 128,-1,24
 868 1256 868 1256 868 1324 c 0,25,26
 868 1393 868 1393 852.5 1447.5 c 128,-1,27
 837 1502 837 1502 811 1540 c 128,-1,28
 785 1578 785 1578 750 1598 c 128,-1,29
 715 1618 715 1618 676 1618 c 0,30,31
 635 1618 635 1618 599.5 1598 c 128,-1,32
 564 1578 564 1578 538 1540 c 128,-1,33
 512 1502 512 1502 496.5 1447.5 c 128,-1,34
 481 1393 481 1393 481 1324 c 0,35,36
 481 1256 481 1256 496.5 1202 c 128,-1,37
 512 1148 512 1148 538 1110.5 c 128,-1,38
 564 1073 564 1073 599.5 1053.5 c 128,-1,39
 635 1034 635 1034 676 1034 c 0,20,21
EndSplineSet
Validated: 1
EndChar

StartChar: degree
Encoding: 176 176 98
Width: 940
Flags: W
LayerCount: 2
Fore
SplineSet
469 981 m 256,0,1
 385 981 385 981 311 1013 c 128,-1,2
 237 1045 237 1045 182 1100 c 128,-1,3
 127 1155 127 1155 95 1229 c 128,-1,4
 63 1303 63 1303 63 1387 c 256,5,6
 63 1471 63 1471 95 1545.5 c 128,-1,7
 127 1620 127 1620 182 1675.5 c 128,-1,8
 237 1731 237 1731 311 1763 c 128,-1,9
 385 1795 385 1795 469 1795 c 256,10,11
 553 1795 553 1795 627.5 1763 c 128,-1,12
 702 1731 702 1731 757.5 1675.5 c 128,-1,13
 813 1620 813 1620 845 1545.5 c 128,-1,14
 877 1471 877 1471 877 1387 c 256,15,16
 877 1303 877 1303 845 1229 c 128,-1,17
 813 1155 813 1155 757.5 1100 c 128,-1,18
 702 1045 702 1045 627.5 1013 c 128,-1,19
 553 981 553 981 469 981 c 256,0,1
469 1172 m 0,20,21
 514 1172 514 1172 553.5 1189 c 128,-1,22
 593 1206 593 1206 622.5 1235 c 128,-1,23
 652 1264 652 1264 669 1303.5 c 128,-1,24
 686 1343 686 1343 686 1387 c 0,25,26
 686 1432 686 1432 669 1471.5 c 128,-1,27
 652 1511 652 1511 622.5 1540.5 c 128,-1,28
 593 1570 593 1570 553.5 1587 c 128,-1,29
 514 1604 514 1604 469 1604 c 0,30,31
 425 1604 425 1604 385.5 1587 c 128,-1,32
 346 1570 346 1570 317 1540.5 c 128,-1,33
 288 1511 288 1511 271 1471.5 c 128,-1,34
 254 1432 254 1432 254 1387 c 0,35,36
 254 1343 254 1343 271 1303.5 c 128,-1,37
 288 1264 288 1264 317 1235 c 128,-1,38
 346 1206 346 1206 385.5 1189 c 128,-1,39
 425 1172 425 1172 469 1172 c 0,20,21
EndSplineSet
Validated: 1
EndChar

StartChar: less
Encoding: 60 60 99
Width: 982
Flags: W
LayerCount: 2
Fore
SplineSet
132 730 m 1,0,-1
 668 1266 l 1,1,-1
 839 1094 l 1,2,-1
 475 730 l 1,3,-1
 839 366 l 1,4,-1
 668 195 l 1,5,-1
 132 730 l 1,0,-1
EndSplineSet
Validated: 1
EndChar

StartChar: greater
Encoding: 62 62 100
Width: 982
Flags: W
LayerCount: 2
Fore
SplineSet
143 366 m 1,0,-1
 507 730 l 1,1,-1
 143 1094 l 1,2,-1
 314 1266 l 1,3,-1
 850 730 l 1,4,-1
 314 195 l 1,5,-1
 143 366 l 1,0,-1
EndSplineSet
Validated: 1
EndChar

StartChar: plus
Encoding: 43 43 101
Width: 1294
Flags: W
LayerCount: 2
Fore
SplineSet
526 609 m 1,0,-1
 143 609 l 1,1,-1
 143 851 l 1,2,-1
 526 851 l 1,3,-1
 526 1234 l 1,4,-1
 768 1234 l 1,5,-1
 768 851 l 1,6,-1
 1151 851 l 1,7,-1
 1151 609 l 1,8,-1
 768 609 l 1,9,-1
 768 227 l 1,10,-1
 526 227 l 1,11,-1
 526 609 l 1,0,-1
EndSplineSet
Validated: 1
EndChar

StartChar: plusminus
Encoding: 177 177 102
Width: 1294
Flags: W
LayerCount: 2
Fore
SplineSet
526 719 m 1,0,-1
 143 719 l 1,1,-1
 143 961 l 1,2,-1
 526 961 l 1,3,-1
 526 1344 l 1,4,-1
 768 1344 l 1,5,-1
 768 961 l 1,6,-1
 1151 961 l 1,7,-1
 1151 719 l 1,8,-1
 768 719 l 1,9,-1
 768 337 l 1,10,-1
 526 337 l 1,11,-1
 526 719 l 1,0,-1
143 242 m 1,12,-1
 1151 242 l 1,13,-1
 1151 0 l 1,14,-1
 143 0 l 1,15,-1
 143 242 l 1,12,-1
EndSplineSet
Validated: 1
EndChar

StartChar: hyphen
Encoding: 45 45 103
Width: 1294
Flags: W
LayerCount: 2
Fore
SplineSet
143 851 m 1,0,-1
 1151 851 l 1,1,-1
 1151 609 l 1,2,-1
 143 609 l 1,3,-1
 143 851 l 1,0,-1
EndSplineSet
Validated: 1
EndChar

StartChar: equal
Encoding: 61 61 104
Width: 1294
Flags: W
LayerCount: 2
Fore
SplineSet
143 1071 m 1,0,-1
 1151 1071 l 1,1,-1
 1151 829 l 1,2,-1
 143 829 l 1,3,-1
 143 1071 l 1,0,-1
143 521 m 1,4,-1
 1151 521 l 1,5,-1
 1151 279 l 1,6,-1
 143 279 l 1,7,-1
 143 521 l 1,4,-1
EndSplineSet
Validated: 1
EndChar

StartChar: multiply
Encoding: 215 215 105
Width: 1247
Flags: W
LayerCount: 2
Fore
SplineSet
143 366 m 1,0,-1
 452 675 l 1,1,-1
 143 985 l 1,2,-1
 315 1156 l 1,3,-1
 624 847 l 1,4,-1
 933 1156 l 1,5,-1
 1104 985 l 1,6,-1
 795 675 l 1,7,-1
 1104 366 l 1,8,-1
 933 195 l 1,9,-1
 624 504 l 1,10,-1
 315 195 l 1,11,-1
 143 366 l 1,0,-1
EndSplineSet
Validated: 1
EndChar

StartChar: divide
Encoding: 247 247 106
Width: 1294
Flags: W
LayerCount: 2
Fore
SplineSet
660 891 m 256,0,1
 618 891 618 891 580.5 907 c 128,-1,2
 543 923 543 923 515 950.5 c 128,-1,3
 487 978 487 978 471 1015.5 c 128,-1,4
 455 1053 455 1053 455 1096 c 0,5,6
 455 1138 455 1138 471 1175.5 c 128,-1,7
 487 1213 487 1213 515 1241 c 128,-1,8
 543 1269 543 1269 580.5 1285 c 128,-1,9
 618 1301 618 1301 660 1301 c 256,10,11
 702 1301 702 1301 739.5 1285 c 128,-1,12
 777 1269 777 1269 805 1241 c 128,-1,13
 833 1213 833 1213 849.5 1175.5 c 128,-1,14
 866 1138 866 1138 866 1096 c 0,15,16
 866 1053 866 1053 849.5 1015.5 c 128,-1,17
 833 978 833 978 805 950.5 c 128,-1,18
 777 923 777 923 739.5 907 c 128,-1,19
 702 891 702 891 660 891 c 256,0,1
143 781 m 1,20,-1
 1151 781 l 1,21,-1
 1151 539 l 1,22,-1
 143 539 l 1,23,-1
 143 781 l 1,20,-1
455 223 m 0,24,25
 455 266 455 266 471 303.5 c 128,-1,26
 487 341 487 341 515 369 c 128,-1,27
 543 397 543 397 580.5 413 c 128,-1,28
 618 429 618 429 660 429 c 256,29,30
 702 429 702 429 739.5 413 c 128,-1,31
 777 397 777 397 805 369 c 128,-1,32
 833 341 833 341 849.5 303.5 c 128,-1,33
 866 266 866 266 866 223 c 0,34,35
 866 181 866 181 849.5 143.5 c 128,-1,36
 833 106 833 106 805 78.5 c 128,-1,37
 777 51 777 51 739.5 35 c 128,-1,38
 702 19 702 19 660 19 c 256,39,40
 618 19 618 19 580.5 35 c 128,-1,41
 543 51 543 51 515 78.5 c 128,-1,42
 487 106 487 106 471 143.5 c 128,-1,43
 455 181 455 181 455 223 c 0,24,25
EndSplineSet
Validated: 1
EndChar

StartChar: logicalnot
Encoding: 172 172 107
Width: 1404
Flags: W
LayerCount: 2
Fore
SplineSet
143 1234 m 1,0,-1
 1254 1234 l 1,1,-1
 1254 667 l 1,2,-1
 1012 667 l 1,3,-1
 1012 992 l 1,4,-1
 143 992 l 1,5,-1
 143 1234 l 1,0,-1
EndSplineSet
Validated: 1
EndChar

StartChar: mu
Encoding: 181 181 108
AltUni2: 0003bc.ffffffff.0
Width: 1932
Flags: W
LayerCount: 2
Fore
SplineSet
220 1077 m 1,0,-1
 687 1120 l 1,1,-1
 687 576 l 2,2,3
 687 492 687 492 700 424.5 c 128,-1,4
 713 357 713 357 741.5 309.5 c 128,-1,5
 770 262 770 262 815 237 c 128,-1,6
 860 212 860 212 925 212 c 0,7,8
 988 212 988 212 1031.5 235 c 128,-1,9
 1075 258 1075 258 1102 298.5 c 128,-1,10
 1129 339 1129 339 1141 394 c 128,-1,11
 1153 449 1153 449 1153 513 c 2,12,-1
 1153 1077 l 1,13,-1
 1630 1120 l 1,14,-1
 1630 237 l 1,15,-1
 1892 83 l 1,16,-1
 1253 -17 l 1,17,-1
 1173 156 l 1,18,19
 1148 114 1148 114 1117.5 84.5 c 128,-1,20
 1087 55 1087 55 1052.5 36.5 c 128,-1,21
 1018 18 1018 18 980.5 9 c 128,-1,22
 943 0 943 0 905 0 c 0,23,24
 832 0 832 0 776 19.5 c 128,-1,25
 720 39 720 39 687 92 c 1,26,-1
 687 -436 l 1,27,-1
 220 -436 l 1,28,-1
 220 1077 l 1,0,-1
EndSplineSet
Validated: 1
EndChar

StartChar: percent
Encoding: 37 37 109
Width: 2029
Flags: W
LayerCount: 2
Fore
SplineSet
525 771 m 256,0,1
 453 771 453 771 380.5 791 c 128,-1,2
 308 811 308 811 250 853 c 128,-1,3
 192 895 192 895 156 961.5 c 128,-1,4
 120 1028 120 1028 120 1121 c 0,5,6
 120 1213 120 1213 156 1279.5 c 128,-1,7
 192 1346 192 1346 250 1388.5 c 128,-1,8
 308 1431 308 1431 380.5 1451.5 c 128,-1,9
 453 1472 453 1472 525 1472 c 256,10,11
 597 1472 597 1472 669.5 1451.5 c 128,-1,12
 742 1431 742 1431 800 1388.5 c 128,-1,13
 858 1346 858 1346 894.5 1279.5 c 128,-1,14
 931 1213 931 1213 931 1121 c 256,15,16
 931 1029 931 1029 894.5 963 c 128,-1,17
 858 897 858 897 800 854.5 c 128,-1,18
 742 812 742 812 669.5 791.5 c 128,-1,19
 597 771 597 771 525 771 c 256,0,1
1409 1434 m 1,20,-1
 1720 1434 l 1,21,-1
 615 0 l 1,22,-1
 306 0 l 1,23,-1
 1409 1434 l 1,20,-1
525 898 m 0,24,25
 597 898 597 898 631.5 956 c 128,-1,26
 666 1014 666 1014 666 1121 c 0,27,28
 666 1231 666 1231 633.5 1290.5 c 128,-1,29
 601 1350 601 1350 525 1350 c 0,30,31
 452 1350 452 1350 418 1290.5 c 128,-1,32
 384 1231 384 1231 384 1121 c 0,33,34
 384 1012 384 1012 418 955 c 128,-1,35
 452 898 452 898 525 898 c 0,24,25
1098 311 m 0,36,37
 1098 403 1098 403 1134 469.5 c 128,-1,38
 1170 536 1170 536 1228 578.5 c 128,-1,39
 1286 621 1286 621 1358.5 641.5 c 128,-1,40
 1431 662 1431 662 1503 662 c 256,41,42
 1575 662 1575 662 1647.5 641.5 c 128,-1,43
 1720 621 1720 621 1778 578.5 c 128,-1,44
 1836 536 1836 536 1872.5 469.5 c 128,-1,45
 1909 403 1909 403 1909 311 c 256,46,47
 1909 219 1909 219 1872.5 153 c 128,-1,48
 1836 87 1836 87 1778 44.5 c 128,-1,49
 1720 2 1720 2 1647.5 -18.5 c 128,-1,50
 1575 -39 1575 -39 1503 -39 c 256,51,52
 1431 -39 1431 -39 1358.5 -19 c 128,-1,53
 1286 1 1286 1 1228 43 c 128,-1,54
 1170 85 1170 85 1134 151.5 c 128,-1,55
 1098 218 1098 218 1098 311 c 0,36,37
1362 311 m 0,56,57
 1362 202 1362 202 1396 145 c 128,-1,58
 1430 88 1430 88 1503 88 c 0,59,60
 1575 88 1575 88 1609.5 146 c 128,-1,61
 1644 204 1644 204 1644 311 c 0,62,63
 1644 421 1644 421 1611.5 480.5 c 128,-1,64
 1579 540 1579 540 1503 540 c 0,65,66
 1430 540 1430 540 1396 480.5 c 128,-1,67
 1362 421 1362 421 1362 311 c 0,56,57
EndSplineSet
Validated: 1
EndChar

StartChar: numbersign
Encoding: 35 35 110
Width: 1908
Flags: W
LayerCount: 2
Fore
SplineSet
453 370 m 1,0,-1
 130 370 l 1,1,-1
 130 578 l 1,2,-1
 511 578 l 1,3,-1
 590 860 l 1,4,-1
 223 860 l 1,5,-1
 223 1068 l 1,6,-1
 649 1068 l 1,7,-1
 752 1434 l 1,8,-1
 973 1434 l 1,9,-1
 869 1068 l 1,10,-1
 1199 1068 l 1,11,-1
 1302 1434 l 1,12,-1
 1523 1434 l 1,13,-1
 1419 1068 l 1,14,-1
 1763 1068 l 1,15,-1
 1763 860 l 1,16,-1
 1360 860 l 1,17,-1
 1281 578 l 1,18,-1
 1670 578 l 1,19,-1
 1670 370 l 1,20,-1
 1222 370 l 1,21,-1
 1118 0 l 1,22,-1
 899 0 l 1,23,-1
 1003 370 l 1,24,-1
 672 370 l 1,25,-1
 568 0 l 1,26,-1
 349 0 l 1,27,-1
 453 370 l 1,0,-1
1061 578 m 1,28,-1
 1140 860 l 1,29,-1
 810 860 l 1,30,-1
 731 578 l 1,31,-1
 1061 578 l 1,28,-1
EndSplineSet
Validated: 1
EndChar

StartChar: asterisk
Encoding: 42 42 111
Width: 938
Flags: W
LayerCount: 2
Fore
SplineSet
468 931 m 0,0,1
 442 931 442 931 418 939 c 128,-1,2
 394 947 394 947 375.5 962 c 128,-1,3
 357 977 357 977 345.5 998 c 128,-1,4
 334 1019 334 1019 334 1046 c 0,5,6
 334 1057 334 1057 344 1092.5 c 128,-1,7
 354 1128 354 1128 368.5 1174 c 128,-1,8
 383 1220 383 1220 399.5 1269.5 c 128,-1,9
 416 1319 416 1319 430 1359 c 1,10,11
 402 1327 402 1327 367.5 1287.5 c 128,-1,12
 333 1248 333 1248 300.5 1212.5 c 128,-1,13
 268 1177 268 1177 243 1151 c 128,-1,14
 218 1125 218 1125 209 1120 c 0,15,16
 195 1112 195 1112 181.5 1108.5 c 128,-1,17
 168 1105 168 1105 154 1105 c 0,18,19
 119 1105 119 1105 89 1125.5 c 128,-1,20
 59 1146 59 1146 40 1178 c 0,21,22
 20 1212 20 1212 20 1254 c 0,23,24
 20 1283 20 1283 33 1309.5 c 128,-1,25
 46 1336 46 1336 74 1353 c 0,26,27
 83 1358 83 1358 118.5 1367 c 128,-1,28
 154 1376 154 1376 200.5 1386.5 c 128,-1,29
 247 1397 247 1397 298 1407 c 128,-1,30
 349 1417 349 1417 391 1425 c 1,31,32
 349 1433 349 1433 298 1443 c 128,-1,33
 247 1453 247 1453 200 1463.5 c 128,-1,34
 153 1474 153 1474 118 1483 c 128,-1,35
 83 1492 83 1492 74 1498 c 0,36,37
 45 1514 45 1514 32 1540 c 128,-1,38
 19 1566 19 1566 19 1595 c 0,39,40
 19 1636 19 1636 40 1672 c 0,41,42
 58 1704 58 1704 89 1725 c 128,-1,43
 120 1746 120 1746 155 1746 c 0,44,45
 182 1746 182 1746 208 1731 c 0,46,47
 217 1726 217 1726 242.5 1700 c 128,-1,48
 268 1674 268 1674 300.5 1638.5 c 128,-1,49
 333 1603 333 1603 367.5 1563.5 c 128,-1,50
 402 1524 402 1524 430 1492 c 1,51,52
 416 1532 416 1532 399 1581.5 c 128,-1,53
 382 1631 382 1631 367.5 1677 c 128,-1,54
 353 1723 353 1723 343.5 1758 c 128,-1,55
 334 1793 334 1793 334 1804 c 0,56,57
 334 1831 334 1831 345.5 1852.5 c 128,-1,58
 357 1874 357 1874 375.5 1889 c 128,-1,59
 394 1904 394 1904 418 1912 c 128,-1,60
 442 1920 442 1920 468 1920 c 0,61,62
 493 1920 493 1920 517.5 1912 c 128,-1,63
 542 1904 542 1904 561.5 1889 c 128,-1,64
 581 1874 581 1874 592.5 1852.5 c 128,-1,65
 604 1831 604 1831 604 1804 c 0,66,67
 604 1793 604 1793 594 1757.5 c 128,-1,68
 584 1722 584 1722 569.5 1676.5 c 128,-1,69
 555 1631 555 1631 538 1581.5 c 128,-1,70
 521 1532 521 1532 507 1492 c 1,71,72
 535 1524 535 1524 569.5 1563.5 c 128,-1,73
 604 1603 604 1603 636 1639 c 128,-1,74
 668 1675 668 1675 693.5 1701 c 128,-1,75
 719 1727 719 1727 729 1733 c 0,76,77
 742 1741 742 1741 755 1744 c 128,-1,78
 768 1747 768 1747 780 1747 c 0,79,80
 816 1747 816 1747 847 1726 c 128,-1,81
 878 1705 878 1705 896 1673 c 0,82,83
 917 1635 917 1635 917 1595 c 0,84,85
 917 1566 917 1566 904.5 1540 c 128,-1,86
 892 1514 892 1514 864 1499 c 0,87,88
 854 1493 854 1493 818.5 1484 c 128,-1,89
 783 1475 783 1475 736 1464.5 c 128,-1,90
 689 1454 689 1454 637.5 1443.5 c 128,-1,91
 586 1433 586 1433 545 1425 c 1,92,93
 586 1417 586 1417 637.5 1407 c 128,-1,94
 689 1397 689 1397 736 1386.5 c 128,-1,95
 783 1376 783 1376 818.5 1367 c 128,-1,96
 854 1358 854 1358 864 1353 c 0,97,98
 892 1337 892 1337 905 1311 c 128,-1,99
 918 1285 918 1285 918 1256 c 0,100,101
 918 1217 918 1217 896 1179 c 0,102,103
 877 1147 877 1147 847 1126 c 128,-1,104
 817 1105 817 1105 783 1105 c 0,105,106
 755 1105 755 1105 730 1120 c 0,107,108
 721 1126 721 1126 695 1152 c 128,-1,109
 669 1178 669 1178 636.5 1213.5 c 128,-1,110
 604 1249 604 1249 569.5 1288 c 128,-1,111
 535 1327 535 1327 507 1359 c 1,112,113
 521 1319 521 1319 538 1269.5 c 128,-1,114
 555 1220 555 1220 569.5 1174 c 128,-1,115
 584 1128 584 1128 594 1092.5 c 128,-1,116
 604 1057 604 1057 604 1046 c 0,117,118
 604 1019 604 1019 592.5 998 c 128,-1,119
 581 977 581 977 561.5 962 c 128,-1,120
 542 947 542 947 517.5 939 c 128,-1,121
 493 931 493 931 468 931 c 0,0,1
EndSplineSet
Validated: 1
EndChar

StartChar: endash
Encoding: 8211 8211 112
Width: 1244
Flags: W
LayerCount: 2
Fore
SplineSet
110 682 m 1,0,-1
 1134 682 l 1,1,-1
 1134 460 l 1,2,-1
 110 460 l 1,3,-1
 110 682 l 1,0,-1
EndSplineSet
Validated: 1
EndChar

StartChar: emdash
Encoding: 8212 8212 113
Width: 2268
Flags: W
LayerCount: 2
Fore
SplineSet
110 682 m 1,0,-1
 2158 682 l 1,1,-1
 2158 460 l 1,2,-1
 110 460 l 1,3,-1
 110 682 l 1,0,-1
EndSplineSet
Validated: 1
EndChar

StartChar: slash
Encoding: 47 47 114
Width: 910
Flags: W
LayerCount: 2
Fore
SplineSet
551 1569 m 1,0,-1
 822 1569 l 1,1,-1
 357 -151 l 1,2,-1
 88 -151 l 1,3,-1
 551 1569 l 1,0,-1
EndSplineSet
Validated: 1
EndChar

StartChar: backslash
Encoding: 92 92 115
Width: 910
Flags: W
LayerCount: 2
Fore
SplineSet
88 1569 m 1,0,-1
 359 1569 l 1,1,-1
 822 -151 l 1,2,-1
 553 -151 l 1,3,-1
 88 1569 l 1,0,-1
EndSplineSet
Validated: 1
EndChar

StartChar: bar
Encoding: 124 124 116
Width: 658
Flags: W
LayerCount: 2
Fore
SplineSet
230 1758 m 1,0,-1
 428 1758 l 1,1,-1
 428 -525 l 1,2,-1
 230 -525 l 1,3,-1
 230 1758 l 1,0,-1
EndSplineSet
Validated: 1
EndChar

StartChar: brokenbar
Encoding: 166 166 117
Width: 658
Flags: W
LayerCount: 2
Fore
SplineSet
230 1758 m 1,0,-1
 428 1758 l 1,1,-1
 428 775 l 1,2,-1
 230 775 l 1,3,-1
 230 1758 l 1,0,-1
428 458 m 1,4,-1
 428 -525 l 1,5,-1
 230 -525 l 1,6,-1
 230 458 l 1,7,-1
 428 458 l 1,4,-1
EndSplineSet
Validated: 1
EndChar

StartChar: paragraph
Encoding: 182 182 118
Width: 1975
Flags: W
LayerCount: 2
Fore
SplineSet
772 486 m 0,0,1
 597 486 597 486 466.5 508.5 c 128,-1,2
 336 531 336 531 250 584.5 c 128,-1,3
 164 638 164 638 121 727.5 c 128,-1,4
 78 817 78 817 78 951 c 0,5,6
 78 1065 78 1065 115.5 1155.5 c 128,-1,7
 153 1246 153 1246 234 1309.5 c 128,-1,8
 315 1373 315 1373 441.5 1407 c 128,-1,9
 568 1441 568 1441 746 1441 c 0,10,11
 776 1441 776 1441 820 1440.5 c 128,-1,12
 864 1440 864 1440 910 1439 c 128,-1,13
 956 1438 956 1438 999 1436.5 c 128,-1,14
 1042 1435 1042 1435 1070 1434 c 1,15,-1
 1070 500 l 1,16,17
 1038 497 1038 497 1000.5 494.5 c 128,-1,18
 963 492 963 492 923.5 490 c 128,-1,19
 884 488 884 488 845 487 c 128,-1,20
 806 486 806 486 772 486 c 0,0,1
1277 -46 m 1,21,-1
 1277 1434 l 1,22,-1
 1944 1434 l 1,23,-1
 1634 1180 l 1,24,-1
 1634 -46 l 1,25,-1
 1945 -300 l 1,26,-1
 896 -300 l 1,27,-1
 1277 -46 l 1,21,-1
EndSplineSet
Validated: 1
EndChar

StartChar: braceleft
Encoding: 123 123 119
Width: 967
Flags: W
LayerCount: 2
Fore
SplineSet
224 180 m 0,0,1
 224 226 224 226 230.5 271 c 128,-1,2
 237 316 237 316 247 359 c 0,3,4
 260 415 260 415 270 465 c 128,-1,5
 280 515 280 515 280 553 c 0,6,7
 280 597 280 597 259 622.5 c 128,-1,8
 238 648 238 648 180 648 c 1,9,-1
 180 786 l 1,10,11
 238 786 238 786 259 811.5 c 128,-1,12
 280 837 280 837 280 881 c 0,13,14
 280 919 280 919 270 969 c 128,-1,15
 260 1019 260 1019 247 1075 c 0,16,17
 237 1118 237 1118 230.5 1163 c 128,-1,18
 224 1208 224 1208 224 1254 c 0,19,20
 224 1302 224 1302 234.5 1349.5 c 128,-1,21
 245 1397 245 1397 272 1440 c 128,-1,22
 299 1483 299 1483 344.5 1520 c 128,-1,23
 390 1557 390 1557 460.5 1586 c 128,-1,24
 531 1615 531 1615 629 1634 c 128,-1,25
 727 1653 727 1653 858 1660 c 1,26,-1
 907 1527 l 1,27,28
 817 1513 817 1513 759.5 1488.5 c 128,-1,29
 702 1464 702 1464 668.5 1431 c 128,-1,30
 635 1398 635 1398 622.5 1358.5 c 128,-1,31
 610 1319 610 1319 610 1276 c 0,32,33
 610 1240 610 1240 616.5 1201.5 c 128,-1,34
 623 1163 623 1163 631 1125 c 0,35,36
 641 1079 641 1079 649 1034 c 128,-1,37
 657 989 657 989 657 947 c 0,38,39
 657 907 657 907 646 871 c 128,-1,40
 635 835 635 835 606.5 805 c 128,-1,41
 578 775 578 775 528.5 752.5 c 128,-1,42
 479 730 479 730 402 717 c 1,43,44
 479 704 479 704 528.5 681.5 c 128,-1,45
 578 659 578 659 606.5 629 c 128,-1,46
 635 599 635 599 646 563 c 128,-1,47
 657 527 657 527 657 487 c 0,48,49
 657 445 657 445 649 400 c 128,-1,50
 641 355 641 355 631 309 c 0,51,52
 623 271 623 271 616.5 232.5 c 128,-1,53
 610 194 610 194 610 158 c 0,54,55
 610 114 610 114 622.5 75 c 128,-1,56
 635 36 635 36 668.5 3 c 128,-1,57
 702 -30 702 -30 759.5 -54.5 c 128,-1,58
 817 -79 817 -79 907 -93 c 1,59,-1
 858 -226 l 1,60,61
 727 -219 727 -219 629 -200 c 128,-1,62
 531 -181 531 -181 460.5 -152 c 128,-1,63
 390 -123 390 -123 344.5 -86 c 128,-1,64
 299 -49 299 -49 272 -6 c 128,-1,65
 245 37 245 37 234.5 84 c 128,-1,66
 224 131 224 131 224 180 c 0,0,1
EndSplineSet
Validated: 1
EndChar

StartChar: braceright
Encoding: 125 125 120
Width: 967
Flags: W
LayerCount: 2
Fore
SplineSet
60 -93 m 1,0,1
 150 -79 150 -79 207.5 -54.5 c 128,-1,2
 265 -30 265 -30 298.5 3 c 128,-1,3
 332 36 332 36 344.5 75 c 128,-1,4
 357 114 357 114 357 158 c 0,5,6
 357 194 357 194 350.5 232.5 c 128,-1,7
 344 271 344 271 336 309 c 0,8,9
 326 355 326 355 318 400 c 128,-1,10
 310 445 310 445 310 487 c 0,11,12
 310 527 310 527 321 563 c 128,-1,13
 332 599 332 599 360.5 629 c 128,-1,14
 389 659 389 659 438.5 681.5 c 128,-1,15
 488 704 488 704 565 717 c 1,16,17
 488 730 488 730 438.5 752.5 c 128,-1,18
 389 775 389 775 360.5 805 c 128,-1,19
 332 835 332 835 321 871 c 128,-1,20
 310 907 310 907 310 947 c 0,21,22
 310 989 310 989 318 1034 c 128,-1,23
 326 1079 326 1079 336 1125 c 0,24,25
 344 1163 344 1163 350.5 1201.5 c 128,-1,26
 357 1240 357 1240 357 1276 c 0,27,28
 357 1319 357 1319 344.5 1358.5 c 128,-1,29
 332 1398 332 1398 298.5 1431 c 128,-1,30
 265 1464 265 1464 207.5 1488.5 c 128,-1,31
 150 1513 150 1513 60 1527 c 1,32,-1
 109 1660 l 1,33,34
 240 1653 240 1653 338 1634 c 128,-1,35
 436 1615 436 1615 506.5 1586 c 128,-1,36
 577 1557 577 1557 622.5 1520 c 128,-1,37
 668 1483 668 1483 695 1440 c 128,-1,38
 722 1397 722 1397 732.5 1349.5 c 128,-1,39
 743 1302 743 1302 743 1254 c 0,40,41
 743 1208 743 1208 736.5 1163 c 128,-1,42
 730 1118 730 1118 720 1075 c 0,43,44
 707 1019 707 1019 697 969 c 128,-1,45
 687 919 687 919 687 881 c 0,46,47
 687 837 687 837 708 811.5 c 128,-1,48
 729 786 729 786 787 786 c 1,49,-1
 787 648 l 1,50,51
 729 648 729 648 708 622.5 c 128,-1,52
 687 597 687 597 687 553 c 0,53,54
 687 515 687 515 697 465 c 128,-1,55
 707 415 707 415 720 359 c 0,56,57
 730 316 730 316 736.5 271 c 128,-1,58
 743 226 743 226 743 180 c 0,59,60
 743 132 743 132 732.5 84.5 c 128,-1,61
 722 37 722 37 695 -6 c 128,-1,62
 668 -49 668 -49 622.5 -86 c 128,-1,63
 577 -123 577 -123 506.5 -152 c 128,-1,64
 436 -181 436 -181 338 -200.5 c 128,-1,65
 240 -220 240 -220 109 -226 c 1,66,-1
 60 -93 l 1,0,1
EndSplineSet
Validated: 1
EndChar

StartChar: parenleft
Encoding: 40 40 121
Width: 912
Flags: W
LayerCount: 2
Fore
SplineSet
110 717 m 0,0,1
 110 855 110 855 137.5 976.5 c 128,-1,2
 165 1098 165 1098 213.5 1199.5 c 128,-1,3
 262 1301 262 1301 328 1382.5 c 128,-1,4
 394 1464 394 1464 471 1522.5 c 128,-1,5
 548 1581 548 1581 632.5 1616 c 128,-1,6
 717 1651 717 1651 803 1660 c 1,7,-1
 852 1527 l 1,8,9
 765 1494 765 1494 699.5 1414 c 128,-1,10
 634 1334 634 1334 590.5 1224.5 c 128,-1,11
 547 1115 547 1115 525.5 983.5 c 128,-1,12
 504 852 504 852 504 717 c 256,13,14
 504 582 504 582 525.5 450.5 c 128,-1,15
 547 319 547 319 590.5 209 c 128,-1,16
 634 99 634 99 699.5 19.5 c 128,-1,17
 765 -60 765 -60 852 -93 c 1,18,-1
 803 -226 l 1,19,20
 717 -217 717 -217 632.5 -182 c 128,-1,21
 548 -147 548 -147 471 -88.5 c 128,-1,22
 394 -30 394 -30 328 51.5 c 128,-1,23
 262 133 262 133 213.5 234.5 c 128,-1,24
 165 336 165 336 137.5 457 c 128,-1,25
 110 578 110 578 110 717 c 0,0,1
EndSplineSet
Validated: 1
EndChar

StartChar: parenright
Encoding: 41 41 122
Width: 912
Flags: W
LayerCount: 2
Fore
SplineSet
60 -93 m 1,0,1
 147 -60 147 -60 212 19.5 c 128,-1,2
 277 99 277 99 320.5 209 c 128,-1,3
 364 319 364 319 386 450.5 c 128,-1,4
 408 582 408 582 408 717 c 256,5,6
 408 852 408 852 386 983.5 c 128,-1,7
 364 1115 364 1115 320.5 1224.5 c 128,-1,8
 277 1334 277 1334 212 1414 c 128,-1,9
 147 1494 147 1494 60 1527 c 1,10,-1
 109 1660 l 1,11,12
 194 1651 194 1651 279 1616 c 128,-1,13
 364 1581 364 1581 441 1522.5 c 128,-1,14
 518 1464 518 1464 584 1382.5 c 128,-1,15
 650 1301 650 1301 698.5 1199.5 c 128,-1,16
 747 1098 747 1098 774.5 976.5 c 128,-1,17
 802 855 802 855 802 717 c 256,18,19
 802 579 802 579 774.5 457.5 c 128,-1,20
 747 336 747 336 698.5 234.5 c 128,-1,21
 650 133 650 133 584 51.5 c 128,-1,22
 518 -30 518 -30 441 -88.5 c 128,-1,23
 364 -147 364 -147 279 -182 c 128,-1,24
 194 -217 194 -217 109 -226 c 1,25,-1
 60 -93 l 1,0,1
EndSplineSet
Validated: 1
EndChar

StartChar: bracketleft
Encoding: 91 91 123
Width: 974
Flags: W
LayerCount: 2
Fore
SplineSet
230 1658 m 1,0,-1
 894 1658 l 1,1,-1
 894 1465 l 1,2,-1
 578 1465 l 1,3,-1
 578 -32 l 1,4,-1
 894 -32 l 1,5,-1
 894 -225 l 1,6,-1
 230 -225 l 1,7,-1
 230 1658 l 1,0,-1
EndSplineSet
Validated: 1
EndChar

StartChar: bracketright
Encoding: 93 93 124
Width: 974
Flags: W
LayerCount: 2
Fore
SplineSet
396 -32 m 1,0,-1
 396 1465 l 1,1,-1
 80 1465 l 1,2,-1
 80 1658 l 1,3,-1
 744 1658 l 1,4,-1
 744 -225 l 1,5,-1
 80 -225 l 1,6,-1
 80 -32 l 1,7,-1
 396 -32 l 1,0,-1
EndSplineSet
Validated: 1
EndChar

StartChar: currency
Encoding: 164 164 125
Width: 1573
Flags: W
LayerCount: 2
Fore
SplineSet
271 390 m 1,0,1
 226 460 226 460 202 541.5 c 128,-1,2
 178 623 178 623 178 714 c 256,3,4
 178 805 178 805 202.5 886.5 c 128,-1,5
 227 968 227 968 272 1039 c 1,6,-1
 65 1245 l 1,7,-1
 255 1433 l 1,8,-1
 462 1228 l 1,9,10
 532 1272 532 1272 613 1296 c 128,-1,11
 694 1320 694 1320 784 1320 c 256,12,13
 874 1320 874 1320 955.5 1295 c 128,-1,14
 1037 1270 1037 1270 1108 1225 c 1,15,-1
 1318 1433 l 1,16,-1
 1508 1245 l 1,17,-1
 1297 1036 l 1,18,19
 1342 966 1342 966 1366 884.5 c 128,-1,20
 1390 803 1390 803 1390 714 c 256,21,22
 1390 625 1390 625 1366 544 c 128,-1,23
 1342 463 1342 463 1298 393 c 1,24,-1
 1508 186 l 1,25,-1
 1318 -2 l 1,26,-1
 1110 203 l 1,27,28
 1039 158 1039 158 957 133 c 128,-1,29
 875 108 875 108 784 108 c 256,30,31
 693 108 693 108 611.5 132 c 128,-1,32
 530 156 530 156 460 201 c 1,33,-1
 255 -2 l 1,34,-1
 65 186 l 1,35,-1
 271 390 l 1,0,1
406 714 m 256,36,37
 406 636 406 636 435.5 567 c 128,-1,38
 465 498 465 498 516 447 c 128,-1,39
 567 396 567 396 636 366.5 c 128,-1,40
 705 337 705 337 784 337 c 0,41,42
 862 337 862 337 931 366.5 c 128,-1,43
 1000 396 1000 396 1051 447 c 128,-1,44
 1102 498 1102 498 1131.5 567 c 128,-1,45
 1161 636 1161 636 1161 714 c 256,46,47
 1161 792 1161 792 1131.5 861 c 128,-1,48
 1102 930 1102 930 1051 981 c 128,-1,49
 1000 1032 1000 1032 931 1061.5 c 128,-1,50
 862 1091 862 1091 784 1091 c 0,51,52
 705 1091 705 1091 636 1061.5 c 128,-1,53
 567 1032 567 1032 516 981 c 128,-1,54
 465 930 465 930 435.5 861 c 128,-1,55
 406 792 406 792 406 714 c 256,36,37
EndSplineSet
Validated: 1
EndChar

StartChar: dollar
Encoding: 36 36 126
Width: 1944
Flags: W
LayerCount: 2
Fore
SplineSet
165 489 m 1,0,1
 262 425 262 425 369 369.5 c 128,-1,2
 476 314 476 314 590.5 273 c 128,-1,3
 705 232 705 232 825.5 208.5 c 128,-1,4
 946 185 946 185 1071 185 c 0,5,6
 1119 185 1119 185 1163.5 191 c 128,-1,7
 1208 197 1208 197 1241.5 210.5 c 128,-1,8
 1275 224 1275 224 1295.5 246.5 c 128,-1,9
 1316 269 1316 269 1316 301 c 0,10,11
 1316 330 1316 330 1299 359.5 c 128,-1,12
 1282 389 1282 389 1233.5 416 c 128,-1,13
 1185 443 1185 443 1098 466.5 c 128,-1,14
 1011 490 1011 490 872 508 c 0,15,16
 686 532 686 532 549 570 c 128,-1,17
 412 608 412 608 322 667 c 128,-1,18
 232 726 232 726 188 809 c 128,-1,19
 144 892 144 892 144 1006 c 0,20,21
 144 1115 144 1115 193.5 1201.5 c 128,-1,22
 243 1288 243 1288 336 1348 c 128,-1,23
 429 1408 429 1408 562 1440 c 128,-1,24
 695 1472 695 1472 862 1472 c 0,25,26
 879 1472 879 1472 901 1471 c 128,-1,27
 923 1470 923 1470 936 1468 c 1,28,-1
 958 1710 l 1,29,-1
 1178 1710 l 1,30,-1
 1153 1438 l 1,31,32
 1219 1426 1219 1426 1281 1410 c 128,-1,33
 1343 1394 1343 1394 1394 1377 c 1,34,-1
 1590 1485 l 1,35,-1
 1727 1485 l 1,36,-1
 1727 1005 l 1,37,38
 1620 1068 1620 1068 1511.5 1116 c 128,-1,39
 1403 1164 1403 1164 1296.5 1196.5 c 128,-1,40
 1190 1229 1190 1229 1088.5 1245.5 c 128,-1,41
 987 1262 987 1262 895 1262 c 0,42,43
 835 1262 835 1262 786.5 1253 c 128,-1,44
 738 1244 738 1244 704.5 1229 c 128,-1,45
 671 1214 671 1214 653 1193.5 c 128,-1,46
 635 1173 635 1173 635 1150 c 0,47,48
 635 1117 635 1117 653 1090.5 c 128,-1,49
 671 1064 671 1064 723 1041 c 128,-1,50
 775 1018 775 1018 869 996.5 c 128,-1,51
 963 975 963 975 1115 950 c 0,52,53
 1216 933 1216 933 1308 914 c 128,-1,54
 1400 895 1400 895 1479 868.5 c 128,-1,55
 1558 842 1558 842 1621.5 805 c 128,-1,56
 1685 768 1685 768 1730 716 c 128,-1,57
 1775 664 1775 664 1799.5 594 c 128,-1,58
 1824 524 1824 524 1824 431 c 0,59,60
 1824 307 1824 307 1764 218 c 128,-1,61
 1704 129 1704 129 1602 72 c 128,-1,62
 1500 15 1500 15 1364.5 -12 c 128,-1,63
 1229 -39 1229 -39 1079 -39 c 0,64,65
 1065 -39 1065 -39 1050.5 -39 c 128,-1,66
 1036 -39 1036 -39 1018 -37 c 1,67,-1
 996 -285 l 1,68,-1
 770 -285 l 1,69,-1
 799 -9 l 1,70,71
 727 6 727 6 657.5 29.5 c 128,-1,72
 588 53 588 53 522 86 c 1,73,-1
 362 -14 l 1,74,-1
 165 -14 l 1,75,-1
 165 489 l 1,0,1
EndSplineSet
Validated: 1
EndChar

StartChar: cent
Encoding: 162 162 127
Width: 1754
Flags: W
LayerCount: 2
Fore
SplineSet
100 660 m 256,0,1
 100 788 100 788 157.5 892 c 128,-1,2
 215 996 215 996 314.5 1071.5 c 128,-1,3
 414 1147 414 1147 549 1190.5 c 128,-1,4
 684 1234 684 1234 840 1242 c 1,5,-1
 861 1528 l 1,6,-1
 1081 1528 l 1,7,-1
 1060 1235 l 1,8,9
 1166 1222 1166 1222 1247.5 1194.5 c 128,-1,10
 1329 1167 1329 1167 1388 1131 c 1,11,-1
 1597 1252 l 1,12,-1
 1597 768 l 1,13,-1
 1347 738 l 1,14,15
 1328 802 1328 802 1295 857 c 128,-1,16
 1262 912 1262 912 1215.5 952 c 128,-1,17
 1169 992 1169 992 1110 1014.5 c 128,-1,18
 1051 1037 1051 1037 981 1037 c 0,19,20
 917 1037 917 1037 853.5 1019 c 128,-1,21
 790 1001 790 1001 739.5 957.5 c 128,-1,22
 689 914 689 914 657.5 841.5 c 128,-1,23
 626 769 626 769 626 660 c 0,24,25
 626 568 626 568 658.5 499 c 128,-1,26
 691 430 691 430 744.5 383.5 c 128,-1,27
 798 337 798 337 867 314 c 128,-1,28
 936 291 936 291 1010 291 c 0,29,30
 1073 291 1073 291 1143.5 298.5 c 128,-1,31
 1214 306 1214 306 1282.5 327 c 128,-1,32
 1351 348 1351 348 1413 385 c 128,-1,33
 1475 422 1475 422 1521 481 c 1,34,-1
 1623 401 l 1,35,36
 1594 327 1594 327 1534.5 266 c 128,-1,37
 1475 205 1475 205 1391 160 c 128,-1,38
 1307 115 1307 115 1201.5 88.5 c 128,-1,39
 1096 62 1096 62 975 59 c 1,40,-1
 954 -235 l 1,41,-1
 728 -235 l 1,42,-1
 754 69 l 1,43,44
 598 86 598 86 476 132.5 c 128,-1,45
 354 179 354 179 270.5 253.5 c 128,-1,46
 187 328 187 328 143.5 430 c 128,-1,47
 100 532 100 532 100 660 c 256,0,1
EndSplineSet
Validated: 1
EndChar

StartChar: sterling
Encoding: 163 163 128
Width: 1955
Flags: W
LayerCount: 2
Fore
SplineSet
32 232 m 0,0,1
 32 282 32 282 59 330 c 128,-1,2
 86 378 86 378 132.5 415 c 128,-1,3
 179 452 179 452 241 474.5 c 128,-1,4
 303 497 303 497 372 497 c 0,5,6
 420 497 420 497 470 494 c 1,7,8
 457 523 457 523 443.5 552 c 128,-1,9
 430 581 430 581 416 610 c 1,10,-1
 140 610 l 1,11,-1
 140 830 l 1,12,-1
 323 830 l 1,13,14
 306 878 306 878 296.5 923.5 c 128,-1,15
 287 969 287 969 287 1013 c 0,16,17
 287 1134 287 1134 330.5 1221 c 128,-1,18
 374 1308 374 1308 468.5 1363.5 c 128,-1,19
 563 1419 563 1419 712 1445.5 c 128,-1,20
 861 1472 861 1472 1073 1472 c 0,21,22
 1159 1472 1159 1472 1245.5 1464.5 c 128,-1,23
 1332 1457 1332 1457 1411 1441 c 128,-1,24
 1490 1425 1490 1425 1558.5 1400 c 128,-1,25
 1627 1375 1627 1375 1677 1339.5 c 128,-1,26
 1727 1304 1727 1304 1756 1257.5 c 128,-1,27
 1785 1211 1785 1211 1785 1152 c 0,28,29
 1785 1085 1785 1085 1747 1008 c 1,30,-1
 1325 957 l 1,31,32
 1330 978 1330 978 1332 999 c 128,-1,33
 1334 1020 1334 1020 1334 1045 c 0,34,35
 1334 1097 1334 1097 1315.5 1139 c 128,-1,36
 1297 1181 1297 1181 1262.5 1210.5 c 128,-1,37
 1228 1240 1228 1240 1179 1256 c 128,-1,38
 1130 1272 1130 1272 1069 1272 c 0,39,40
 1003 1272 1003 1272 955 1252.5 c 128,-1,41
 907 1233 907 1233 876 1200 c 128,-1,42
 845 1167 845 1167 830 1122.5 c 128,-1,43
 815 1078 815 1078 815 1027 c 0,44,45
 815 980 815 980 824 930.5 c 128,-1,46
 833 881 833 881 847 830 c 1,47,-1
 1406 830 l 1,48,-1
 1406 610 l 1,49,-1
 901 610 l 1,50,51
 906 581 906 581 909 552.5 c 128,-1,52
 912 524 912 524 912 495 c 0,53,54
 912 457 912 457 905 423 c 1,55,-1
 1030 394 l 2,56,57
 1051 389 1051 389 1081.5 383.5 c 128,-1,58
 1112 378 1112 378 1147 373 c 128,-1,59
 1182 368 1182 368 1219 363.5 c 128,-1,60
 1256 359 1256 359 1289 355.5 c 128,-1,61
 1322 352 1322 352 1348.5 350 c 128,-1,62
 1375 348 1375 348 1389 348 c 0,63,64
 1517 348 1517 348 1586.5 395.5 c 128,-1,65
 1656 443 1656 443 1677 531 c 1,66,-1
 1811 509 l 1,67,68
 1829 451 1829 451 1837.5 395.5 c 128,-1,69
 1846 340 1846 340 1846 294 c 0,70,71
 1846 227 1846 227 1825.5 166.5 c 128,-1,72
 1805 106 1805 106 1758 60.5 c 128,-1,73
 1711 15 1711 15 1635 -12 c 128,-1,74
 1559 -39 1559 -39 1448 -39 c 0,75,76
 1373 -39 1373 -39 1288.5 -23 c 128,-1,77
 1204 -7 1204 -7 1117.5 19 c 128,-1,78
 1031 45 1031 45 944.5 78 c 128,-1,79
 858 111 858 111 778 145 c 1,80,81
 729 63 729 63 632 12 c 128,-1,82
 535 -39 535 -39 392 -39 c 0,83,84
 330 -39 330 -39 266.5 -22.5 c 128,-1,85
 203 -6 203 -6 150.5 27.5 c 128,-1,86
 98 61 98 61 65 112 c 128,-1,87
 32 163 32 163 32 232 c 0,0,1
249 193 m 0,88,89
 249 145 249 145 285 113.5 c 128,-1,90
 321 82 321 82 382 82 c 0,91,92
 419 82 419 82 450 93 c 128,-1,93
 481 104 481 104 502.5 122.5 c 128,-1,94
 524 141 524 141 536 165.5 c 128,-1,95
 548 190 548 190 548 217 c 0,96,97
 548 224 548 224 547.5 230.5 c 128,-1,98
 547 237 547 237 546 244 c 1,99,100
 486 270 486 270 442.5 286 c 128,-1,101
 399 302 399 302 378 302 c 0,102,103
 321 302 321 302 285 273 c 128,-1,104
 249 244 249 244 249 193 c 0,88,89
EndSplineSet
Validated: 1
EndChar

StartChar: Euro
Encoding: 8364 8364 129
Width: 2198
Flags: W
LayerCount: 2
Fore
SplineSet
40 671 m 1,0,-1
 232 671 l 1,1,2
 231 682 231 682 231 693.5 c 128,-1,3
 231 705 231 705 231 717 c 0,4,5
 231 755 231 755 234 791 c 1,6,-1
 40 791 l 1,7,-1
 40 991 l 1,8,-1
 283 991 l 1,9,10
 335 1117 335 1117 432 1208 c 128,-1,11
 529 1299 529 1299 655 1357.5 c 128,-1,12
 781 1416 781 1416 927.5 1444 c 128,-1,13
 1074 1472 1074 1472 1225 1472 c 0,14,15
 1317 1472 1317 1472 1399 1461 c 128,-1,16
 1481 1450 1481 1450 1552.5 1431.5 c 128,-1,17
 1624 1413 1624 1413 1684 1389 c 128,-1,18
 1744 1365 1744 1365 1792 1339 c 1,19,-1
 1865 1434 l 1,20,-1
 2074 1434 l 1,21,-1
 2074 926 l 1,22,-1
 1809 876 l 1,23,24
 1785 957 1785 957 1738 1027 c 128,-1,25
 1691 1097 1691 1097 1625 1148 c 128,-1,26
 1559 1199 1559 1199 1475.5 1228.5 c 128,-1,27
 1392 1258 1392 1258 1294 1258 c 0,28,29
 1211 1258 1211 1258 1144 1238.5 c 128,-1,30
 1077 1219 1077 1219 1024.5 1183.5 c 128,-1,31
 972 1148 972 1148 933.5 1099 c 128,-1,32
 895 1050 895 1050 870 991 c 1,33,-1
 1506 991 l 1,34,-1
 1506 791 l 1,35,-1
 822 791 l 1,36,37
 819 753 819 753 819 717 c 0,38,39
 819 705 819 705 819 693.5 c 128,-1,40
 819 682 819 682 820 671 c 1,41,-1
 1506 671 l 1,42,-1
 1506 471 l 1,43,-1
 863 471 l 1,44,45
 892 399 892 399 938.5 344 c 128,-1,46
 985 289 985 289 1046 252 c 128,-1,47
 1107 215 1107 215 1180 196 c 128,-1,48
 1253 177 1253 177 1336 177 c 0,49,50
 1424 177 1424 177 1502 199.5 c 128,-1,51
 1580 222 1580 222 1639.5 268.5 c 128,-1,52
 1699 315 1699 315 1736.5 386 c 128,-1,53
 1774 457 1774 457 1782 554 c 1,54,-1
 2088 554 l 1,55,56
 2088 459 2088 459 2057.5 378 c 128,-1,57
 2027 297 2027 297 1971.5 231 c 128,-1,58
 1916 165 1916 165 1838 114.5 c 128,-1,59
 1760 64 1760 64 1664 30 c 128,-1,60
 1568 -4 1568 -4 1457.5 -21.5 c 128,-1,61
 1347 -39 1347 -39 1226 -39 c 0,62,63
 1130 -39 1130 -39 1030.5 -28 c 128,-1,64
 931 -17 931 -17 835.5 7 c 128,-1,65
 740 31 740 31 651.5 70 c 128,-1,66
 563 109 563 109 488.5 166 c 128,-1,67
 414 223 414 223 357 298.5 c 128,-1,68
 300 374 300 374 268 471 c 1,69,-1
 40 471 l 1,70,-1
 40 671 l 1,0,-1
EndSplineSet
Validated: 1
EndChar

StartChar: yen
Encoding: 165 165 130
Width: 1939
Flags: W
LayerCount: 2
Fore
SplineSet
264 422 m 1,0,-1
 731 422 l 1,1,-1
 731 440 l 1,2,-1
 667 542 l 1,3,-1
 264 542 l 1,4,-1
 264 742 l 1,5,-1
 542 742 l 1,6,-1
 262 1191 l 1,7,-1
 -40 1434 l 1,8,-1
 949 1434 l 1,9,-1
 814 1242 l 1,10,-1
 1092 743 l 1,11,-1
 1324 1233 l 1,12,-1
 1160 1434 l 1,13,-1
 1999 1434 l 1,14,-1
 1640 1184 l 1,15,-1
 1402 742 l 1,16,-1
 1730 742 l 1,17,-1
 1730 542 l 1,18,-1
 1295 542 l 1,19,-1
 1238 440 l 1,20,-1
 1238 422 l 1,21,-1
 1730 422 l 1,22,-1
 1730 222 l 1,23,-1
 1240 222 l 1,24,-1
 1488 0 l 1,25,-1
 499 0 l 1,26,-1
 729 222 l 1,27,-1
 264 222 l 1,28,-1
 264 422 l 1,0,-1
EndSplineSet
Validated: 1
EndChar

StartChar: at
Encoding: 64 64 131
Width: 2911
Flags: W
LayerCount: 2
Fore
SplineSet
126 381 m 0,0,1
 126 532 126 532 169.5 669 c 128,-1,2
 213 806 213 806 297.5 923 c 128,-1,3
 382 1040 382 1040 505 1134.5 c 128,-1,4
 628 1229 628 1229 786.5 1296 c 128,-1,5
 945 1363 945 1363 1138.5 1399 c 128,-1,6
 1332 1435 1332 1435 1556 1435 c 0,7,8
 1861 1435 1861 1435 2091.5 1377 c 128,-1,9
 2322 1319 2322 1319 2476 1218 c 128,-1,10
 2630 1117 2630 1117 2707.5 980 c 128,-1,11
 2785 843 2785 843 2785 685 c 0,12,13
 2785 533 2785 533 2732.5 409 c 128,-1,14
 2680 285 2680 285 2585.5 197 c 128,-1,15
 2491 109 2491 109 2359.5 60.5 c 128,-1,16
 2228 12 2228 12 2069 12 c 0,17,18
 1884 12 1884 12 1785 51 c 128,-1,19
 1686 90 1686 90 1656 176 c 1,20,21
 1581 93 1581 93 1453.5 48.5 c 128,-1,22
 1326 4 1326 4 1127 4 c 0,23,24
 1026 4 1026 4 936.5 29.5 c 128,-1,25
 847 55 847 55 780.5 106 c 128,-1,26
 714 157 714 157 675 234 c 128,-1,27
 636 311 636 311 636 414 c 0,28,29
 636 522 636 522 675 612.5 c 128,-1,30
 714 703 714 703 781 774.5 c 128,-1,31
 848 846 848 846 938 899.5 c 128,-1,32
 1028 953 1028 953 1130 989 c 128,-1,33
 1232 1025 1232 1025 1340.5 1042.5 c 128,-1,34
 1449 1060 1449 1060 1554 1060 c 0,35,36
 1650 1060 1650 1060 1741.5 1050 c 128,-1,37
 1833 1040 1833 1040 1919.5 1015.5 c 128,-1,38
 2006 991 2006 991 2086.5 950 c 128,-1,39
 2167 909 2167 909 2241 846 c 1,40,-1
 2124 283 l 2,41,42
 2123 278 2123 278 2123 273 c 128,-1,43
 2123 268 2123 268 2123 263 c 0,44,45
 2123 221 2123 221 2150 200 c 128,-1,46
 2177 179 2177 179 2234 179 c 0,47,48
 2321 179 2321 179 2389.5 223.5 c 128,-1,49
 2458 268 2458 268 2505.5 338.5 c 128,-1,50
 2553 409 2553 409 2578 496 c 128,-1,51
 2603 583 2603 583 2603 668 c 0,52,53
 2603 821 2603 821 2525 936.5 c 128,-1,54
 2447 1052 2447 1052 2306.5 1129.5 c 128,-1,55
 2166 1207 2166 1207 1971.5 1246 c 128,-1,56
 1777 1285 1777 1285 1544 1285 c 0,57,58
 1342 1285 1342 1285 1173.5 1252 c 128,-1,59
 1005 1219 1005 1219 870.5 1160 c 128,-1,60
 736 1101 736 1101 635 1019 c 128,-1,61
 534 937 534 937 466.5 838.5 c 128,-1,62
 399 740 399 740 365.5 628.5 c 128,-1,63
 332 517 332 517 332 399 c 0,64,65
 332 245 332 245 391 125.5 c 128,-1,66
 450 6 450 6 581.5 -76 c 128,-1,67
 713 -158 713 -158 922.5 -200.5 c 128,-1,68
 1132 -243 1132 -243 1434 -243 c 0,69,70
 1511 -243 1511 -243 1600.5 -239 c 128,-1,71
 1690 -235 1690 -235 1783 -227 c 128,-1,72
 1876 -219 1876 -219 1969 -207.5 c 128,-1,73
 2062 -196 2062 -196 2146 -181 c 128,-1,74
 2230 -166 2230 -166 2301 -147.5 c 128,-1,75
 2372 -129 2372 -129 2422 -108 c 1,76,-1
 2478 -214 l 1,77,78
 2432 -243 2432 -243 2331 -274.5 c 128,-1,79
 2230 -306 2230 -306 2087 -332 c 128,-1,80
 1944 -358 1944 -358 1766.5 -375 c 128,-1,81
 1589 -392 1589 -392 1390 -392 c 0,82,83
 1049 -392 1049 -392 809 -336.5 c 128,-1,84
 569 -281 569 -281 417 -180 c 128,-1,85
 265 -79 265 -79 195.5 64 c 128,-1,86
 126 207 126 207 126 381 c 0,0,1
1136 409 m 0,87,88
 1136 368 1136 368 1149.5 331 c 128,-1,89
 1163 294 1163 294 1190 266 c 128,-1,90
 1217 238 1217 238 1256.5 221.5 c 128,-1,91
 1296 205 1296 205 1348 205 c 0,92,93
 1391 205 1391 205 1432 216 c 128,-1,94
 1473 227 1473 227 1507.5 247.5 c 128,-1,95
 1542 268 1542 268 1568.5 297.5 c 128,-1,96
 1595 327 1595 327 1609 365 c 0,97,98
 1667 523 1667 523 1691 618.5 c 128,-1,99
 1715 714 1715 714 1715 742 c 0,100,101
 1715 766 1715 766 1702 791 c 128,-1,102
 1689 816 1689 816 1662.5 836.5 c 128,-1,103
 1636 857 1636 857 1596.5 870.5 c 128,-1,104
 1557 884 1557 884 1503 884 c 0,105,106
 1424 884 1424 884 1357 847.5 c 128,-1,107
 1290 811 1290 811 1241 747.5 c 128,-1,108
 1192 684 1192 684 1164 597 c 128,-1,109
 1136 510 1136 510 1136 409 c 0,87,88
EndSplineSet
Validated: 1
EndChar

StartChar: copyright
Encoding: 169 169 132
Width: 1754
Flags: W
LayerCount: 2
Fore
SplineSet
56 717 m 0,0,1
 56 821 56 821 85.5 918 c 128,-1,2
 115 1015 115 1015 168 1099 c 128,-1,3
 221 1183 221 1183 296 1252 c 128,-1,4
 371 1321 371 1321 462 1370.5 c 128,-1,5
 553 1420 553 1420 658 1447 c 128,-1,6
 763 1474 763 1474 876 1474 c 256,7,8
 989 1474 989 1474 1094 1447 c 128,-1,9
 1199 1420 1199 1420 1290 1370.5 c 128,-1,10
 1381 1321 1381 1321 1456 1252 c 128,-1,11
 1531 1183 1531 1183 1584.5 1099 c 128,-1,12
 1638 1015 1638 1015 1667.5 918 c 128,-1,13
 1697 821 1697 821 1697 717 c 256,14,15
 1697 613 1697 613 1667.5 516 c 128,-1,16
 1638 419 1638 419 1584.5 335 c 128,-1,17
 1531 251 1531 251 1456 182 c 128,-1,18
 1381 113 1381 113 1290 63.5 c 128,-1,19
 1199 14 1199 14 1094 -13 c 128,-1,20
 989 -40 989 -40 876 -40 c 256,21,22
 763 -40 763 -40 658 -13 c 128,-1,23
 553 14 553 14 462 63.5 c 128,-1,24
 371 113 371 113 296 182 c 128,-1,25
 221 251 221 251 168 335 c 128,-1,26
 115 419 115 419 85.5 515.5 c 128,-1,27
 56 612 56 612 56 717 c 0,0,1
228 713 m 0,28,29
 228 579 228 579 279 461 c 128,-1,30
 330 343 330 343 418 255 c 128,-1,31
 506 167 506 167 624 116 c 128,-1,32
 742 65 742 65 876 65 c 256,33,34
 1010 65 1010 65 1128 116 c 128,-1,35
 1246 167 1246 167 1334 255 c 128,-1,36
 1422 343 1422 343 1473 461 c 128,-1,37
 1524 579 1524 579 1524 713 c 0,38,39
 1524 802 1524 802 1501 885 c 128,-1,40
 1478 968 1478 968 1435.5 1040 c 128,-1,41
 1393 1112 1393 1112 1334 1171 c 128,-1,42
 1275 1230 1275 1230 1203 1272.5 c 128,-1,43
 1131 1315 1131 1315 1048 1338 c 128,-1,44
 965 1361 965 1361 876 1361 c 256,45,46
 787 1361 787 1361 704 1338 c 128,-1,47
 621 1315 621 1315 549 1272.5 c 128,-1,48
 477 1230 477 1230 418 1171 c 128,-1,49
 359 1112 359 1112 316.5 1040 c 128,-1,50
 274 968 274 968 251 885 c 128,-1,51
 228 802 228 802 228 713 c 0,28,29
374 699 m 0,52,53
 374 783 374 783 396.5 848.5 c 128,-1,54
 419 914 419 914 457.5 963.5 c 128,-1,55
 496 1013 496 1013 548 1047 c 128,-1,56
 600 1081 600 1081 658.5 1102.5 c 128,-1,57
 717 1124 717 1124 779.5 1133.5 c 128,-1,58
 842 1143 842 1143 903 1143 c 0,59,60
 1001 1143 1001 1143 1076.5 1119 c 128,-1,61
 1152 1095 1152 1095 1202 1065 c 1,62,-1
 1231 1103 l 1,63,-1
 1342 1103 l 1,64,-1
 1342 831 l 1,65,-1
 1172 802 l 1,66,67
 1160 848 1160 848 1140 888.5 c 128,-1,68
 1120 929 1120 929 1091 959 c 128,-1,69
 1062 989 1062 989 1022 1006 c 128,-1,70
 982 1023 982 1023 931 1023 c 0,71,72
 865 1023 865 1023 817.5 1001.5 c 128,-1,73
 770 980 770 980 739.5 940 c 128,-1,74
 709 900 709 900 694.5 842 c 128,-1,75
 680 784 680 784 680 712 c 0,76,77
 680 637 680 637 699.5 581.5 c 128,-1,78
 719 526 719 526 752 490 c 128,-1,79
 785 454 785 454 827 436 c 128,-1,80
 869 418 869 418 914 418 c 256,81,82
 959 418 959 418 1002 428.5 c 128,-1,83
 1045 439 1045 439 1078.5 463 c 128,-1,84
 1112 487 1112 487 1134.5 525 c 128,-1,85
 1157 563 1157 563 1162 619 c 1,86,-1
 1342 619 l 1,87,88
 1340 537 1340 537 1302 475 c 128,-1,89
 1264 413 1264 413 1200 371 c 128,-1,90
 1136 329 1136 329 1051.5 307.5 c 128,-1,91
 967 286 967 286 872 286 c 0,92,93
 813 286 813 286 753.5 296 c 128,-1,94
 694 306 694 306 638.5 327.5 c 128,-1,95
 583 349 583 349 535 381.5 c 128,-1,96
 487 414 487 414 451 460 c 128,-1,97
 415 506 415 506 394.5 565.5 c 128,-1,98
 374 625 374 625 374 699 c 0,52,53
EndSplineSet
Validated: 1
EndChar

StartChar: registered
Encoding: 174 174 133
Width: 1754
Flags: W
LayerCount: 2
Fore
SplineSet
56 717 m 0,0,1
 56 821 56 821 85.5 918 c 128,-1,2
 115 1015 115 1015 168 1099 c 128,-1,3
 221 1183 221 1183 296 1252 c 128,-1,4
 371 1321 371 1321 462 1370.5 c 128,-1,5
 553 1420 553 1420 658 1447 c 128,-1,6
 763 1474 763 1474 876 1474 c 256,7,8
 989 1474 989 1474 1094 1447 c 128,-1,9
 1199 1420 1199 1420 1290 1370.5 c 128,-1,10
 1381 1321 1381 1321 1456 1252 c 128,-1,11
 1531 1183 1531 1183 1584.5 1099 c 128,-1,12
 1638 1015 1638 1015 1667.5 918 c 128,-1,13
 1697 821 1697 821 1697 717 c 256,14,15
 1697 613 1697 613 1667.5 516 c 128,-1,16
 1638 419 1638 419 1584.5 335 c 128,-1,17
 1531 251 1531 251 1456 182 c 128,-1,18
 1381 113 1381 113 1290 63.5 c 128,-1,19
 1199 14 1199 14 1094 -13 c 128,-1,20
 989 -40 989 -40 876 -40 c 256,21,22
 763 -40 763 -40 658 -13 c 128,-1,23
 553 14 553 14 462 63.5 c 128,-1,24
 371 113 371 113 296 182 c 128,-1,25
 221 251 221 251 168 335 c 128,-1,26
 115 419 115 419 85.5 515.5 c 128,-1,27
 56 612 56 612 56 717 c 0,0,1
228 713 m 0,28,29
 228 579 228 579 279 461 c 128,-1,30
 330 343 330 343 418 255 c 128,-1,31
 506 167 506 167 624 116 c 128,-1,32
 742 65 742 65 876 65 c 256,33,34
 1010 65 1010 65 1128 116 c 128,-1,35
 1246 167 1246 167 1334 255 c 128,-1,36
 1422 343 1422 343 1473 461 c 128,-1,37
 1524 579 1524 579 1524 713 c 0,38,39
 1524 802 1524 802 1501 885 c 128,-1,40
 1478 968 1478 968 1435.5 1040 c 128,-1,41
 1393 1112 1393 1112 1334 1171 c 128,-1,42
 1275 1230 1275 1230 1203 1272.5 c 128,-1,43
 1131 1315 1131 1315 1048 1338 c 128,-1,44
 965 1361 965 1361 876 1361 c 256,45,46
 787 1361 787 1361 704 1338 c 128,-1,47
 621 1315 621 1315 549 1272.5 c 128,-1,48
 477 1230 477 1230 418 1171 c 128,-1,49
 359 1112 359 1112 316.5 1040 c 128,-1,50
 274 968 274 968 251 885 c 128,-1,51
 228 802 228 802 228 713 c 0,28,29
493 474 m 1,52,-1
 493 972 l 1,53,-1
 404 1110 l 1,54,55
 455 1111 455 1111 520.5 1111.5 c 128,-1,56
 586 1112 586 1112 651 1112.5 c 128,-1,57
 716 1113 716 1113 773 1113.5 c 128,-1,58
 830 1114 830 1114 865 1114 c 0,59,60
 914 1114 914 1114 967.5 1112 c 128,-1,61
 1021 1110 1021 1110 1072.5 1102.5 c 128,-1,62
 1124 1095 1124 1095 1170.5 1080.5 c 128,-1,63
 1217 1066 1217 1066 1252 1042 c 128,-1,64
 1287 1018 1287 1018 1308 983 c 128,-1,65
 1329 948 1329 948 1329 898 c 0,66,67
 1329 822 1329 822 1279 775.5 c 128,-1,68
 1229 729 1229 729 1144 703 c 1,69,70
 1177 698 1177 698 1206 680.5 c 128,-1,71
 1235 663 1235 663 1256 635.5 c 128,-1,72
 1277 608 1277 608 1289.5 572.5 c 128,-1,73
 1302 537 1302 537 1302 495 c 2,74,-1
 1302 463 l 1,75,-1
 1376 337 l 1,76,-1
 941 337 l 1,77,-1
 1018 450 l 1,78,-1
 1018 518 l 2,79,80
 1018 546 1018 546 1010.5 569.5 c 128,-1,81
 1003 593 1003 593 989.5 610 c 128,-1,82
 976 627 976 627 958.5 636.5 c 128,-1,83
 941 646 941 646 921 646 c 2,84,-1
 763 646 l 1,85,-1
 763 474 l 1,86,-1
 856 337 l 1,87,-1
 382 337 l 1,88,-1
 493 474 l 1,52,-1
838 752 m 2,89,90
 892 752 892 752 932 757 c 128,-1,91
 972 762 972 762 998.5 775 c 128,-1,92
 1025 788 1025 788 1038 811.5 c 128,-1,93
 1051 835 1051 835 1051 872 c 0,94,95
 1051 915 1051 915 1031 940 c 128,-1,96
 1011 965 1011 965 979.5 978 c 128,-1,97
 948 991 948 991 910.5 994 c 128,-1,98
 873 997 873 997 838 997 c 2,99,-1
 763 997 l 1,100,-1
 763 752 l 1,101,-1
 838 752 l 2,89,90
EndSplineSet
Validated: 1
EndChar

StartChar: asciicircum
Encoding: 94 94 134
Width: 1443
Flags: W
LayerCount: 2
Fore
SplineSet
81 460 m 1,0,-1
 722 1472 l 1,1,-1
 1362 460 l 1,2,-1
 1153 329 l 1,3,-1
 723 1059 l 1,4,-1
 291 329 l 1,5,-1
 81 460 l 1,0,-1
EndSplineSet
Validated: 1
EndChar

StartChar: underscore
Encoding: 95 95 135
Width: 1508
Flags: W
LayerCount: 2
Fore
SplineSet
1528 -72 m 1,0,-1
 1528 -294 l 1,1,-1
 -20 -294 l 1,2,-1
 -20 -72 l 1,3,-1
 1528 -72 l 1,0,-1
EndSplineSet
Validated: 1
EndChar

StartChar: section
Encoding: 167 167 136
Width: 1741
Flags: W
LayerCount: 2
Fore
SplineSet
218 191 m 1,0,1
 294 141 294 141 381.5 95.5 c 128,-1,2
 469 50 469 50 563 15.5 c 128,-1,3
 657 -19 657 -19 755 -39.5 c 128,-1,4
 853 -60 853 -60 951 -60 c 0,5,6
 988 -60 988 -60 1024.5 -55 c 128,-1,7
 1061 -50 1061 -50 1089.5 -39.5 c 128,-1,8
 1118 -29 1118 -29 1135.5 -11.5 c 128,-1,9
 1153 6 1153 6 1153 31 c 0,10,11
 1153 52 1153 52 1139 66.5 c 128,-1,12
 1125 81 1125 81 1086.5 93 c 128,-1,13
 1048 105 1048 105 980 116 c 128,-1,14
 912 127 912 127 803 141 c 0,15,16
 729 150 729 150 654.5 162 c 128,-1,17
 580 174 580 174 510.5 192 c 128,-1,18
 441 210 441 210 380.5 236.5 c 128,-1,19
 320 263 320 263 275 302 c 128,-1,20
 230 341 230 341 204 394.5 c 128,-1,21
 178 448 178 448 178 520 c 0,22,23
 178 623 178 623 232 697 c 128,-1,24
 286 771 286 771 376 818 c 1,25,26
 334 836 334 836 300 859.5 c 128,-1,27
 266 883 266 883 241.5 915 c 128,-1,28
 217 947 217 947 203.5 988 c 128,-1,29
 190 1029 190 1029 190 1080 c 0,30,31
 190 1176 190 1176 236 1249 c 128,-1,32
 282 1322 282 1322 360.5 1371.5 c 128,-1,33
 439 1421 439 1421 543 1446.5 c 128,-1,34
 647 1472 647 1472 763 1472 c 0,35,36
 888 1472 888 1472 1010.5 1435.5 c 128,-1,37
 1133 1399 1133 1399 1253 1344 c 1,38,-1
 1515 1452 l 1,39,-1
 1515 1046 l 1,40,41
 1432 1095 1432 1095 1343.5 1136 c 128,-1,42
 1255 1177 1255 1177 1167.5 1206.5 c 128,-1,43
 1080 1236 1080 1236 996.5 1252.5 c 128,-1,44
 913 1269 913 1269 841 1269 c 0,45,46
 793 1269 793 1269 754 1262 c 128,-1,47
 715 1255 715 1255 686.5 1243 c 128,-1,48
 658 1231 658 1231 642.5 1215 c 128,-1,49
 627 1199 627 1199 627 1181 c 256,50,51
 627 1163 627 1163 641 1150.5 c 128,-1,52
 655 1138 655 1138 696 1127 c 128,-1,53
 737 1116 737 1116 811 1104.5 c 128,-1,54
 885 1093 885 1093 1005 1077 c 0,55,56
 1085 1066 1085 1066 1160.5 1052 c 128,-1,57
 1236 1038 1236 1038 1303.5 1017.5 c 128,-1,58
 1371 997 1371 997 1427.5 968.5 c 128,-1,59
 1484 940 1484 940 1524.5 900.5 c 128,-1,60
 1565 861 1565 861 1588 809 c 128,-1,61
 1611 757 1611 757 1611 690 c 0,62,63
 1611 635 1611 635 1595.5 590.5 c 128,-1,64
 1580 546 1580 546 1552.5 510 c 128,-1,65
 1525 474 1525 474 1486.5 446.5 c 128,-1,66
 1448 419 1448 419 1403 398 c 1,67,68
 1448 379 1448 379 1484 354.5 c 128,-1,69
 1520 330 1520 330 1545.5 297 c 128,-1,70
 1571 264 1571 264 1585 223 c 128,-1,71
 1599 182 1599 182 1599 130 c 0,72,73
 1599 58 1599 58 1572.5 0 c 128,-1,74
 1546 -58 1546 -58 1501 -103 c 128,-1,75
 1456 -148 1456 -148 1395.5 -180 c 128,-1,76
 1335 -212 1335 -212 1268 -232.5 c 128,-1,77
 1201 -253 1201 -253 1130 -263 c 128,-1,78
 1059 -273 1059 -273 992 -273 c 0,79,80
 860 -273 860 -273 731 -236.5 c 128,-1,81
 602 -200 602 -200 480 -136 c 1,82,-1
 218 -253 l 1,83,-1
 218 191 l 1,0,1
615 631 m 0,84,85
 615 610 615 610 629 590.5 c 128,-1,86
 643 571 643 571 684 553.5 c 128,-1,87
 725 536 725 536 799 519.5 c 128,-1,88
 873 503 873 503 993 487 c 2,89,-1
 1072 476 l 1,90,91
 1118 487 1118 487 1141.5 514.5 c 128,-1,92
 1165 542 1165 542 1165 581 c 0,93,94
 1165 605 1165 605 1151 626.5 c 128,-1,95
 1137 648 1137 648 1098.5 666.5 c 128,-1,96
 1060 685 1060 685 992 701 c 128,-1,97
 924 717 924 717 815 731 c 2,98,-1
 706 744 l 1,99,100
 678 737 678 737 660.5 724 c 128,-1,101
 643 711 643 711 633 695 c 128,-1,102
 623 679 623 679 619 662.5 c 128,-1,103
 615 646 615 646 615 631 c 0,84,85
EndSplineSet
Validated: 1
EndChar

StartChar: acute
Encoding: 180 180 137
Width: 1016
Flags: W
LayerCount: 2
Fore
SplineSet
415 1624 m 1,0,-1
 916 1624 l 1,1,-1
 316 1208 l 1,2,-1
 105 1208 l 1,3,-1
 415 1624 l 1,0,-1
EndSplineSet
Validated: 1
EndChar

StartChar: grave
Encoding: 96 96 138
Width: 1016
Flags: W
LayerCount: 2
Fore
SplineSet
100 1624 m 1,0,-1
 601 1624 l 1,1,-1
 911 1208 l 1,2,-1
 700 1208 l 1,3,-1
 100 1624 l 1,0,-1
EndSplineSet
Validated: 1
EndChar

StartChar: tilde
Encoding: 732 732 139
Width: 1016
Flags: W
LayerCount: 2
Fore
SplineSet
19 1383 m 1,0,1
 43 1420 43 1420 79 1461.5 c 128,-1,2
 115 1503 115 1503 158 1538 c 128,-1,3
 201 1573 201 1573 249 1596.5 c 128,-1,4
 297 1620 297 1620 346 1620 c 0,5,6
 419 1620 419 1620 482 1597.5 c 128,-1,7
 545 1575 545 1575 601 1550 c 0,8,9
 649 1529 649 1529 692.5 1513 c 128,-1,10
 736 1497 736 1497 779 1497 c 0,11,12
 817 1497 817 1497 854.5 1513.5 c 128,-1,13
 892 1530 892 1530 932 1572 c 1,14,-1
 998 1497 l 1,15,16
 974 1460 974 1460 938 1418.5 c 128,-1,17
 902 1377 902 1377 859 1341.5 c 128,-1,18
 816 1306 816 1306 768 1283 c 128,-1,19
 720 1260 720 1260 671 1260 c 0,20,21
 632 1260 632 1260 595.5 1267 c 128,-1,22
 559 1274 559 1274 525.5 1284.5 c 128,-1,23
 492 1295 492 1295 461 1308.5 c 128,-1,24
 430 1322 430 1322 400 1335 c 0,25,26
 356 1355 356 1355 316 1368 c 128,-1,27
 276 1381 276 1381 236 1381 c 0,28,29
 198 1381 198 1381 161 1364.5 c 128,-1,30
 124 1348 124 1348 85 1308 c 1,31,-1
 19 1383 l 1,0,1
EndSplineSet
Validated: 1
EndChar

StartChar: asciitilde
Encoding: 126 126 140
Width: 1547
Flags: W
LayerCount: 2
Fore
SplineSet
94 620 m 1,0,1
 120 660 120 660 164.5 702.5 c 128,-1,2
 209 745 209 745 262.5 780 c 128,-1,3
 316 815 316 815 373.5 837.5 c 128,-1,4
 431 860 431 860 484 860 c 0,5,6
 572 860 572 860 658.5 842 c 128,-1,7
 745 824 745 824 832 803 c 0,8,9
 913 783 913 783 992 767.5 c 128,-1,10
 1071 752 1071 752 1150 752 c 0,11,12
 1170 752 1170 752 1198.5 755.5 c 128,-1,13
 1227 759 1227 759 1258 766 c 128,-1,14
 1289 773 1289 773 1318 784 c 128,-1,15
 1347 795 1347 795 1367 809 c 1,16,-1
 1453 734 l 1,17,18
 1426 694 1426 694 1381.5 651.5 c 128,-1,19
 1337 609 1337 609 1284 574.5 c 128,-1,20
 1231 540 1231 540 1173 518 c 128,-1,21
 1115 496 1115 496 1063 496 c 0,22,23
 966 496 966 496 875 515 c 128,-1,24
 784 534 784 534 693 557 c 0,25,26
 616 576 616 576 542 590 c 128,-1,27
 468 604 468 604 396 604 c 0,28,29
 376 604 376 604 347 600 c 128,-1,30
 318 596 318 596 288 588.5 c 128,-1,31
 258 581 258 581 229 570 c 128,-1,32
 200 559 200 559 180 545 c 1,33,-1
 94 620 l 1,0,1
EndSplineSet
Validated: 1
EndChar

StartChar: dieresis
Encoding: 168 168 141
Width: 1016
Flags: W
LayerCount: 2
Fore
SplineSet
810 1224 m 256,0,1
 768 1224 768 1224 731 1239 c 128,-1,2
 694 1254 694 1254 667 1280.5 c 128,-1,3
 640 1307 640 1307 624 1343 c 128,-1,4
 608 1379 608 1379 608 1421 c 256,5,6
 608 1463 608 1463 624 1499.5 c 128,-1,7
 640 1536 640 1536 667 1562.5 c 128,-1,8
 694 1589 694 1589 731 1604 c 128,-1,9
 768 1619 768 1619 810 1619 c 256,10,11
 852 1619 852 1619 889.5 1604 c 128,-1,12
 927 1589 927 1589 954.5 1562.5 c 128,-1,13
 982 1536 982 1536 998 1499.5 c 128,-1,14
 1014 1463 1014 1463 1014 1421 c 256,15,16
 1014 1379 1014 1379 998 1343 c 128,-1,17
 982 1307 982 1307 954.5 1280.5 c 128,-1,18
 927 1254 927 1254 889.5 1239 c 128,-1,19
 852 1224 852 1224 810 1224 c 256,0,1
204 1224 m 256,20,21
 162 1224 162 1224 125 1239 c 128,-1,22
 88 1254 88 1254 61 1280.5 c 128,-1,23
 34 1307 34 1307 18 1343 c 128,-1,24
 2 1379 2 1379 2 1421 c 256,25,26
 2 1463 2 1463 18 1499.5 c 128,-1,27
 34 1536 34 1536 61 1562.5 c 128,-1,28
 88 1589 88 1589 125 1604 c 128,-1,29
 162 1619 162 1619 204 1619 c 256,30,31
 246 1619 246 1619 283.5 1604 c 128,-1,32
 321 1589 321 1589 348.5 1562.5 c 128,-1,33
 376 1536 376 1536 392 1499.5 c 128,-1,34
 408 1463 408 1463 408 1421 c 256,35,36
 408 1379 408 1379 392 1343 c 128,-1,37
 376 1307 376 1307 348.5 1280.5 c 128,-1,38
 321 1254 321 1254 283.5 1239 c 128,-1,39
 246 1224 246 1224 204 1224 c 256,20,21
EndSplineSet
Validated: 1
EndChar

StartChar: cedilla
Encoding: 184 184 142
Width: 1016
Flags: W
LayerCount: 2
Fore
SplineSet
230 -182 m 1,0,1
 266 -244 266 -244 322 -276.5 c 128,-1,2
 378 -309 378 -309 463 -309 c 0,3,4
 484 -309 484 -309 502.5 -306 c 128,-1,5
 521 -303 521 -303 535.5 -295.5 c 128,-1,6
 550 -288 550 -288 558 -276 c 128,-1,7
 566 -264 566 -264 566 -247 c 0,8,9
 566 -223 566 -223 552 -209.5 c 128,-1,10
 538 -196 538 -196 515 -188.5 c 128,-1,11
 492 -181 492 -181 462.5 -179 c 128,-1,12
 433 -177 433 -177 402 -177 c 1,13,-1
 435 91 l 1,14,-1
 659 43 l 1,15,-1
 659 -91 l 1,16,17
 720 -91 720 -91 771.5 -103.5 c 128,-1,18
 823 -116 823 -116 860 -141 c 128,-1,19
 897 -166 897 -166 918 -203 c 128,-1,20
 939 -240 939 -240 939 -289 c 0,21,22
 939 -343 939 -343 903.5 -382.5 c 128,-1,23
 868 -422 868 -422 812.5 -447.5 c 128,-1,24
 757 -473 757 -473 687.5 -485 c 128,-1,25
 618 -497 618 -497 551 -497 c 0,26,27
 475 -497 475 -497 403 -485.5 c 128,-1,28
 331 -474 331 -474 269 -447 c 128,-1,29
 207 -420 207 -420 157.5 -375.5 c 128,-1,30
 108 -331 108 -331 77 -264 c 1,31,-1
 230 -182 l 1,0,1
EndSplineSet
Validated: 1
EndChar

StartChar: circumflex
Encoding: 710 710 143
Width: 1016
Flags: W
LayerCount: 2
Fore
SplineSet
338 1624 m 1,0,-1
 679 1624 l 1,1,-1
 1059 1208 l 1,2,-1
 868 1208 l 1,3,-1
 508 1393 l 1,4,-1
 149 1208 l 1,5,-1
 -42 1208 l 1,6,-1
 338 1624 l 1,0,-1
EndSplineSet
Validated: 1
EndChar

StartChar: macron
Encoding: 175 175 144
Width: 1016
Flags: W
LayerCount: 2
Fore
SplineSet
4 1851 m 1,0,-1
 1012 1851 l 1,1,-1
 1012 1609 l 1,2,-1
 4 1609 l 1,3,-1
 4 1851 l 1,0,-1
EndSplineSet
Validated: 1
EndChar

StartChar: ae
Encoding: 230 230 145
Width: 2627
Flags: W
LayerCount: 2
Fore
SplineSet
94 258 m 0,0,1
 94 338 94 338 127 396.5 c 128,-1,2
 160 455 160 455 216 496.5 c 128,-1,3
 272 538 272 538 347 564 c 128,-1,4
 422 590 422 590 506 604.5 c 128,-1,5
 590 619 590 619 678.5 624.5 c 128,-1,6
 767 630 767 630 851 630 c 0,7,8
 898 630 898 630 950.5 628.5 c 128,-1,9
 1003 627 1003 627 1056 625 c 1,10,11
 1054 697 1054 697 1043.5 753.5 c 128,-1,12
 1033 810 1033 810 1008.5 848.5 c 128,-1,13
 984 887 984 887 940.5 907.5 c 128,-1,14
 897 928 897 928 829 928 c 0,15,16
 785 928 785 928 742 918 c 128,-1,17
 699 908 699 908 664 885 c 128,-1,18
 629 862 629 862 604.5 825.5 c 128,-1,19
 580 789 580 789 573 735 c 1,20,-1
 172 797 l 1,21,22
 172 885 172 885 222 950.5 c 128,-1,23
 272 1016 272 1016 353.5 1059.5 c 128,-1,24
 435 1103 435 1103 538 1124.5 c 128,-1,25
 641 1146 641 1146 747 1146 c 0,26,27
 939 1146 939 1146 1074 1102.5 c 128,-1,28
 1209 1059 1209 1059 1290 967 c 1,29,30
 1341 1013 1341 1013 1404 1046.5 c 128,-1,31
 1467 1080 1467 1080 1537.5 1102 c 128,-1,32
 1608 1124 1608 1124 1683.5 1135 c 128,-1,33
 1759 1146 1759 1146 1837 1146 c 0,34,35
 1982 1146 1982 1146 2107.5 1114 c 128,-1,36
 2233 1082 2233 1082 2325 1011 c 128,-1,37
 2417 940 2417 940 2469.5 824.5 c 128,-1,38
 2522 709 2522 709 2522 543 c 1,39,-1
 1554 543 l 1,40,41
 1559 430 1559 430 1595 360.5 c 128,-1,42
 1631 291 1631 291 1688 253.5 c 128,-1,43
 1745 216 1745 216 1817 203.5 c 128,-1,44
 1889 191 1889 191 1967 191 c 0,45,46
 2025 191 2025 191 2090 199.5 c 128,-1,47
 2155 208 2155 208 2217.5 228.5 c 128,-1,48
 2280 249 2280 249 2336 283 c 128,-1,49
 2392 317 2392 317 2431 369 c 1,50,-1
 2533 289 l 1,51,52
 2504 215 2504 215 2450 154.5 c 128,-1,53
 2396 94 2396 94 2314 51 c 128,-1,54
 2232 8 2232 8 2123 -15.5 c 128,-1,55
 2014 -39 2014 -39 1876 -39 c 0,56,57
 1791 -39 1791 -39 1702 -31 c 128,-1,58
 1613 -23 1613 -23 1527.5 1 c 128,-1,59
 1442 25 1442 25 1364 69.5 c 128,-1,60
 1286 114 1286 114 1224 186 c 1,61,62
 1175 126 1175 126 1101 83.5 c 128,-1,63
 1027 41 1027 41 936.5 14 c 128,-1,64
 846 -13 846 -13 743.5 -26 c 128,-1,65
 641 -39 641 -39 535 -39 c 0,66,67
 487 -39 487 -39 436 -34 c 128,-1,68
 385 -29 385 -29 336 -16.5 c 128,-1,69
 287 -4 287 -4 243 17.5 c 128,-1,70
 199 39 199 39 166 72 c 128,-1,71
 133 105 133 105 113.5 151 c 128,-1,72
 94 197 94 197 94 258 c 0,0,1
2038 699 m 1,73,74
 2038 840 2038 840 1989 901.5 c 128,-1,75
 1940 963 1940 963 1843 963 c 0,76,77
 1725 963 1725 963 1655.5 895.5 c 128,-1,78
 1586 828 1586 828 1564 699 c 1,79,-1
 2038 699 l 1,73,74
611 302 m 0,80,81
 611 275 611 275 625 253 c 128,-1,82
 639 231 639 231 663 216 c 128,-1,83
 687 201 687 201 719 193 c 128,-1,84
 751 185 751 185 787 185 c 0,85,86
 824 185 824 185 870.5 189 c 128,-1,87
 917 193 917 193 958.5 209.5 c 128,-1,88
 1000 226 1000 226 1028.5 260 c 128,-1,89
 1057 294 1057 294 1057 354 c 2,90,-1
 1057 456 l 1,91,92
 1043 457 1043 457 1030.5 457 c 128,-1,93
 1018 457 1018 457 1007 457 c 0,94,95
 900 457 900 457 825 446.5 c 128,-1,96
 750 436 750 436 702.5 416 c 128,-1,97
 655 396 655 396 633 367 c 128,-1,98
 611 338 611 338 611 302 c 0,80,81
EndSplineSet
Validated: 1
EndChar

StartChar: agrave
Encoding: 224 224 146
Width: 1764
Flags: W
LayerCount: 2
Fore
SplineSet
266 1663 m 1,0,-1
 767 1663 l 1,1,-1
 1077 1247 l 1,2,-1
 866 1247 l 1,3,-1
 266 1663 l 1,0,-1
94 258 m 0,4,5
 94 338 94 338 127 396.5 c 128,-1,6
 160 455 160 455 216 496.5 c 128,-1,7
 272 538 272 538 347 564 c 128,-1,8
 422 590 422 590 506 604.5 c 128,-1,9
 590 619 590 619 678.5 624.5 c 128,-1,10
 767 630 767 630 851 630 c 0,11,12
 898 630 898 630 950.5 628.5 c 128,-1,13
 1003 627 1003 627 1056 625 c 1,14,15
 1054 697 1054 697 1043.5 753.5 c 128,-1,16
 1033 810 1033 810 1008.5 848.5 c 128,-1,17
 984 887 984 887 940.5 907.5 c 128,-1,18
 897 928 897 928 829 928 c 0,19,20
 785 928 785 928 742 917 c 128,-1,21
 699 906 699 906 664 882 c 128,-1,22
 629 858 629 858 604.5 820.5 c 128,-1,23
 580 783 580 783 573 729 c 1,24,-1
 172 784 l 1,25,26
 172 852 172 852 199.5 905.5 c 128,-1,27
 227 959 227 959 275 999.5 c 128,-1,28
 323 1040 323 1040 388.5 1068 c 128,-1,29
 454 1096 454 1096 529.5 1113 c 128,-1,30
 605 1130 605 1130 687.5 1138 c 128,-1,31
 770 1146 770 1146 852 1146 c 0,32,33
 951 1146 951 1146 1041.5 1137.5 c 128,-1,34
 1132 1129 1132 1129 1210 1107 c 128,-1,35
 1288 1085 1288 1085 1351.5 1048 c 128,-1,36
 1415 1011 1415 1011 1460 954 c 128,-1,37
 1505 897 1505 897 1529.5 818 c 128,-1,38
 1554 739 1554 739 1554 634 c 2,39,-1
 1554 282 l 2,40,41
 1554 202 1554 202 1593.5 170 c 128,-1,42
 1633 138 1633 138 1701 138 c 1,43,-1
 1701 23 l 1,44,45
 1692 14 1692 14 1670.5 3.5 c 128,-1,46
 1649 -7 1649 -7 1614.5 -16.5 c 128,-1,47
 1580 -26 1580 -26 1533 -32.5 c 128,-1,48
 1486 -39 1486 -39 1425 -39 c 0,49,50
 1351 -39 1351 -39 1292 -31.5 c 128,-1,51
 1233 -24 1233 -24 1189.5 -5.5 c 128,-1,52
 1146 13 1146 13 1117 45 c 128,-1,53
 1088 77 1088 77 1073 126 c 1,54,55
 1023 82 1023 82 960 51 c 128,-1,56
 897 20 897 20 826.5 0 c 128,-1,57
 756 -20 756 -20 681.5 -29.5 c 128,-1,58
 607 -39 607 -39 535 -39 c 0,59,60
 487 -39 487 -39 436 -34 c 128,-1,61
 385 -29 385 -29 336 -16.5 c 128,-1,62
 287 -4 287 -4 243 17.5 c 128,-1,63
 199 39 199 39 166 72 c 128,-1,64
 133 105 133 105 113.5 151 c 128,-1,65
 94 197 94 197 94 258 c 0,4,5
611 302 m 0,66,67
 611 275 611 275 625 253 c 128,-1,68
 639 231 639 231 663 216 c 128,-1,69
 687 201 687 201 719 193 c 128,-1,70
 751 185 751 185 787 185 c 0,71,72
 824 185 824 185 869 193.5 c 128,-1,73
 914 202 914 202 954.5 222 c 128,-1,74
 995 242 995 242 1024 274.5 c 128,-1,75
 1053 307 1053 307 1057 354 c 1,76,-1
 1057 456 l 1,77,78
 1043 457 1043 457 1030.5 457 c 128,-1,79
 1018 457 1018 457 1007 457 c 0,80,81
 900 457 900 457 825 446.5 c 128,-1,82
 750 436 750 436 702.5 416 c 128,-1,83
 655 396 655 396 633 367 c 128,-1,84
 611 338 611 338 611 302 c 0,66,67
EndSplineSet
Validated: 1
EndChar

StartChar: aacute
Encoding: 225 225 147
Width: 1764
Flags: W
LayerCount: 2
Fore
SplineSet
971 1663 m 1,0,-1
 1472 1663 l 1,1,-1
 872 1247 l 1,2,-1
 661 1247 l 1,3,-1
 971 1663 l 1,0,-1
94 258 m 0,4,5
 94 338 94 338 127 396.5 c 128,-1,6
 160 455 160 455 216 496.5 c 128,-1,7
 272 538 272 538 347 564 c 128,-1,8
 422 590 422 590 506 604.5 c 128,-1,9
 590 619 590 619 678.5 624.5 c 128,-1,10
 767 630 767 630 851 630 c 0,11,12
 898 630 898 630 950.5 628.5 c 128,-1,13
 1003 627 1003 627 1056 625 c 1,14,15
 1054 697 1054 697 1043.5 753.5 c 128,-1,16
 1033 810 1033 810 1008.5 848.5 c 128,-1,17
 984 887 984 887 940.5 907.5 c 128,-1,18
 897 928 897 928 829 928 c 0,19,20
 785 928 785 928 742 917 c 128,-1,21
 699 906 699 906 664 882 c 128,-1,22
 629 858 629 858 604.5 820.5 c 128,-1,23
 580 783 580 783 573 729 c 1,24,-1
 172 784 l 1,25,26
 172 852 172 852 199.5 905.5 c 128,-1,27
 227 959 227 959 275 999.5 c 128,-1,28
 323 1040 323 1040 388.5 1068 c 128,-1,29
 454 1096 454 1096 529.5 1113 c 128,-1,30
 605 1130 605 1130 687.5 1138 c 128,-1,31
 770 1146 770 1146 852 1146 c 0,32,33
 951 1146 951 1146 1041.5 1137.5 c 128,-1,34
 1132 1129 1132 1129 1210 1107 c 128,-1,35
 1288 1085 1288 1085 1351.5 1048 c 128,-1,36
 1415 1011 1415 1011 1460 954 c 128,-1,37
 1505 897 1505 897 1529.5 818 c 128,-1,38
 1554 739 1554 739 1554 634 c 2,39,-1
 1554 282 l 2,40,41
 1554 202 1554 202 1593.5 170 c 128,-1,42
 1633 138 1633 138 1701 138 c 1,43,-1
 1701 23 l 1,44,45
 1692 14 1692 14 1670.5 3.5 c 128,-1,46
 1649 -7 1649 -7 1614.5 -16.5 c 128,-1,47
 1580 -26 1580 -26 1533 -32.5 c 128,-1,48
 1486 -39 1486 -39 1425 -39 c 0,49,50
 1351 -39 1351 -39 1292 -31.5 c 128,-1,51
 1233 -24 1233 -24 1189.5 -5.5 c 128,-1,52
 1146 13 1146 13 1117 45 c 128,-1,53
 1088 77 1088 77 1073 126 c 1,54,55
 1023 82 1023 82 960 51 c 128,-1,56
 897 20 897 20 826.5 0 c 128,-1,57
 756 -20 756 -20 681.5 -29.5 c 128,-1,58
 607 -39 607 -39 535 -39 c 0,59,60
 487 -39 487 -39 436 -34 c 128,-1,61
 385 -29 385 -29 336 -16.5 c 128,-1,62
 287 -4 287 -4 243 17.5 c 128,-1,63
 199 39 199 39 166 72 c 128,-1,64
 133 105 133 105 113.5 151 c 128,-1,65
 94 197 94 197 94 258 c 0,4,5
611 302 m 0,66,67
 611 275 611 275 625 253 c 128,-1,68
 639 231 639 231 663 216 c 128,-1,69
 687 201 687 201 719 193 c 128,-1,70
 751 185 751 185 787 185 c 0,71,72
 824 185 824 185 869 193.5 c 128,-1,73
 914 202 914 202 954.5 222 c 128,-1,74
 995 242 995 242 1024 274.5 c 128,-1,75
 1053 307 1053 307 1057 354 c 1,76,-1
 1057 456 l 1,77,78
 1043 457 1043 457 1030.5 457 c 128,-1,79
 1018 457 1018 457 1007 457 c 0,80,81
 900 457 900 457 825 446.5 c 128,-1,82
 750 436 750 436 702.5 416 c 128,-1,83
 655 396 655 396 633 367 c 128,-1,84
 611 338 611 338 611 302 c 0,66,67
EndSplineSet
Validated: 1
EndChar

StartChar: acircumflex
Encoding: 226 226 148
Width: 1764
Flags: W
LayerCount: 2
Fore
SplineSet
699 1663 m 1,0,-1
 1040 1663 l 1,1,-1
 1420 1247 l 1,2,-1
 1229 1247 l 1,3,-1
 869 1432 l 1,4,-1
 510 1247 l 1,5,-1
 319 1247 l 1,6,-1
 699 1663 l 1,0,-1
94 258 m 0,7,8
 94 338 94 338 127 396.5 c 128,-1,9
 160 455 160 455 216 496.5 c 128,-1,10
 272 538 272 538 347 564 c 128,-1,11
 422 590 422 590 506 604.5 c 128,-1,12
 590 619 590 619 678.5 624.5 c 128,-1,13
 767 630 767 630 851 630 c 0,14,15
 898 630 898 630 950.5 628.5 c 128,-1,16
 1003 627 1003 627 1056 625 c 1,17,18
 1054 697 1054 697 1043.5 753.5 c 128,-1,19
 1033 810 1033 810 1008.5 848.5 c 128,-1,20
 984 887 984 887 940.5 907.5 c 128,-1,21
 897 928 897 928 829 928 c 0,22,23
 785 928 785 928 742 917 c 128,-1,24
 699 906 699 906 664 882 c 128,-1,25
 629 858 629 858 604.5 820.5 c 128,-1,26
 580 783 580 783 573 729 c 1,27,-1
 172 784 l 1,28,29
 172 852 172 852 199.5 905.5 c 128,-1,30
 227 959 227 959 275 999.5 c 128,-1,31
 323 1040 323 1040 388.5 1068 c 128,-1,32
 454 1096 454 1096 529.5 1113 c 128,-1,33
 605 1130 605 1130 687.5 1138 c 128,-1,34
 770 1146 770 1146 852 1146 c 0,35,36
 951 1146 951 1146 1041.5 1137.5 c 128,-1,37
 1132 1129 1132 1129 1210 1107 c 128,-1,38
 1288 1085 1288 1085 1351.5 1048 c 128,-1,39
 1415 1011 1415 1011 1460 954 c 128,-1,40
 1505 897 1505 897 1529.5 818 c 128,-1,41
 1554 739 1554 739 1554 634 c 2,42,-1
 1554 282 l 2,43,44
 1554 202 1554 202 1593.5 170 c 128,-1,45
 1633 138 1633 138 1701 138 c 1,46,-1
 1701 23 l 1,47,48
 1692 14 1692 14 1670.5 3.5 c 128,-1,49
 1649 -7 1649 -7 1614.5 -16.5 c 128,-1,50
 1580 -26 1580 -26 1533 -32.5 c 128,-1,51
 1486 -39 1486 -39 1425 -39 c 0,52,53
 1351 -39 1351 -39 1292 -31.5 c 128,-1,54
 1233 -24 1233 -24 1189.5 -5.5 c 128,-1,55
 1146 13 1146 13 1117 45 c 128,-1,56
 1088 77 1088 77 1073 126 c 1,57,58
 1023 82 1023 82 960 51 c 128,-1,59
 897 20 897 20 826.5 0 c 128,-1,60
 756 -20 756 -20 681.5 -29.5 c 128,-1,61
 607 -39 607 -39 535 -39 c 0,62,63
 487 -39 487 -39 436 -34 c 128,-1,64
 385 -29 385 -29 336 -16.5 c 128,-1,65
 287 -4 287 -4 243 17.5 c 128,-1,66
 199 39 199 39 166 72 c 128,-1,67
 133 105 133 105 113.5 151 c 128,-1,68
 94 197 94 197 94 258 c 0,7,8
611 302 m 0,69,70
 611 275 611 275 625 253 c 128,-1,71
 639 231 639 231 663 216 c 128,-1,72
 687 201 687 201 719 193 c 128,-1,73
 751 185 751 185 787 185 c 0,74,75
 824 185 824 185 869 193.5 c 128,-1,76
 914 202 914 202 954.5 222 c 128,-1,77
 995 242 995 242 1024 274.5 c 128,-1,78
 1053 307 1053 307 1057 354 c 1,79,-1
 1057 456 l 1,80,81
 1043 457 1043 457 1030.5 457 c 128,-1,82
 1018 457 1018 457 1007 457 c 0,83,84
 900 457 900 457 825 446.5 c 128,-1,85
 750 436 750 436 702.5 416 c 128,-1,86
 655 396 655 396 633 367 c 128,-1,87
 611 338 611 338 611 302 c 0,69,70
EndSplineSet
Validated: 1
EndChar

StartChar: adieresis
Encoding: 228 228 149
Width: 1764
Flags: W
LayerCount: 2
Fore
SplineSet
1172 1263 m 256,0,1
 1130 1263 1130 1263 1093 1278 c 128,-1,2
 1056 1293 1056 1293 1029 1319.5 c 128,-1,3
 1002 1346 1002 1346 986 1382 c 128,-1,4
 970 1418 970 1418 970 1460 c 256,5,6
 970 1502 970 1502 986 1538.5 c 128,-1,7
 1002 1575 1002 1575 1029 1601.5 c 128,-1,8
 1056 1628 1056 1628 1093 1643 c 128,-1,9
 1130 1658 1130 1658 1172 1658 c 256,10,11
 1214 1658 1214 1658 1251.5 1643 c 128,-1,12
 1289 1628 1289 1628 1316.5 1601.5 c 128,-1,13
 1344 1575 1344 1575 1360 1538.5 c 128,-1,14
 1376 1502 1376 1502 1376 1460 c 256,15,16
 1376 1418 1376 1418 1360 1382 c 128,-1,17
 1344 1346 1344 1346 1316.5 1319.5 c 128,-1,18
 1289 1293 1289 1293 1251.5 1278 c 128,-1,19
 1214 1263 1214 1263 1172 1263 c 256,0,1
566 1263 m 256,20,21
 524 1263 524 1263 487 1278 c 128,-1,22
 450 1293 450 1293 423 1319.5 c 128,-1,23
 396 1346 396 1346 380 1382 c 128,-1,24
 364 1418 364 1418 364 1460 c 256,25,26
 364 1502 364 1502 380 1538.5 c 128,-1,27
 396 1575 396 1575 423 1601.5 c 128,-1,28
 450 1628 450 1628 487 1643 c 128,-1,29
 524 1658 524 1658 566 1658 c 256,30,31
 608 1658 608 1658 645.5 1643 c 128,-1,32
 683 1628 683 1628 710.5 1601.5 c 128,-1,33
 738 1575 738 1575 754 1538.5 c 128,-1,34
 770 1502 770 1502 770 1460 c 256,35,36
 770 1418 770 1418 754 1382 c 128,-1,37
 738 1346 738 1346 710.5 1319.5 c 128,-1,38
 683 1293 683 1293 645.5 1278 c 128,-1,39
 608 1263 608 1263 566 1263 c 256,20,21
94 258 m 0,40,41
 94 338 94 338 127 396.5 c 128,-1,42
 160 455 160 455 216 496.5 c 128,-1,43
 272 538 272 538 347 564 c 128,-1,44
 422 590 422 590 506 604.5 c 128,-1,45
 590 619 590 619 678.5 624.5 c 128,-1,46
 767 630 767 630 851 630 c 0,47,48
 898 630 898 630 950.5 628.5 c 128,-1,49
 1003 627 1003 627 1056 625 c 1,50,51
 1054 697 1054 697 1043.5 753.5 c 128,-1,52
 1033 810 1033 810 1008.5 848.5 c 128,-1,53
 984 887 984 887 940.5 907.5 c 128,-1,54
 897 928 897 928 829 928 c 0,55,56
 785 928 785 928 742 917 c 128,-1,57
 699 906 699 906 664 882 c 128,-1,58
 629 858 629 858 604.5 820.5 c 128,-1,59
 580 783 580 783 573 729 c 1,60,-1
 172 784 l 1,61,62
 172 852 172 852 199.5 905.5 c 128,-1,63
 227 959 227 959 275 999.5 c 128,-1,64
 323 1040 323 1040 388.5 1068 c 128,-1,65
 454 1096 454 1096 529.5 1113 c 128,-1,66
 605 1130 605 1130 687.5 1138 c 128,-1,67
 770 1146 770 1146 852 1146 c 0,68,69
 951 1146 951 1146 1041.5 1137.5 c 128,-1,70
 1132 1129 1132 1129 1210 1107 c 128,-1,71
 1288 1085 1288 1085 1351.5 1048 c 128,-1,72
 1415 1011 1415 1011 1460 954 c 128,-1,73
 1505 897 1505 897 1529.5 818 c 128,-1,74
 1554 739 1554 739 1554 634 c 2,75,-1
 1554 282 l 2,76,77
 1554 202 1554 202 1593.5 170 c 128,-1,78
 1633 138 1633 138 1701 138 c 1,79,-1
 1701 23 l 1,80,81
 1692 14 1692 14 1670.5 3.5 c 128,-1,82
 1649 -7 1649 -7 1614.5 -16.5 c 128,-1,83
 1580 -26 1580 -26 1533 -32.5 c 128,-1,84
 1486 -39 1486 -39 1425 -39 c 0,85,86
 1351 -39 1351 -39 1292 -31.5 c 128,-1,87
 1233 -24 1233 -24 1189.5 -5.5 c 128,-1,88
 1146 13 1146 13 1117 45 c 128,-1,89
 1088 77 1088 77 1073 126 c 1,90,91
 1023 82 1023 82 960 51 c 128,-1,92
 897 20 897 20 826.5 0 c 128,-1,93
 756 -20 756 -20 681.5 -29.5 c 128,-1,94
 607 -39 607 -39 535 -39 c 0,95,96
 487 -39 487 -39 436 -34 c 128,-1,97
 385 -29 385 -29 336 -16.5 c 128,-1,98
 287 -4 287 -4 243 17.5 c 128,-1,99
 199 39 199 39 166 72 c 128,-1,100
 133 105 133 105 113.5 151 c 128,-1,101
 94 197 94 197 94 258 c 0,40,41
611 302 m 0,102,103
 611 275 611 275 625 253 c 128,-1,104
 639 231 639 231 663 216 c 128,-1,105
 687 201 687 201 719 193 c 128,-1,106
 751 185 751 185 787 185 c 0,107,108
 824 185 824 185 869 193.5 c 128,-1,109
 914 202 914 202 954.5 222 c 128,-1,110
 995 242 995 242 1024 274.5 c 128,-1,111
 1053 307 1053 307 1057 354 c 1,112,-1
 1057 456 l 1,113,114
 1043 457 1043 457 1030.5 457 c 128,-1,115
 1018 457 1018 457 1007 457 c 0,116,117
 900 457 900 457 825 446.5 c 128,-1,118
 750 436 750 436 702.5 416 c 128,-1,119
 655 396 655 396 633 367 c 128,-1,120
 611 338 611 338 611 302 c 0,102,103
EndSplineSet
Validated: 1
EndChar

StartChar: atilde
Encoding: 227 227 150
Width: 1764
Flags: W
LayerCount: 2
Fore
SplineSet
380 1422 m 1,0,1
 404 1459 404 1459 440 1500.5 c 128,-1,2
 476 1542 476 1542 519 1577 c 128,-1,3
 562 1612 562 1612 610 1635.5 c 128,-1,4
 658 1659 658 1659 707 1659 c 0,5,6
 780 1659 780 1659 843 1636.5 c 128,-1,7
 906 1614 906 1614 962 1589 c 0,8,9
 1010 1568 1010 1568 1053.5 1552 c 128,-1,10
 1097 1536 1097 1536 1140 1536 c 0,11,12
 1178 1536 1178 1536 1215.5 1552.5 c 128,-1,13
 1253 1569 1253 1569 1293 1611 c 1,14,-1
 1359 1536 l 1,15,16
 1335 1499 1335 1499 1299 1457.5 c 128,-1,17
 1263 1416 1263 1416 1220 1380.5 c 128,-1,18
 1177 1345 1177 1345 1129 1322 c 128,-1,19
 1081 1299 1081 1299 1032 1299 c 0,20,21
 993 1299 993 1299 956.5 1306 c 128,-1,22
 920 1313 920 1313 886.5 1323.5 c 128,-1,23
 853 1334 853 1334 822 1347.5 c 128,-1,24
 791 1361 791 1361 761 1374 c 0,25,26
 717 1394 717 1394 677 1407 c 128,-1,27
 637 1420 637 1420 597 1420 c 0,28,29
 559 1420 559 1420 522 1403.5 c 128,-1,30
 485 1387 485 1387 446 1347 c 1,31,-1
 380 1422 l 1,0,1
94 258 m 0,32,33
 94 338 94 338 127 396.5 c 128,-1,34
 160 455 160 455 216 496.5 c 128,-1,35
 272 538 272 538 347 564 c 128,-1,36
 422 590 422 590 506 604.5 c 128,-1,37
 590 619 590 619 678.5 624.5 c 128,-1,38
 767 630 767 630 851 630 c 0,39,40
 898 630 898 630 950.5 628.5 c 128,-1,41
 1003 627 1003 627 1056 625 c 1,42,43
 1054 697 1054 697 1043.5 753.5 c 128,-1,44
 1033 810 1033 810 1008.5 848.5 c 128,-1,45
 984 887 984 887 940.5 907.5 c 128,-1,46
 897 928 897 928 829 928 c 0,47,48
 785 928 785 928 742 917 c 128,-1,49
 699 906 699 906 664 882 c 128,-1,50
 629 858 629 858 604.5 820.5 c 128,-1,51
 580 783 580 783 573 729 c 1,52,-1
 172 784 l 1,53,54
 172 852 172 852 199.5 905.5 c 128,-1,55
 227 959 227 959 275 999.5 c 128,-1,56
 323 1040 323 1040 388.5 1068 c 128,-1,57
 454 1096 454 1096 529.5 1113 c 128,-1,58
 605 1130 605 1130 687.5 1138 c 128,-1,59
 770 1146 770 1146 852 1146 c 0,60,61
 951 1146 951 1146 1041.5 1137.5 c 128,-1,62
 1132 1129 1132 1129 1210 1107 c 128,-1,63
 1288 1085 1288 1085 1351.5 1048 c 128,-1,64
 1415 1011 1415 1011 1460 954 c 128,-1,65
 1505 897 1505 897 1529.5 818 c 128,-1,66
 1554 739 1554 739 1554 634 c 2,67,-1
 1554 282 l 2,68,69
 1554 202 1554 202 1593.5 170 c 128,-1,70
 1633 138 1633 138 1701 138 c 1,71,-1
 1701 23 l 1,72,73
 1692 14 1692 14 1670.5 3.5 c 128,-1,74
 1649 -7 1649 -7 1614.5 -16.5 c 128,-1,75
 1580 -26 1580 -26 1533 -32.5 c 128,-1,76
 1486 -39 1486 -39 1425 -39 c 0,77,78
 1351 -39 1351 -39 1292 -31.5 c 128,-1,79
 1233 -24 1233 -24 1189.5 -5.5 c 128,-1,80
 1146 13 1146 13 1117 45 c 128,-1,81
 1088 77 1088 77 1073 126 c 1,82,83
 1023 82 1023 82 960 51 c 128,-1,84
 897 20 897 20 826.5 0 c 128,-1,85
 756 -20 756 -20 681.5 -29.5 c 128,-1,86
 607 -39 607 -39 535 -39 c 0,87,88
 487 -39 487 -39 436 -34 c 128,-1,89
 385 -29 385 -29 336 -16.5 c 128,-1,90
 287 -4 287 -4 243 17.5 c 128,-1,91
 199 39 199 39 166 72 c 128,-1,92
 133 105 133 105 113.5 151 c 128,-1,93
 94 197 94 197 94 258 c 0,32,33
611 302 m 0,94,95
 611 275 611 275 625 253 c 128,-1,96
 639 231 639 231 663 216 c 128,-1,97
 687 201 687 201 719 193 c 128,-1,98
 751 185 751 185 787 185 c 0,99,100
 824 185 824 185 869 193.5 c 128,-1,101
 914 202 914 202 954.5 222 c 128,-1,102
 995 242 995 242 1024 274.5 c 128,-1,103
 1053 307 1053 307 1057 354 c 1,104,-1
 1057 456 l 1,105,106
 1043 457 1043 457 1030.5 457 c 128,-1,107
 1018 457 1018 457 1007 457 c 0,108,109
 900 457 900 457 825 446.5 c 128,-1,110
 750 436 750 436 702.5 416 c 128,-1,111
 655 396 655 396 633 367 c 128,-1,112
 611 338 611 338 611 302 c 0,94,95
EndSplineSet
Validated: 1
EndChar

StartChar: aring
Encoding: 229 229 151
Width: 1764
Flags: W
LayerCount: 2
Fore
SplineSet
871 1235 m 256,0,1
 815 1235 815 1235 765.5 1256.5 c 128,-1,2
 716 1278 716 1278 679.5 1314.5 c 128,-1,3
 643 1351 643 1351 621.5 1400.5 c 128,-1,4
 600 1450 600 1450 600 1506 c 256,5,6
 600 1562 600 1562 621.5 1611.5 c 128,-1,7
 643 1661 643 1661 679.5 1698 c 128,-1,8
 716 1735 716 1735 765.5 1756.5 c 128,-1,9
 815 1778 815 1778 871 1778 c 256,10,11
 927 1778 927 1778 976.5 1756.5 c 128,-1,12
 1026 1735 1026 1735 1063 1698 c 128,-1,13
 1100 1661 1100 1661 1121.5 1611.5 c 128,-1,14
 1143 1562 1143 1562 1143 1506 c 256,15,16
 1143 1450 1143 1450 1121.5 1400.5 c 128,-1,17
 1100 1351 1100 1351 1063 1314.5 c 128,-1,18
 1026 1278 1026 1278 976.5 1256.5 c 128,-1,19
 927 1235 927 1235 871 1235 c 256,0,1
871 1378 m 256,20,21
 898 1378 898 1378 921.5 1388 c 128,-1,22
 945 1398 945 1398 962.5 1415.5 c 128,-1,23
 980 1433 980 1433 990 1456 c 128,-1,24
 1000 1479 1000 1479 1000 1506 c 256,25,26
 1000 1533 1000 1533 990 1556.5 c 128,-1,27
 980 1580 980 1580 962.5 1597.5 c 128,-1,28
 945 1615 945 1615 921.5 1625 c 128,-1,29
 898 1635 898 1635 871 1635 c 256,30,31
 844 1635 844 1635 821 1625 c 128,-1,32
 798 1615 798 1615 780.5 1597.5 c 128,-1,33
 763 1580 763 1580 753 1556.5 c 128,-1,34
 743 1533 743 1533 743 1506 c 256,35,36
 743 1479 743 1479 753 1456 c 128,-1,37
 763 1433 763 1433 780.5 1415.5 c 128,-1,38
 798 1398 798 1398 821 1388 c 128,-1,39
 844 1378 844 1378 871 1378 c 256,20,21
94 258 m 0,40,41
 94 338 94 338 127 396.5 c 128,-1,42
 160 455 160 455 216 496.5 c 128,-1,43
 272 538 272 538 347 564 c 128,-1,44
 422 590 422 590 506 604.5 c 128,-1,45
 590 619 590 619 678.5 624.5 c 128,-1,46
 767 630 767 630 851 630 c 0,47,48
 898 630 898 630 950.5 628.5 c 128,-1,49
 1003 627 1003 627 1056 625 c 1,50,51
 1054 697 1054 697 1043.5 753.5 c 128,-1,52
 1033 810 1033 810 1008.5 848.5 c 128,-1,53
 984 887 984 887 940.5 907.5 c 128,-1,54
 897 928 897 928 829 928 c 0,55,56
 785 928 785 928 742 917 c 128,-1,57
 699 906 699 906 664 882 c 128,-1,58
 629 858 629 858 604.5 820.5 c 128,-1,59
 580 783 580 783 573 729 c 1,60,-1
 172 784 l 1,61,62
 172 852 172 852 199.5 905.5 c 128,-1,63
 227 959 227 959 275 999.5 c 128,-1,64
 323 1040 323 1040 388.5 1068 c 128,-1,65
 454 1096 454 1096 529.5 1113 c 128,-1,66
 605 1130 605 1130 687.5 1138 c 128,-1,67
 770 1146 770 1146 852 1146 c 0,68,69
 951 1146 951 1146 1041.5 1137.5 c 128,-1,70
 1132 1129 1132 1129 1210 1107 c 128,-1,71
 1288 1085 1288 1085 1351.5 1048 c 128,-1,72
 1415 1011 1415 1011 1460 954 c 128,-1,73
 1505 897 1505 897 1529.5 818 c 128,-1,74
 1554 739 1554 739 1554 634 c 2,75,-1
 1554 282 l 2,76,77
 1554 202 1554 202 1593.5 170 c 128,-1,78
 1633 138 1633 138 1701 138 c 1,79,-1
 1701 23 l 1,80,81
 1692 14 1692 14 1670.5 3.5 c 128,-1,82
 1649 -7 1649 -7 1614.5 -16.5 c 128,-1,83
 1580 -26 1580 -26 1533 -32.5 c 128,-1,84
 1486 -39 1486 -39 1425 -39 c 0,85,86
 1351 -39 1351 -39 1292 -31.5 c 128,-1,87
 1233 -24 1233 -24 1189.5 -5.5 c 128,-1,88
 1146 13 1146 13 1117 45 c 128,-1,89
 1088 77 1088 77 1073 126 c 1,90,91
 1023 82 1023 82 960 51 c 128,-1,92
 897 20 897 20 826.5 0 c 128,-1,93
 756 -20 756 -20 681.5 -29.5 c 128,-1,94
 607 -39 607 -39 535 -39 c 0,95,96
 487 -39 487 -39 436 -34 c 128,-1,97
 385 -29 385 -29 336 -16.5 c 128,-1,98
 287 -4 287 -4 243 17.5 c 128,-1,99
 199 39 199 39 166 72 c 128,-1,100
 133 105 133 105 113.5 151 c 128,-1,101
 94 197 94 197 94 258 c 0,40,41
611 302 m 0,102,103
 611 275 611 275 625 253 c 128,-1,104
 639 231 639 231 663 216 c 128,-1,105
 687 201 687 201 719 193 c 128,-1,106
 751 185 751 185 787 185 c 0,107,108
 824 185 824 185 869 193.5 c 128,-1,109
 914 202 914 202 954.5 222 c 128,-1,110
 995 242 995 242 1024 274.5 c 128,-1,111
 1053 307 1053 307 1057 354 c 1,112,-1
 1057 456 l 1,113,114
 1043 457 1043 457 1030.5 457 c 128,-1,115
 1018 457 1018 457 1007 457 c 0,116,117
 900 457 900 457 825 446.5 c 128,-1,118
 750 436 750 436 702.5 416 c 128,-1,119
 655 396 655 396 633 367 c 128,-1,120
 611 338 611 338 611 302 c 0,102,103
EndSplineSet
Validated: 1
EndChar

StartChar: ccedilla
Encoding: 231 231 152
Width: 1729
Flags: W
LayerCount: 2
Fore
SplineSet
627 -202 m 1,0,1
 663 -264 663 -264 719 -296.5 c 128,-1,2
 775 -329 775 -329 860 -329 c 0,3,4
 881 -329 881 -329 899.5 -326 c 128,-1,5
 918 -323 918 -323 932.5 -315.5 c 128,-1,6
 947 -308 947 -308 955 -296 c 128,-1,7
 963 -284 963 -284 963 -267 c 0,8,9
 963 -243 963 -243 949 -229.5 c 128,-1,10
 935 -216 935 -216 912 -208.5 c 128,-1,11
 889 -201 889 -201 859.5 -199 c 128,-1,12
 830 -197 830 -197 799 -197 c 1,13,-1
 819 -35 l 1,14,15
 648 -23 648 -23 514 21 c 128,-1,16
 380 65 380 65 288 140.5 c 128,-1,17
 196 216 196 216 148 321.5 c 128,-1,18
 100 427 100 427 100 562 c 0,19,20
 100 696 100 696 163 804 c 128,-1,21
 226 912 226 912 335 988 c 128,-1,22
 444 1064 444 1064 590.5 1105 c 128,-1,23
 737 1146 737 1146 904 1146 c 0,24,25
 1068 1146 1068 1146 1188.5 1113.5 c 128,-1,26
 1309 1081 1309 1081 1388 1033 c 1,27,-1
 1597 1154 l 1,28,-1
 1597 670 l 1,29,-1
 1347 640 l 1,30,31
 1328 704 1328 704 1295 759 c 128,-1,32
 1262 814 1262 814 1215.5 854 c 128,-1,33
 1169 894 1169 894 1110 916.5 c 128,-1,34
 1051 939 1051 939 981 939 c 0,35,36
 917 939 917 939 853.5 921 c 128,-1,37
 790 903 790 903 739.5 859.5 c 128,-1,38
 689 816 689 816 657.5 743.5 c 128,-1,39
 626 671 626 671 626 562 c 0,40,41
 626 470 626 470 658.5 401 c 128,-1,42
 691 332 691 332 744.5 285.5 c 128,-1,43
 798 239 798 239 867 216 c 128,-1,44
 936 193 936 193 1010 193 c 0,45,46
 1073 193 1073 193 1143.5 200.5 c 128,-1,47
 1214 208 1214 208 1282.5 229 c 128,-1,48
 1351 250 1351 250 1413 287 c 128,-1,49
 1475 324 1475 324 1521 383 c 1,50,-1
 1623 303 l 1,51,52
 1596 235 1596 235 1544 178 c 128,-1,53
 1492 121 1492 121 1419 77.5 c 128,-1,54
 1346 34 1346 34 1254 5.5 c 128,-1,55
 1162 -23 1162 -23 1056 -33 c 1,56,-1
 1056 -111 l 1,57,58
 1117 -111 1117 -111 1168.5 -123.5 c 128,-1,59
 1220 -136 1220 -136 1257 -161 c 128,-1,60
 1294 -186 1294 -186 1315 -223 c 128,-1,61
 1336 -260 1336 -260 1336 -309 c 0,62,63
 1336 -363 1336 -363 1300.5 -402.5 c 128,-1,64
 1265 -442 1265 -442 1209.5 -467.5 c 128,-1,65
 1154 -493 1154 -493 1084.5 -505 c 128,-1,66
 1015 -517 1015 -517 948 -517 c 0,67,68
 872 -517 872 -517 800 -505.5 c 128,-1,69
 728 -494 728 -494 666 -467 c 128,-1,70
 604 -440 604 -440 554.5 -395.5 c 128,-1,71
 505 -351 505 -351 474 -284 c 1,72,-1
 627 -202 l 1,0,1
EndSplineSet
Validated: 1
EndChar

